G75*
%MOIN*%
%OFA0B0*%
%FSLAX25Y25*%
%IPPOS*%
%LPD*%
%AMOC8*
5,1,8,0,0,1.08239X$1,22.5*
%
%ADD10R,0.04331X0.03937*%
%ADD11R,0.03937X0.04331*%
%ADD12R,0.02165X0.04724*%
%ADD13R,0.06299X0.05512*%
%ADD14C,0.01181*%
%ADD15R,0.02600X0.08000*%
%ADD16R,0.08000X0.02600*%
%ADD17C,0.07400*%
%ADD18C,0.07000*%
%ADD19R,0.03150X0.03543*%
%ADD20C,0.00787*%
%ADD21C,0.02400*%
D10*
X0082894Y0075805D03*
X0089587Y0075805D03*
X0104547Y0052183D03*
X0111240Y0052183D03*
X0118327Y0052183D03*
X0125020Y0052183D03*
X0132106Y0052183D03*
X0138799Y0052183D03*
X0145886Y0052183D03*
X0152579Y0052183D03*
X0160413Y0052065D03*
X0167106Y0052065D03*
X0175413Y0052183D03*
X0182106Y0052183D03*
X0189193Y0052183D03*
X0195886Y0052183D03*
X0202972Y0052183D03*
X0209665Y0052183D03*
X0224626Y0075805D03*
X0231319Y0075805D03*
X0248248Y0099427D03*
X0254941Y0099427D03*
X0271870Y0123049D03*
X0278563Y0123049D03*
X0295492Y0146671D03*
X0302185Y0146671D03*
X0300217Y0233285D03*
X0293524Y0233285D03*
X0278563Y0256907D03*
X0271870Y0256907D03*
X0258878Y0280530D03*
X0252185Y0280530D03*
X0245098Y0280530D03*
X0238406Y0280530D03*
X0231319Y0280530D03*
X0224626Y0280530D03*
X0217539Y0280530D03*
X0210846Y0280530D03*
X0203760Y0280530D03*
X0197067Y0280530D03*
X0184075Y0256907D03*
X0177382Y0256907D03*
X0160965Y0233797D03*
X0154272Y0233797D03*
X0136713Y0256514D03*
X0130020Y0256514D03*
X0117224Y0279624D03*
X0110531Y0279624D03*
X0103287Y0279703D03*
X0096594Y0279703D03*
X0089429Y0279624D03*
X0082736Y0279624D03*
X0075728Y0279545D03*
X0069035Y0279545D03*
X0062067Y0279506D03*
X0055374Y0279506D03*
X0042382Y0255884D03*
X0035689Y0255884D03*
X0018642Y0233285D03*
X0011949Y0233285D03*
X0063602Y0152183D03*
X0070295Y0152183D03*
X0070689Y0125411D03*
X0063996Y0125411D03*
X0042343Y0123049D03*
X0035650Y0123049D03*
X0020689Y0146671D03*
X0013996Y0146671D03*
X0059272Y0099427D03*
X0065965Y0099427D03*
D11*
X0101988Y0143758D03*
X0101988Y0150451D03*
X0127579Y0150530D03*
X0127579Y0143837D03*
X0154114Y0143758D03*
X0154114Y0150451D03*
X0144311Y0173285D03*
X0144311Y0179978D03*
X0144232Y0191907D03*
X0144232Y0198600D03*
X0134193Y0198758D03*
X0134193Y0192065D03*
X0124114Y0191907D03*
X0124114Y0198600D03*
X0154075Y0198561D03*
X0154075Y0191868D03*
X0163917Y0180175D03*
X0163917Y0173482D03*
X0174232Y0191947D03*
X0174232Y0198640D03*
X0179272Y0150490D03*
X0179272Y0143797D03*
X0306713Y0153167D03*
X0306713Y0159860D03*
X0306713Y0166947D03*
X0306713Y0173640D03*
X0306713Y0180726D03*
X0306713Y0187419D03*
X0306713Y0194506D03*
X0306713Y0201199D03*
X0306713Y0208285D03*
X0306713Y0214978D03*
X0306713Y0222065D03*
X0306713Y0228758D03*
X0007933Y0226986D03*
X0007933Y0220293D03*
X0007500Y0213010D03*
X0007500Y0206317D03*
X0007500Y0199230D03*
X0007500Y0192537D03*
X0007500Y0185451D03*
X0007500Y0178758D03*
X0007500Y0171671D03*
X0007500Y0164978D03*
X0007500Y0157892D03*
X0007500Y0151199D03*
D12*
X0063602Y0145097D03*
X0071083Y0145097D03*
X0071083Y0134860D03*
X0067343Y0134860D03*
X0063602Y0134860D03*
D13*
X0055531Y0133679D03*
X0055531Y0144703D03*
X0079547Y0144624D03*
X0079547Y0133600D03*
D14*
X0072173Y0121278D02*
X0072173Y0118522D01*
X0069417Y0118522D01*
X0069417Y0121278D01*
X0072173Y0121278D01*
X0072173Y0119702D02*
X0069417Y0119702D01*
X0069417Y0120882D02*
X0072173Y0120882D01*
X0065268Y0121278D02*
X0065268Y0118522D01*
X0062512Y0118522D01*
X0062512Y0121278D01*
X0065268Y0121278D01*
X0065268Y0119702D02*
X0062512Y0119702D01*
X0062512Y0120882D02*
X0065268Y0120882D01*
D15*
X0112047Y0105622D03*
X0117047Y0105622D03*
X0122047Y0105622D03*
X0127047Y0105622D03*
X0132047Y0105622D03*
X0137047Y0105622D03*
X0142047Y0105622D03*
X0147047Y0105622D03*
X0147047Y0081422D03*
X0142047Y0081422D03*
X0137047Y0081422D03*
X0132047Y0081422D03*
X0127047Y0081422D03*
X0122047Y0081422D03*
X0117047Y0081422D03*
X0112047Y0081422D03*
X0180945Y0081422D03*
X0185945Y0081422D03*
X0190945Y0081422D03*
X0195945Y0081422D03*
X0200945Y0081422D03*
X0205945Y0081422D03*
X0210945Y0081422D03*
X0215945Y0081422D03*
X0215945Y0105622D03*
X0210945Y0105622D03*
X0205945Y0105622D03*
X0200945Y0105622D03*
X0195945Y0105622D03*
X0190945Y0105622D03*
X0185945Y0105622D03*
X0180945Y0105622D03*
X0220315Y0124729D03*
X0225315Y0124729D03*
X0230315Y0124729D03*
X0235315Y0124729D03*
X0240315Y0124729D03*
X0245315Y0124729D03*
X0250315Y0124729D03*
X0255315Y0124729D03*
X0255315Y0148929D03*
X0250315Y0148929D03*
X0245315Y0148929D03*
X0240315Y0148929D03*
X0235315Y0148929D03*
X0230315Y0148929D03*
X0225315Y0148929D03*
X0220315Y0148929D03*
X0218504Y0223154D03*
X0223504Y0223154D03*
X0228504Y0223154D03*
X0233504Y0223154D03*
X0238504Y0223154D03*
X0243504Y0223154D03*
X0243504Y0247354D03*
X0238504Y0247354D03*
X0233504Y0247354D03*
X0228504Y0247354D03*
X0223504Y0247354D03*
X0218504Y0247354D03*
X0213504Y0247354D03*
X0208504Y0247354D03*
X0208504Y0223154D03*
X0213504Y0223154D03*
X0101772Y0223154D03*
X0096772Y0223154D03*
X0091772Y0223154D03*
X0086772Y0223154D03*
X0081772Y0223154D03*
X0076772Y0223154D03*
X0071772Y0223154D03*
X0066772Y0223154D03*
X0066772Y0247354D03*
X0071772Y0247354D03*
X0076772Y0247354D03*
X0081772Y0247354D03*
X0086772Y0247354D03*
X0091772Y0247354D03*
X0096772Y0247354D03*
X0101772Y0247354D03*
D16*
X0064876Y0201573D03*
X0064876Y0196573D03*
X0064876Y0191573D03*
X0064876Y0186573D03*
X0064876Y0181573D03*
X0064876Y0176573D03*
X0064876Y0171573D03*
X0064876Y0166573D03*
X0040676Y0166573D03*
X0040676Y0171573D03*
X0040676Y0176573D03*
X0040676Y0181573D03*
X0040676Y0186573D03*
X0040676Y0191573D03*
X0040676Y0196573D03*
X0040676Y0201573D03*
X0257211Y0203541D03*
X0257211Y0198541D03*
X0257211Y0193541D03*
X0257211Y0188541D03*
X0257211Y0183541D03*
X0257211Y0178541D03*
X0257211Y0173541D03*
X0257211Y0168541D03*
X0281411Y0168541D03*
X0281411Y0173541D03*
X0281411Y0178541D03*
X0281411Y0183541D03*
X0281411Y0188541D03*
X0281411Y0193541D03*
X0281411Y0198541D03*
X0281411Y0203541D03*
D17*
X0166949Y0041553D03*
X0166949Y0031553D03*
X0156949Y0031553D03*
X0146949Y0031553D03*
X0146949Y0041553D03*
X0156949Y0041553D03*
X0152264Y0014585D03*
X0162264Y0014585D03*
D18*
X0164075Y0166041D03*
X0174075Y0166041D03*
X0184075Y0166041D03*
X0194075Y0166041D03*
X0154075Y0166041D03*
X0144075Y0166041D03*
X0134075Y0166041D03*
X0124075Y0166041D03*
X0124075Y0206041D03*
X0134075Y0206041D03*
X0144075Y0206041D03*
X0154075Y0206041D03*
X0164075Y0206041D03*
X0174075Y0206041D03*
X0184075Y0206041D03*
X0194075Y0206041D03*
D19*
X0197815Y0150569D03*
X0190335Y0150569D03*
X0194075Y0142301D03*
X0174075Y0150372D03*
X0166594Y0150372D03*
X0170335Y0142104D03*
X0145728Y0150411D03*
X0138248Y0150411D03*
X0141988Y0142144D03*
X0121752Y0150451D03*
X0114272Y0150451D03*
X0118012Y0142183D03*
D20*
X0117736Y0141750D01*
X0107894Y0131907D01*
X0091654Y0131907D01*
X0084272Y0131907D01*
X0084272Y0116159D01*
X0067539Y0116159D01*
X0064094Y0119604D01*
X0063890Y0119900D01*
X0060650Y0122065D02*
X0060650Y0117636D01*
X0065079Y0113207D01*
X0130039Y0113207D01*
X0130039Y0111238D01*
X0130285Y0110992D01*
X0129547Y0110254D01*
X0129547Y0100904D01*
X0128809Y0100165D01*
X0129055Y0099919D01*
X0129055Y0099427D01*
X0128809Y0100165D02*
X0127579Y0098935D01*
X0127579Y0082203D01*
X0127087Y0081711D01*
X0127047Y0081422D01*
X0122047Y0081422D02*
X0121673Y0081711D01*
X0119705Y0083679D01*
X0119705Y0096967D01*
X0119213Y0100411D02*
X0126594Y0100411D01*
X0126594Y0105333D01*
X0127047Y0105622D01*
X0131516Y0104841D02*
X0132008Y0105333D01*
X0132047Y0105622D01*
X0131516Y0104841D02*
X0131516Y0088600D01*
X0129547Y0086632D01*
X0129547Y0076789D01*
X0130531Y0075805D01*
X0130531Y0053659D01*
X0132008Y0052183D01*
X0132106Y0052183D01*
X0128563Y0054644D02*
X0128563Y0042833D01*
X0145295Y0026100D01*
X0162028Y0026100D01*
X0162028Y0014781D01*
X0162264Y0014585D01*
X0166949Y0031553D02*
X0166949Y0032006D01*
X0171870Y0036927D01*
X0171870Y0085156D01*
X0167441Y0085156D01*
X0167441Y0089093D02*
X0162028Y0094506D01*
X0162028Y0135844D01*
X0154114Y0143758D01*
X0150709Y0141258D02*
X0157106Y0134860D01*
X0157106Y0113699D01*
X0151693Y0112715D02*
X0156614Y0107793D01*
X0156614Y0058089D01*
X0157106Y0057596D01*
X0157106Y0054644D01*
X0156614Y0054152D01*
X0156614Y0041848D01*
X0156949Y0041553D01*
X0152677Y0047754D02*
X0152677Y0052183D01*
X0152579Y0052183D01*
X0148740Y0054644D02*
X0148740Y0063010D01*
X0149724Y0063994D01*
X0149724Y0090077D01*
X0137421Y0102380D01*
X0137421Y0105333D01*
X0137047Y0105622D01*
X0142047Y0105622D02*
X0142343Y0105333D01*
X0142343Y0100904D01*
X0148248Y0094998D01*
X0151693Y0098443D02*
X0151693Y0057104D01*
X0151201Y0056612D01*
X0148740Y0054644D02*
X0146280Y0052183D01*
X0145886Y0052183D01*
X0138898Y0052183D02*
X0138799Y0052183D01*
X0138898Y0052183D02*
X0138898Y0056612D01*
X0147264Y0065470D02*
X0147264Y0081219D01*
X0147047Y0081422D01*
X0142047Y0081422D02*
X0141850Y0081711D01*
X0141850Y0084663D01*
X0141112Y0085402D01*
X0143327Y0087616D01*
X0141112Y0085402D02*
X0133976Y0092537D01*
X0132047Y0081422D02*
X0132500Y0081219D01*
X0132500Y0074821D01*
X0139390Y0067931D01*
X0141850Y0070392D02*
X0137421Y0074821D01*
X0137421Y0081219D01*
X0137047Y0081422D01*
X0127579Y0066455D02*
X0127579Y0055628D01*
X0128563Y0054644D01*
X0125118Y0052183D02*
X0125020Y0052183D01*
X0125118Y0052183D02*
X0125118Y0047754D01*
X0118327Y0052183D02*
X0118228Y0052183D01*
X0113799Y0056612D01*
X0113799Y0063994D01*
X0109370Y0068423D01*
X0109370Y0090569D01*
X0119213Y0100411D01*
X0116752Y0102380D02*
X0116752Y0105333D01*
X0117047Y0105622D01*
X0116752Y0102380D02*
X0109862Y0095490D01*
X0109862Y0098935D02*
X0111831Y0100904D01*
X0111831Y0105333D01*
X0112047Y0105622D01*
X0107402Y0108285D02*
X0110354Y0111238D01*
X0121673Y0111238D01*
X0121673Y0105825D01*
X0122047Y0105622D01*
X0130285Y0110992D02*
X0130531Y0111238D01*
X0146772Y0111238D01*
X0146772Y0105825D01*
X0147047Y0105622D01*
X0150709Y0102872D02*
X0154646Y0098935D01*
X0154646Y0056612D01*
X0159075Y0053167D02*
X0159075Y0094998D01*
X0167441Y0099427D02*
X0167441Y0118128D01*
X0171870Y0117636D02*
X0164488Y0125018D01*
X0164488Y0136337D01*
X0169902Y0141750D01*
X0170335Y0142104D01*
X0169902Y0142242D01*
X0169902Y0152577D01*
X0168917Y0153561D01*
X0168917Y0170785D01*
X0195984Y0170785D01*
X0200906Y0165864D01*
X0200906Y0142734D01*
X0194508Y0142734D01*
X0194075Y0142301D01*
X0197461Y0150608D02*
X0197815Y0150569D01*
X0197461Y0150608D02*
X0194508Y0153561D01*
X0194508Y0165864D01*
X0194075Y0166041D01*
X0201890Y0178659D02*
X0200413Y0180136D01*
X0163996Y0180136D01*
X0163917Y0180175D01*
X0159567Y0179644D02*
X0144311Y0179644D01*
X0144311Y0179978D01*
X0144311Y0173285D02*
X0144311Y0166356D01*
X0144075Y0166041D01*
X0138898Y0163896D02*
X0150709Y0152085D01*
X0150709Y0141258D01*
X0149232Y0140274D02*
X0149232Y0110746D01*
X0154154Y0105825D01*
X0154154Y0103364D01*
X0171870Y0117636D02*
X0171870Y0085156D01*
X0174823Y0080234D02*
X0174823Y0105825D01*
X0180728Y0105825D02*
X0180728Y0111730D01*
X0180728Y0105825D02*
X0180945Y0105622D01*
X0185945Y0105622D02*
X0186142Y0105333D01*
X0186142Y0103364D01*
X0195492Y0094014D01*
X0198937Y0095490D02*
X0191063Y0103364D01*
X0191063Y0105333D01*
X0190945Y0105622D01*
X0195945Y0105622D02*
X0195984Y0105825D01*
X0195984Y0111730D01*
X0201398Y0111730D02*
X0201398Y0105825D01*
X0200945Y0105622D01*
X0198445Y0100904D02*
X0198445Y0126986D01*
X0211732Y0140274D01*
X0217146Y0141258D02*
X0248642Y0141258D01*
X0242244Y0138797D02*
X0259961Y0138797D01*
X0259961Y0163404D01*
X0274724Y0178167D01*
X0275217Y0178167D01*
X0271280Y0182104D01*
X0271280Y0190470D01*
X0276447Y0195638D01*
X0276201Y0195884D01*
X0276201Y0204250D01*
X0266850Y0213600D01*
X0260945Y0217045D02*
X0260945Y0207203D01*
X0257500Y0203758D01*
X0257211Y0203541D01*
X0257008Y0198837D02*
X0257211Y0198541D01*
X0257008Y0198837D02*
X0254547Y0198837D01*
X0251594Y0201789D01*
X0251594Y0207695D01*
X0258484Y0214585D01*
X0260945Y0217045D02*
X0246181Y0217045D01*
X0246181Y0228364D01*
X0245197Y0228364D01*
X0230925Y0242636D01*
X0230925Y0245096D01*
X0228957Y0247065D01*
X0228504Y0247354D01*
X0228465Y0247557D01*
X0228465Y0273640D01*
X0224528Y0276100D02*
X0224528Y0280530D01*
X0224626Y0280530D01*
X0222067Y0276100D02*
X0222067Y0255923D01*
X0226004Y0251986D01*
X0226004Y0242636D01*
X0238307Y0230333D01*
X0238307Y0223443D01*
X0238504Y0223154D01*
X0233504Y0223154D02*
X0233386Y0223443D01*
X0233386Y0230333D01*
X0218130Y0230333D01*
X0205827Y0242636D01*
X0205827Y0278561D01*
X0203858Y0280530D01*
X0203760Y0280530D01*
X0197067Y0280530D02*
X0196969Y0280530D01*
X0196969Y0276100D01*
X0210748Y0276100D02*
X0210748Y0280530D01*
X0210846Y0280530D01*
X0217539Y0280530D02*
X0217638Y0280530D01*
X0222067Y0276100D01*
X0231319Y0280530D02*
X0231417Y0280530D01*
X0231417Y0253463D01*
X0233504Y0247354D02*
X0233878Y0247065D01*
X0235846Y0245096D01*
X0235846Y0242636D01*
X0244213Y0234270D01*
X0281122Y0234270D01*
X0281122Y0203758D01*
X0281411Y0203541D01*
X0281411Y0198541D02*
X0281122Y0198344D01*
X0279154Y0198344D01*
X0276447Y0195638D01*
X0281411Y0193541D02*
X0281614Y0193423D01*
X0285059Y0193423D01*
X0285059Y0191947D01*
X0289980Y0187026D01*
X0289980Y0180136D01*
X0287520Y0177675D01*
X0284075Y0173246D02*
X0281614Y0173246D01*
X0281411Y0173541D01*
X0284075Y0173246D02*
X0287028Y0170293D01*
X0287028Y0167341D01*
X0306713Y0167341D01*
X0306713Y0166947D01*
X0306713Y0159959D02*
X0302283Y0159959D01*
X0306713Y0159959D02*
X0306713Y0159860D01*
X0306713Y0153167D02*
X0306713Y0153069D01*
X0274232Y0153069D01*
X0264390Y0146671D02*
X0295492Y0146671D01*
X0302185Y0146671D02*
X0306713Y0146671D01*
X0283091Y0123049D02*
X0278563Y0123049D01*
X0271870Y0123049D02*
X0264390Y0123049D01*
X0264390Y0125510D01*
X0255315Y0124729D02*
X0255039Y0124526D01*
X0255039Y0122065D01*
X0249626Y0116652D01*
X0248642Y0114191D02*
X0261929Y0114191D01*
X0261929Y0161435D01*
X0278661Y0178167D01*
X0281122Y0178167D01*
X0281411Y0178541D01*
X0281411Y0183541D02*
X0281614Y0183581D01*
X0287520Y0183581D01*
X0292441Y0180628D02*
X0306713Y0180628D01*
X0306713Y0180726D01*
X0306713Y0173738D02*
X0302283Y0173738D01*
X0306713Y0173738D02*
X0306713Y0173640D01*
X0306713Y0187419D02*
X0306713Y0187518D01*
X0302283Y0187518D01*
X0306713Y0194407D02*
X0306713Y0194506D01*
X0306713Y0194407D02*
X0287520Y0194407D01*
X0281122Y0188994D02*
X0281411Y0188541D01*
X0281122Y0188994D02*
X0273740Y0188994D01*
X0267835Y0191455D02*
X0259961Y0183581D01*
X0257500Y0183581D01*
X0257211Y0183541D01*
X0257500Y0178659D02*
X0257211Y0178541D01*
X0257500Y0178659D02*
X0259469Y0178659D01*
X0263406Y0182596D01*
X0264882Y0179152D02*
X0259469Y0173738D01*
X0257500Y0173738D01*
X0257211Y0173541D01*
X0257500Y0170785D02*
X0257500Y0168817D01*
X0257211Y0168541D01*
X0257500Y0170785D02*
X0263898Y0170785D01*
X0275217Y0171278D02*
X0275217Y0168817D01*
X0281122Y0168817D01*
X0281411Y0168541D01*
X0257992Y0153561D02*
X0257992Y0144211D01*
X0257500Y0143719D01*
X0235354Y0143719D01*
X0235354Y0148640D01*
X0235315Y0148929D01*
X0230315Y0148929D02*
X0229941Y0149132D01*
X0229941Y0190963D01*
X0216654Y0190963D01*
X0214193Y0188502D01*
X0171378Y0188502D01*
X0170886Y0188994D01*
X0170886Y0191455D01*
X0154154Y0191455D01*
X0154075Y0191868D01*
X0149724Y0191455D02*
X0144311Y0191455D01*
X0144232Y0191907D01*
X0144232Y0198600D02*
X0144311Y0198837D01*
X0144311Y0205726D01*
X0144075Y0206041D01*
X0142343Y0211140D02*
X0138898Y0207695D01*
X0138898Y0196868D01*
X0134469Y0192439D01*
X0134193Y0192065D01*
X0129055Y0196868D02*
X0129055Y0207695D01*
X0134469Y0213108D01*
X0249626Y0213108D01*
X0249626Y0161927D01*
X0257992Y0153561D01*
X0250118Y0155530D02*
X0250118Y0149132D01*
X0250315Y0148929D01*
X0245315Y0148929D02*
X0245197Y0149132D01*
X0243228Y0151100D01*
X0243228Y0211140D01*
X0142343Y0211140D01*
X0134469Y0205726D02*
X0134075Y0206041D01*
X0134469Y0205726D02*
X0134469Y0198837D01*
X0134193Y0198758D01*
X0129055Y0196868D02*
X0124134Y0191947D01*
X0124114Y0191907D01*
X0119213Y0192931D02*
X0107894Y0204250D01*
X0107894Y0225904D01*
X0092146Y0241652D01*
X0092146Y0247065D01*
X0091772Y0247354D01*
X0096772Y0247354D02*
X0097067Y0247065D01*
X0097067Y0244604D01*
X0107402Y0234270D01*
X0108878Y0228856D02*
X0108878Y0228364D01*
X0108878Y0228856D02*
X0136437Y0256415D01*
X0136713Y0256514D01*
X0130020Y0256514D02*
X0129547Y0256907D01*
X0125610Y0256907D01*
X0115276Y0275608D02*
X0116752Y0277085D01*
X0116752Y0279545D01*
X0117224Y0279624D01*
X0110531Y0279624D02*
X0110354Y0279545D01*
X0105925Y0275116D01*
X0105925Y0242636D01*
X0101772Y0247354D02*
X0101496Y0247557D01*
X0101496Y0250018D01*
X0098051Y0253463D01*
X0102972Y0253463D02*
X0102972Y0279545D01*
X0103287Y0279703D01*
X0096594Y0279703D02*
X0096575Y0279545D01*
X0096575Y0275608D01*
X0094114Y0275116D02*
X0094114Y0260844D01*
X0084272Y0251986D02*
X0084272Y0233285D01*
X0081811Y0230825D01*
X0081811Y0223443D01*
X0081772Y0223154D01*
X0086772Y0223154D02*
X0087224Y0223443D01*
X0087224Y0229841D01*
X0087717Y0230333D01*
X0086732Y0233285D02*
X0084272Y0230825D01*
X0084272Y0217537D01*
X0070492Y0217537D01*
X0070492Y0169309D01*
X0066555Y0165372D01*
X0064876Y0166573D01*
X0065079Y0166356D01*
X0070000Y0161435D01*
X0070000Y0152577D01*
X0070295Y0152183D01*
X0070000Y0152085D01*
X0068524Y0150608D01*
X0068524Y0135844D01*
X0067539Y0134860D01*
X0067343Y0134860D01*
X0067047Y0134368D01*
X0067047Y0128463D01*
X0063996Y0125411D01*
X0060650Y0122065D01*
X0063602Y0125510D02*
X0063996Y0125411D01*
X0063602Y0125510D02*
X0055728Y0133384D01*
X0055531Y0133679D01*
X0059173Y0126494D02*
X0039488Y0126494D01*
X0036043Y0123049D01*
X0035650Y0123049D01*
X0042343Y0123049D02*
X0046870Y0123049D01*
X0064587Y0130431D02*
X0064587Y0133384D01*
X0063602Y0134368D01*
X0063602Y0134860D01*
X0069508Y0130431D02*
X0070984Y0131907D01*
X0070984Y0133876D01*
X0071083Y0134860D01*
X0070984Y0134368D01*
X0070984Y0133876D01*
X0079350Y0133876D01*
X0079547Y0133600D01*
X0084272Y0131907D02*
X0084272Y0136829D01*
X0080827Y0140274D01*
X0071476Y0140274D01*
X0071476Y0144703D01*
X0071083Y0145097D01*
X0070492Y0152085D02*
X0070295Y0152183D01*
X0070492Y0152085D02*
X0079350Y0152085D01*
X0079350Y0144703D01*
X0079547Y0144624D01*
X0067047Y0156022D02*
X0063602Y0152577D01*
X0063602Y0152183D01*
X0063602Y0152085D01*
X0055728Y0152085D01*
X0055728Y0144703D01*
X0055531Y0144703D01*
X0059665Y0156022D02*
X0059665Y0168817D01*
X0062126Y0171278D01*
X0064587Y0171278D01*
X0064876Y0171573D01*
X0064587Y0176199D02*
X0062126Y0176199D01*
X0057697Y0171770D01*
X0057697Y0157990D01*
X0007500Y0157990D01*
X0007500Y0157892D01*
X0009961Y0162419D02*
X0055728Y0162419D01*
X0055728Y0174722D01*
X0062126Y0181120D01*
X0064587Y0181120D01*
X0064876Y0181573D01*
X0064587Y0186533D02*
X0062618Y0186533D01*
X0055236Y0179152D01*
X0050315Y0176691D02*
X0050315Y0214585D01*
X0047854Y0208187D02*
X0047854Y0181612D01*
X0040965Y0181612D01*
X0040676Y0181573D01*
X0040676Y0186573D02*
X0040472Y0187026D01*
X0014882Y0187026D01*
X0011437Y0182104D02*
X0010453Y0182104D01*
X0007500Y0185057D01*
X0007500Y0185451D01*
X0007500Y0179152D02*
X0007500Y0178758D01*
X0007500Y0179152D02*
X0032598Y0179152D01*
X0035059Y0183089D02*
X0036043Y0184073D01*
X0045886Y0184073D01*
X0045886Y0198837D01*
X0043425Y0201297D01*
X0040965Y0201297D01*
X0040676Y0201573D01*
X0043917Y0201297D01*
X0043917Y0211632D01*
X0043425Y0217045D02*
X0059665Y0217045D01*
X0059665Y0199329D01*
X0062126Y0196868D01*
X0064587Y0196868D01*
X0064876Y0196573D01*
X0064587Y0193915D02*
X0064587Y0191947D01*
X0064876Y0191573D01*
X0064587Y0193915D02*
X0058681Y0193915D01*
X0064587Y0201789D02*
X0064876Y0201573D01*
X0064587Y0201789D02*
X0064094Y0202281D01*
X0064094Y0219998D01*
X0007992Y0219998D01*
X0007933Y0220293D01*
X0011929Y0222459D02*
X0007992Y0226396D01*
X0007992Y0226888D01*
X0007933Y0226986D01*
X0007500Y0233285D02*
X0011949Y0233285D01*
X0018642Y0233285D02*
X0018819Y0233285D01*
X0018819Y0222459D01*
X0007500Y0213010D02*
X0007500Y0212616D01*
X0010945Y0209171D01*
X0010945Y0207203D01*
X0011929Y0206219D01*
X0009961Y0203758D02*
X0030138Y0203758D01*
X0043425Y0217045D01*
X0032106Y0202281D02*
X0032106Y0191947D01*
X0040472Y0191947D01*
X0040676Y0191573D01*
X0040472Y0196376D02*
X0034567Y0196376D01*
X0040472Y0196376D02*
X0040676Y0196573D01*
X0028661Y0198837D02*
X0007500Y0198837D01*
X0007500Y0199230D01*
X0009961Y0203758D02*
X0007500Y0206219D01*
X0007500Y0206317D01*
X0007500Y0192537D02*
X0007500Y0192439D01*
X0011929Y0192439D01*
X0007500Y0171671D02*
X0007500Y0171278D01*
X0010945Y0167833D01*
X0010945Y0165864D01*
X0011929Y0164880D01*
X0009961Y0162419D02*
X0007500Y0164880D01*
X0007500Y0164978D01*
X0007500Y0151199D02*
X0007500Y0146671D01*
X0013996Y0146671D02*
X0014390Y0146671D01*
X0023740Y0156022D01*
X0059665Y0156022D01*
X0051791Y0164880D02*
X0040965Y0164880D01*
X0040965Y0166356D01*
X0040676Y0166573D01*
X0040965Y0171278D02*
X0040676Y0171573D01*
X0040472Y0171770D01*
X0035059Y0171770D01*
X0035059Y0183089D01*
X0040676Y0176573D02*
X0040965Y0176691D01*
X0046870Y0176691D01*
X0050315Y0176691D01*
X0051791Y0171278D02*
X0040965Y0171278D01*
X0064587Y0176199D02*
X0064876Y0176573D01*
X0064587Y0186533D02*
X0064876Y0186573D01*
X0070000Y0217537D02*
X0069016Y0218522D01*
X0069016Y0220982D01*
X0067047Y0222951D01*
X0066772Y0223154D01*
X0071476Y0223443D02*
X0071772Y0223154D01*
X0071476Y0223443D02*
X0071476Y0228364D01*
X0060157Y0228364D01*
X0038012Y0250510D01*
X0038012Y0253463D01*
X0036043Y0255431D01*
X0035689Y0255884D01*
X0040472Y0251494D02*
X0041949Y0252970D01*
X0041949Y0255431D01*
X0042382Y0255884D01*
X0056220Y0246081D02*
X0076398Y0225904D01*
X0076398Y0223443D01*
X0076772Y0223154D01*
X0070492Y0217537D02*
X0070000Y0217537D01*
X0086732Y0233285D02*
X0086732Y0247065D01*
X0086772Y0247354D01*
X0081772Y0247354D02*
X0081319Y0247065D01*
X0081319Y0241652D01*
X0080827Y0241159D01*
X0076398Y0240667D02*
X0076398Y0247065D01*
X0076772Y0247354D01*
X0073937Y0249526D02*
X0073937Y0253463D01*
X0073937Y0249526D02*
X0071969Y0247557D01*
X0071772Y0247354D01*
X0066772Y0247354D02*
X0066555Y0247065D01*
X0063110Y0243620D01*
X0056220Y0246081D02*
X0056220Y0278561D01*
X0055728Y0279053D01*
X0055374Y0279506D01*
X0058681Y0275608D02*
X0061634Y0278561D01*
X0061634Y0279053D01*
X0062067Y0279506D01*
X0069016Y0279545D02*
X0069016Y0275116D01*
X0069016Y0279545D02*
X0069035Y0279545D01*
X0075728Y0279545D02*
X0075906Y0279545D01*
X0080335Y0275116D01*
X0080335Y0255923D01*
X0084272Y0251986D01*
X0092146Y0231317D02*
X0092146Y0223443D01*
X0091772Y0223154D01*
X0096575Y0223443D02*
X0096772Y0223154D01*
X0096575Y0223443D02*
X0096575Y0229348D01*
X0101988Y0224919D02*
X0101988Y0223443D01*
X0101772Y0223154D01*
X0101988Y0224919D02*
X0105433Y0224919D01*
X0117736Y0234270D02*
X0154154Y0234270D01*
X0154272Y0233797D01*
X0158583Y0229348D02*
X0160551Y0231317D01*
X0160551Y0233778D01*
X0160965Y0233797D01*
X0172854Y0256907D02*
X0177382Y0256907D01*
X0184075Y0256907D02*
X0184173Y0256907D01*
X0212717Y0228364D01*
X0228465Y0228364D01*
X0228465Y0223443D01*
X0228504Y0223154D01*
X0223051Y0232793D02*
X0223051Y0247065D01*
X0223504Y0247354D01*
X0218504Y0247354D02*
X0218130Y0247065D01*
X0218130Y0233778D01*
X0208780Y0222951D02*
X0208504Y0223154D01*
X0208780Y0222951D02*
X0210748Y0220982D01*
X0210748Y0218522D01*
X0212224Y0217045D01*
X0246181Y0217045D01*
X0243504Y0223154D02*
X0243228Y0223443D01*
X0243228Y0226888D01*
X0240768Y0229348D01*
X0238504Y0247354D02*
X0238799Y0247557D01*
X0240768Y0249526D01*
X0240768Y0276593D01*
X0244705Y0280530D01*
X0245098Y0280530D01*
X0252087Y0280530D02*
X0252087Y0276100D01*
X0252087Y0280530D02*
X0252185Y0280530D01*
X0258484Y0280530D02*
X0258878Y0280530D01*
X0258484Y0280530D02*
X0258484Y0236730D01*
X0243504Y0247354D02*
X0243228Y0247557D01*
X0243228Y0255923D01*
X0238307Y0276100D02*
X0238307Y0280530D01*
X0238406Y0280530D01*
X0219606Y0255923D02*
X0215669Y0251986D01*
X0215669Y0249526D01*
X0213701Y0247557D01*
X0213504Y0247354D01*
X0174075Y0206041D02*
X0174331Y0205726D01*
X0174331Y0198837D01*
X0174232Y0198640D01*
X0174232Y0191947D02*
X0209272Y0191947D01*
X0217146Y0188994D02*
X0212224Y0184073D01*
X0212224Y0178659D01*
X0201890Y0178659D01*
X0217146Y0185549D02*
X0218130Y0186533D01*
X0217146Y0185549D02*
X0217146Y0141258D01*
X0217146Y0120589D01*
X0218622Y0119112D01*
X0218622Y0100904D01*
X0208287Y0090569D01*
X0208287Y0083679D01*
X0206319Y0081711D01*
X0205945Y0081422D01*
X0208780Y0079250D02*
X0208780Y0075313D01*
X0211240Y0075805D02*
X0211240Y0074329D01*
X0209764Y0072852D01*
X0198445Y0072852D01*
X0198445Y0088108D01*
X0198937Y0088600D01*
X0198937Y0095490D01*
X0200906Y0098443D02*
X0198445Y0100904D01*
X0200906Y0098443D02*
X0200906Y0081711D01*
X0200945Y0081422D01*
X0200906Y0081219D01*
X0200906Y0075313D01*
X0195945Y0081422D02*
X0195984Y0081711D01*
X0196476Y0082203D01*
X0196476Y0089585D01*
X0190945Y0081422D02*
X0190571Y0081219D01*
X0190571Y0069407D01*
X0186634Y0065470D01*
X0184173Y0070884D02*
X0174823Y0080234D01*
X0177283Y0083187D02*
X0180728Y0083187D01*
X0180945Y0081422D01*
X0180728Y0081711D01*
X0180728Y0083187D01*
X0180728Y0097459D01*
X0177283Y0098443D02*
X0177283Y0141750D01*
X0179252Y0143719D01*
X0179272Y0143797D01*
X0179272Y0150490D02*
X0179744Y0150608D01*
X0190079Y0150608D01*
X0190335Y0150569D01*
X0174331Y0150608D02*
X0174331Y0165864D01*
X0174075Y0166041D01*
X0164075Y0166041D02*
X0163996Y0166356D01*
X0163996Y0173246D01*
X0163917Y0173482D01*
X0144803Y0155530D02*
X0134469Y0165864D01*
X0134075Y0166041D01*
X0138898Y0163896D02*
X0138898Y0170785D01*
X0122165Y0170785D01*
X0119213Y0167833D01*
X0119213Y0161435D01*
X0101988Y0144211D01*
X0101988Y0143758D01*
X0105433Y0141750D02*
X0105433Y0141258D01*
X0104449Y0140274D01*
X0098543Y0140274D01*
X0098543Y0146671D01*
X0101988Y0150116D01*
X0101988Y0150451D01*
X0105433Y0141750D02*
X0113799Y0150116D01*
X0114272Y0150451D01*
X0121752Y0150451D02*
X0122165Y0150608D01*
X0123642Y0152085D01*
X0123642Y0165864D01*
X0124075Y0166041D01*
X0135945Y0153561D02*
X0142835Y0153561D01*
X0142835Y0146671D01*
X0149232Y0140274D01*
X0141988Y0142144D02*
X0141850Y0141750D01*
X0141850Y0137813D01*
X0122165Y0137813D01*
X0118228Y0141750D01*
X0118012Y0142183D01*
X0124134Y0140274D02*
X0124134Y0146671D01*
X0127579Y0150116D01*
X0127579Y0150530D01*
X0127579Y0144211D02*
X0127579Y0143837D01*
X0127579Y0144211D02*
X0135453Y0152085D01*
X0135453Y0153069D01*
X0135945Y0153561D01*
X0138248Y0150411D02*
X0137913Y0150116D01*
X0131024Y0143226D01*
X0131024Y0141258D01*
X0130039Y0140274D01*
X0124134Y0140274D01*
X0144803Y0151100D02*
X0144803Y0155530D01*
X0144803Y0151100D02*
X0145295Y0150608D01*
X0145728Y0150411D01*
X0154114Y0150451D02*
X0154154Y0150608D01*
X0166457Y0150608D01*
X0166594Y0150372D01*
X0174075Y0150372D02*
X0174331Y0150608D01*
X0203858Y0114191D02*
X0201398Y0111730D01*
X0206319Y0114683D02*
X0206319Y0105825D01*
X0205945Y0105622D01*
X0210945Y0105622D02*
X0211240Y0105825D01*
X0211240Y0115175D01*
X0215177Y0119112D01*
X0214193Y0122557D02*
X0206319Y0114683D01*
X0215945Y0105622D02*
X0215669Y0105333D01*
X0213701Y0103364D01*
X0213701Y0099427D01*
X0216161Y0081711D02*
X0215945Y0081422D01*
X0216161Y0081711D02*
X0248642Y0114191D01*
X0242736Y0104841D02*
X0248150Y0099427D01*
X0248248Y0099427D01*
X0254941Y0099427D02*
X0259469Y0099427D01*
X0237815Y0111730D02*
X0237815Y0122065D01*
X0235354Y0124526D01*
X0235315Y0124729D01*
X0238799Y0126494D02*
X0238799Y0135352D01*
X0242244Y0138797D01*
X0241260Y0134368D02*
X0250118Y0134368D01*
X0250118Y0125018D01*
X0250315Y0124729D01*
X0245315Y0124729D02*
X0245197Y0125018D01*
X0240768Y0125018D01*
X0240315Y0124729D01*
X0240276Y0125018D01*
X0238799Y0126494D01*
X0230315Y0124729D02*
X0229941Y0125018D01*
X0229941Y0133384D01*
X0222559Y0133384D01*
X0220098Y0130923D01*
X0223543Y0130923D02*
X0225020Y0129447D01*
X0225020Y0125018D01*
X0225315Y0124729D01*
X0225315Y0148929D02*
X0225020Y0149132D01*
X0225020Y0151593D01*
X0221575Y0155037D01*
X0219114Y0156022D02*
X0219114Y0150116D01*
X0220098Y0149132D01*
X0220315Y0148929D01*
X0219114Y0156022D02*
X0220591Y0157498D01*
X0220591Y0188994D01*
X0217146Y0188994D01*
X0236339Y0155037D02*
X0240276Y0151100D01*
X0240276Y0149132D01*
X0240315Y0148929D01*
X0245689Y0155530D02*
X0250118Y0155530D01*
X0257211Y0188541D02*
X0257500Y0188994D01*
X0259961Y0188994D01*
X0262421Y0191455D01*
X0262421Y0192931D01*
X0273248Y0203758D01*
X0269803Y0203758D02*
X0259961Y0193915D01*
X0257500Y0193915D01*
X0257211Y0193541D01*
X0283583Y0217537D02*
X0283583Y0251986D01*
X0278661Y0256907D01*
X0278563Y0256907D01*
X0271870Y0256907D02*
X0267343Y0256907D01*
X0288996Y0233285D02*
X0293524Y0233285D01*
X0299823Y0233285D02*
X0300217Y0233285D01*
X0299823Y0233285D02*
X0287028Y0220490D01*
X0287028Y0217537D01*
X0298346Y0221967D02*
X0306713Y0221967D01*
X0306713Y0222065D01*
X0306713Y0228758D02*
X0306713Y0233285D01*
X0306713Y0215077D02*
X0302283Y0215077D01*
X0306713Y0215077D02*
X0306713Y0214978D01*
X0306713Y0208285D02*
X0306713Y0208187D01*
X0296378Y0208187D01*
X0302283Y0201297D02*
X0306713Y0201297D01*
X0306713Y0201199D01*
X0210945Y0081422D02*
X0210748Y0081219D01*
X0208780Y0079250D01*
X0211240Y0075805D02*
X0224626Y0075805D01*
X0231319Y0075805D02*
X0235846Y0075805D01*
X0209764Y0056612D02*
X0209764Y0052183D01*
X0209665Y0052183D01*
X0207303Y0056120D02*
X0207303Y0070392D01*
X0207303Y0056120D02*
X0203366Y0052183D01*
X0202972Y0052183D01*
X0195984Y0052183D02*
X0195886Y0052183D01*
X0195984Y0052183D02*
X0195984Y0056612D01*
X0189193Y0052183D02*
X0189094Y0052183D01*
X0184173Y0057104D01*
X0184173Y0070884D01*
X0179252Y0071376D02*
X0179252Y0055628D01*
X0175807Y0052183D01*
X0175413Y0052183D01*
X0181713Y0052183D02*
X0182106Y0052183D01*
X0181713Y0052183D02*
X0181713Y0056612D01*
X0167441Y0051691D02*
X0167441Y0047754D01*
X0167441Y0051691D02*
X0167106Y0052065D01*
X0160413Y0052065D02*
X0160059Y0052183D01*
X0159075Y0053167D01*
X0183189Y0075313D02*
X0185650Y0077774D01*
X0185650Y0081219D01*
X0185945Y0081422D01*
X0127579Y0066455D02*
X0114783Y0066455D01*
X0111831Y0073837D02*
X0116752Y0078758D01*
X0116752Y0081219D01*
X0117047Y0081422D01*
X0114291Y0083679D02*
X0114291Y0086140D01*
X0117244Y0089093D01*
X0114291Y0083679D02*
X0112323Y0081711D01*
X0112047Y0081422D01*
X0102972Y0095490D02*
X0083287Y0075805D01*
X0082894Y0075805D01*
X0089587Y0075805D02*
X0094114Y0075805D01*
X0111339Y0056612D02*
X0111339Y0052183D01*
X0111240Y0052183D01*
X0107402Y0054644D02*
X0107402Y0108285D01*
X0104449Y0102872D02*
X0063110Y0102872D01*
X0059665Y0099427D01*
X0059272Y0099427D01*
X0065965Y0099427D02*
X0070492Y0099427D01*
X0070795Y0119900D02*
X0070984Y0120096D01*
X0070984Y0125018D01*
X0070689Y0125411D01*
X0025217Y0145195D02*
X0020787Y0145195D01*
X0020787Y0146671D01*
X0020689Y0146671D01*
X0104547Y0052183D02*
X0104941Y0052183D01*
X0107402Y0054644D01*
X0124114Y0198600D02*
X0124134Y0198837D01*
X0124134Y0205726D01*
X0124075Y0206041D01*
X0154075Y0206041D02*
X0154154Y0205726D01*
X0154154Y0198837D01*
X0154075Y0198561D01*
X0094114Y0275116D02*
X0089685Y0279545D01*
X0089429Y0279624D01*
X0082795Y0279545D02*
X0082795Y0275608D01*
X0082795Y0279545D02*
X0082736Y0279624D01*
D21*
X0082795Y0275608D03*
X0096575Y0275608D03*
X0094114Y0260844D03*
X0098051Y0253463D03*
X0102972Y0253463D03*
X0105925Y0242636D03*
X0107402Y0234270D03*
X0108878Y0228364D03*
X0105433Y0224919D03*
X0096575Y0229348D03*
X0092146Y0231317D03*
X0087717Y0230333D03*
X0080827Y0241159D03*
X0076398Y0240667D03*
X0073937Y0253463D03*
X0063110Y0243620D03*
X0040472Y0251494D03*
X0058681Y0275608D03*
X0069016Y0275116D03*
X0115276Y0275608D03*
X0125610Y0256907D03*
X0117736Y0234270D03*
X0158583Y0229348D03*
X0172854Y0256907D03*
X0196969Y0276100D03*
X0210748Y0276100D03*
X0224528Y0276100D03*
X0228465Y0273640D03*
X0238307Y0276100D03*
X0252087Y0276100D03*
X0267343Y0256907D03*
X0258484Y0236730D03*
X0240768Y0229348D03*
X0223051Y0232793D03*
X0218130Y0233778D03*
X0231417Y0253463D03*
X0219606Y0255923D03*
X0243228Y0255923D03*
X0283583Y0217537D03*
X0287028Y0217537D03*
X0298346Y0221967D03*
X0302283Y0215077D03*
X0296378Y0208187D03*
X0302283Y0201297D03*
X0302283Y0187518D03*
X0292441Y0180628D03*
X0287520Y0183581D03*
X0287520Y0177675D03*
X0275217Y0178167D03*
X0275217Y0171278D03*
X0264882Y0179152D03*
X0263406Y0182596D03*
X0267835Y0191455D03*
X0273740Y0188994D03*
X0287520Y0194407D03*
X0273248Y0203758D03*
X0269803Y0203758D03*
X0266850Y0213600D03*
X0258484Y0214585D03*
X0288996Y0233285D03*
X0306713Y0233285D03*
X0302283Y0173738D03*
X0302283Y0159959D03*
X0306713Y0146671D03*
X0283091Y0123049D03*
X0264390Y0125510D03*
X0249626Y0116652D03*
X0237815Y0111730D03*
X0242736Y0104841D03*
X0259469Y0099427D03*
X0235846Y0075805D03*
X0213701Y0099427D03*
X0203858Y0114191D03*
X0195984Y0111730D03*
X0180728Y0111730D03*
X0174823Y0105825D03*
X0177283Y0098443D03*
X0180728Y0097459D03*
X0167441Y0099427D03*
X0159075Y0094998D03*
X0151693Y0098443D03*
X0150709Y0102872D03*
X0154154Y0103364D03*
X0148248Y0094998D03*
X0143327Y0087616D03*
X0133976Y0092537D03*
X0129055Y0099427D03*
X0119705Y0096967D03*
X0117244Y0089093D03*
X0109862Y0095490D03*
X0109862Y0098935D03*
X0104449Y0102872D03*
X0102972Y0095490D03*
X0094114Y0075805D03*
X0111831Y0073837D03*
X0114783Y0066455D03*
X0111339Y0056612D03*
X0125118Y0047754D03*
X0138898Y0056612D03*
X0147264Y0065470D03*
X0141850Y0070392D03*
X0139390Y0067931D03*
X0151201Y0056612D03*
X0154646Y0056612D03*
X0152677Y0047754D03*
X0167441Y0047754D03*
X0181713Y0056612D03*
X0186634Y0065470D03*
X0179252Y0071376D03*
X0183189Y0075313D03*
X0177283Y0083187D03*
X0167441Y0085156D03*
X0167441Y0089093D03*
X0157106Y0113699D03*
X0151693Y0112715D03*
X0164488Y0125018D03*
X0167441Y0118128D03*
X0195492Y0094014D03*
X0196476Y0089585D03*
X0200906Y0075313D03*
X0207303Y0070392D03*
X0208780Y0075313D03*
X0209764Y0056612D03*
X0195984Y0056612D03*
X0215177Y0119112D03*
X0214193Y0122557D03*
X0220098Y0130923D03*
X0223543Y0130923D03*
X0211732Y0140274D03*
X0221575Y0155037D03*
X0236339Y0155037D03*
X0245689Y0155530D03*
X0248642Y0141258D03*
X0241260Y0134368D03*
X0264390Y0146671D03*
X0274232Y0153069D03*
X0263898Y0170785D03*
X0218130Y0186533D03*
X0209272Y0191947D03*
X0159567Y0179644D03*
X0149724Y0191455D03*
X0119213Y0192931D03*
X0067047Y0156022D03*
X0051791Y0164880D03*
X0051791Y0171278D03*
X0046870Y0176691D03*
X0055236Y0179152D03*
X0058681Y0193915D03*
X0047854Y0208187D03*
X0043917Y0211632D03*
X0050315Y0214585D03*
X0032106Y0202281D03*
X0028661Y0198837D03*
X0034567Y0196376D03*
X0032598Y0179152D03*
X0014882Y0187026D03*
X0011437Y0182104D03*
X0011929Y0192439D03*
X0011929Y0206219D03*
X0011929Y0222459D03*
X0018819Y0222459D03*
X0007500Y0233285D03*
X0011929Y0164880D03*
X0007500Y0146671D03*
X0025217Y0145195D03*
X0046870Y0123049D03*
X0059173Y0126494D03*
X0064587Y0130431D03*
X0069508Y0130431D03*
X0091654Y0131907D03*
X0070492Y0099427D03*
M02*
