G75*
%MOIN*%
%OFA0B0*%
%FSLAX25Y25*%
%IPPOS*%
%LPD*%
%AMOC8*
5,1,8,0,0,1.08239X$1,22.5*
%
%ADD10C,0.00004*%
D10*
X0074429Y0071868D02*
X0074429Y0095490D01*
X0050807Y0095490D01*
X0050807Y0119112D01*
X0027185Y0119112D01*
X0027185Y0142734D01*
X0003563Y0142734D01*
X0003563Y0237222D01*
X0027185Y0237222D01*
X0027185Y0260844D01*
X0050807Y0260844D01*
X0050807Y0284467D01*
X0121673Y0284467D01*
X0121673Y0260844D01*
X0145295Y0260844D01*
X0145295Y0237222D01*
X0168917Y0237222D01*
X0168917Y0260844D01*
X0192539Y0260844D01*
X0192539Y0284467D01*
X0263406Y0284467D01*
X0263406Y0260844D01*
X0287028Y0260844D01*
X0287028Y0237222D01*
X0310650Y0237222D01*
X0310650Y0142734D01*
X0287028Y0142734D01*
X0287028Y0119112D01*
X0263406Y0119112D01*
X0263406Y0095490D01*
X0239783Y0095490D01*
X0239783Y0071868D01*
X0216161Y0071868D01*
X0216161Y0048246D01*
X0192539Y0048246D01*
X0192539Y0024624D01*
X0168917Y0024624D01*
X0168917Y0001002D01*
X0145295Y0001002D01*
X0145295Y0024624D01*
X0121673Y0024624D01*
X0121673Y0048246D01*
X0098051Y0048246D01*
X0098051Y0071868D01*
X0074429Y0071868D01*
M02*
