G75*
%MOIN*%
%OFA0B0*%
%FSLAX25Y25*%
%IPPOS*%
%LPD*%
%AMOC8*
5,1,8,0,0,1.08239X$1,22.5*
%
%ADD10R,0.05131X0.04737*%
%ADD11R,0.04737X0.05131*%
%ADD12R,0.02965X0.05524*%
%ADD13R,0.07099X0.06312*%
%ADD14C,0.01421*%
%ADD15R,0.03400X0.08800*%
%ADD16R,0.08800X0.03400*%
%ADD17C,0.08200*%
%ADD18C,0.07800*%
%ADD19R,0.03950X0.04343*%
%ADD20C,0.03200*%
D10*
X0082894Y0075805D03*
X0089587Y0075805D03*
X0104547Y0052183D03*
X0111240Y0052183D03*
X0118327Y0052183D03*
X0125020Y0052183D03*
X0132106Y0052183D03*
X0138799Y0052183D03*
X0145886Y0052183D03*
X0152579Y0052183D03*
X0160413Y0052065D03*
X0167106Y0052065D03*
X0175413Y0052183D03*
X0182106Y0052183D03*
X0189193Y0052183D03*
X0195886Y0052183D03*
X0202972Y0052183D03*
X0209665Y0052183D03*
X0224626Y0075805D03*
X0231319Y0075805D03*
X0248248Y0099427D03*
X0254941Y0099427D03*
X0271870Y0123049D03*
X0278563Y0123049D03*
X0295492Y0146671D03*
X0302185Y0146671D03*
X0300217Y0233285D03*
X0293524Y0233285D03*
X0278563Y0256907D03*
X0271870Y0256907D03*
X0258878Y0280530D03*
X0252185Y0280530D03*
X0245098Y0280530D03*
X0238406Y0280530D03*
X0231319Y0280530D03*
X0224626Y0280530D03*
X0217539Y0280530D03*
X0210846Y0280530D03*
X0203760Y0280530D03*
X0197067Y0280530D03*
X0184075Y0256907D03*
X0177382Y0256907D03*
X0160965Y0233797D03*
X0154272Y0233797D03*
X0136713Y0256514D03*
X0130020Y0256514D03*
X0117224Y0279624D03*
X0110531Y0279624D03*
X0103287Y0279703D03*
X0096594Y0279703D03*
X0089429Y0279624D03*
X0082736Y0279624D03*
X0075728Y0279545D03*
X0069035Y0279545D03*
X0062067Y0279506D03*
X0055374Y0279506D03*
X0042382Y0255884D03*
X0035689Y0255884D03*
X0018642Y0233285D03*
X0011949Y0233285D03*
X0063602Y0152183D03*
X0070295Y0152183D03*
X0070689Y0125411D03*
X0063996Y0125411D03*
X0042343Y0123049D03*
X0035650Y0123049D03*
X0020689Y0146671D03*
X0013996Y0146671D03*
X0059272Y0099427D03*
X0065965Y0099427D03*
D11*
X0101988Y0143758D03*
X0101988Y0150451D03*
X0127579Y0150530D03*
X0127579Y0143837D03*
X0154114Y0143758D03*
X0154114Y0150451D03*
X0144311Y0173285D03*
X0144311Y0179978D03*
X0144232Y0191907D03*
X0144232Y0198600D03*
X0134193Y0198758D03*
X0134193Y0192065D03*
X0124114Y0191907D03*
X0124114Y0198600D03*
X0154075Y0198561D03*
X0154075Y0191868D03*
X0163917Y0180175D03*
X0163917Y0173482D03*
X0174232Y0191947D03*
X0174232Y0198640D03*
X0179272Y0150490D03*
X0179272Y0143797D03*
X0306713Y0153167D03*
X0306713Y0159860D03*
X0306713Y0166947D03*
X0306713Y0173640D03*
X0306713Y0180726D03*
X0306713Y0187419D03*
X0306713Y0194506D03*
X0306713Y0201199D03*
X0306713Y0208285D03*
X0306713Y0214978D03*
X0306713Y0222065D03*
X0306713Y0228758D03*
X0007933Y0226986D03*
X0007933Y0220293D03*
X0007500Y0213010D03*
X0007500Y0206317D03*
X0007500Y0199230D03*
X0007500Y0192537D03*
X0007500Y0185451D03*
X0007500Y0178758D03*
X0007500Y0171671D03*
X0007500Y0164978D03*
X0007500Y0157892D03*
X0007500Y0151199D03*
D12*
X0063602Y0145097D03*
X0071083Y0145097D03*
X0071083Y0134860D03*
X0067343Y0134860D03*
X0063602Y0134860D03*
D13*
X0055531Y0133679D03*
X0055531Y0144703D03*
X0079547Y0144624D03*
X0079547Y0133600D03*
D14*
X0072453Y0121558D02*
X0072453Y0118242D01*
X0069137Y0118242D01*
X0069137Y0121558D01*
X0072453Y0121558D01*
X0072453Y0119662D02*
X0069137Y0119662D01*
X0069137Y0121082D02*
X0072453Y0121082D01*
X0065548Y0121558D02*
X0065548Y0118242D01*
X0062232Y0118242D01*
X0062232Y0121558D01*
X0065548Y0121558D01*
X0065548Y0119662D02*
X0062232Y0119662D01*
X0062232Y0121082D02*
X0065548Y0121082D01*
D15*
X0112047Y0105622D03*
X0117047Y0105622D03*
X0122047Y0105622D03*
X0127047Y0105622D03*
X0132047Y0105622D03*
X0137047Y0105622D03*
X0142047Y0105622D03*
X0147047Y0105622D03*
X0147047Y0081422D03*
X0142047Y0081422D03*
X0137047Y0081422D03*
X0132047Y0081422D03*
X0127047Y0081422D03*
X0122047Y0081422D03*
X0117047Y0081422D03*
X0112047Y0081422D03*
X0180945Y0081422D03*
X0185945Y0081422D03*
X0190945Y0081422D03*
X0195945Y0081422D03*
X0200945Y0081422D03*
X0205945Y0081422D03*
X0210945Y0081422D03*
X0215945Y0081422D03*
X0215945Y0105622D03*
X0210945Y0105622D03*
X0205945Y0105622D03*
X0200945Y0105622D03*
X0195945Y0105622D03*
X0190945Y0105622D03*
X0185945Y0105622D03*
X0180945Y0105622D03*
X0220315Y0124729D03*
X0225315Y0124729D03*
X0230315Y0124729D03*
X0235315Y0124729D03*
X0240315Y0124729D03*
X0245315Y0124729D03*
X0250315Y0124729D03*
X0255315Y0124729D03*
X0255315Y0148929D03*
X0250315Y0148929D03*
X0245315Y0148929D03*
X0240315Y0148929D03*
X0235315Y0148929D03*
X0230315Y0148929D03*
X0225315Y0148929D03*
X0220315Y0148929D03*
X0218504Y0223154D03*
X0223504Y0223154D03*
X0228504Y0223154D03*
X0233504Y0223154D03*
X0238504Y0223154D03*
X0243504Y0223154D03*
X0243504Y0247354D03*
X0238504Y0247354D03*
X0233504Y0247354D03*
X0228504Y0247354D03*
X0223504Y0247354D03*
X0218504Y0247354D03*
X0213504Y0247354D03*
X0208504Y0247354D03*
X0208504Y0223154D03*
X0213504Y0223154D03*
X0101772Y0223154D03*
X0096772Y0223154D03*
X0091772Y0223154D03*
X0086772Y0223154D03*
X0081772Y0223154D03*
X0076772Y0223154D03*
X0071772Y0223154D03*
X0066772Y0223154D03*
X0066772Y0247354D03*
X0071772Y0247354D03*
X0076772Y0247354D03*
X0081772Y0247354D03*
X0086772Y0247354D03*
X0091772Y0247354D03*
X0096772Y0247354D03*
X0101772Y0247354D03*
D16*
X0064876Y0201573D03*
X0064876Y0196573D03*
X0064876Y0191573D03*
X0064876Y0186573D03*
X0064876Y0181573D03*
X0064876Y0176573D03*
X0064876Y0171573D03*
X0064876Y0166573D03*
X0040676Y0166573D03*
X0040676Y0171573D03*
X0040676Y0176573D03*
X0040676Y0181573D03*
X0040676Y0186573D03*
X0040676Y0191573D03*
X0040676Y0196573D03*
X0040676Y0201573D03*
X0257211Y0203541D03*
X0257211Y0198541D03*
X0257211Y0193541D03*
X0257211Y0188541D03*
X0257211Y0183541D03*
X0257211Y0178541D03*
X0257211Y0173541D03*
X0257211Y0168541D03*
X0281411Y0168541D03*
X0281411Y0173541D03*
X0281411Y0178541D03*
X0281411Y0183541D03*
X0281411Y0188541D03*
X0281411Y0193541D03*
X0281411Y0198541D03*
X0281411Y0203541D03*
D17*
X0166949Y0041553D03*
X0166949Y0031553D03*
X0156949Y0031553D03*
X0146949Y0031553D03*
X0146949Y0041553D03*
X0156949Y0041553D03*
X0152264Y0014585D03*
X0162264Y0014585D03*
D18*
X0164075Y0166041D03*
X0174075Y0166041D03*
X0184075Y0166041D03*
X0194075Y0166041D03*
X0154075Y0166041D03*
X0144075Y0166041D03*
X0134075Y0166041D03*
X0124075Y0166041D03*
X0124075Y0206041D03*
X0134075Y0206041D03*
X0144075Y0206041D03*
X0154075Y0206041D03*
X0164075Y0206041D03*
X0174075Y0206041D03*
X0184075Y0206041D03*
X0194075Y0206041D03*
D19*
X0197815Y0150569D03*
X0190335Y0150569D03*
X0194075Y0142301D03*
X0174075Y0150372D03*
X0166594Y0150372D03*
X0170335Y0142104D03*
X0145728Y0150411D03*
X0138248Y0150411D03*
X0141988Y0142144D03*
X0121752Y0150451D03*
X0114272Y0150451D03*
X0118012Y0142183D03*
D20*
X0091654Y0131907D03*
X0069508Y0130431D03*
X0064587Y0130431D03*
X0059173Y0126494D03*
X0046870Y0123049D03*
X0025217Y0145195D03*
X0007500Y0146671D03*
X0011929Y0164880D03*
X0011437Y0182104D03*
X0014882Y0187026D03*
X0011929Y0192439D03*
X0011929Y0206219D03*
X0011929Y0222459D03*
X0018819Y0222459D03*
X0007500Y0233285D03*
X0040472Y0251494D03*
X0063110Y0243620D03*
X0073937Y0253463D03*
X0076398Y0240667D03*
X0080827Y0241159D03*
X0087717Y0230333D03*
X0092146Y0231317D03*
X0096575Y0229348D03*
X0105433Y0224919D03*
X0108878Y0228364D03*
X0107402Y0234270D03*
X0105925Y0242636D03*
X0102972Y0253463D03*
X0098051Y0253463D03*
X0094114Y0260844D03*
X0096575Y0275608D03*
X0082795Y0275608D03*
X0069016Y0275116D03*
X0058681Y0275608D03*
X0115276Y0275608D03*
X0125610Y0256907D03*
X0117736Y0234270D03*
X0158583Y0229348D03*
X0172854Y0256907D03*
X0196969Y0276100D03*
X0210748Y0276100D03*
X0224528Y0276100D03*
X0228465Y0273640D03*
X0238307Y0276100D03*
X0252087Y0276100D03*
X0267343Y0256907D03*
X0258484Y0236730D03*
X0240768Y0229348D03*
X0223051Y0232793D03*
X0218130Y0233778D03*
X0231417Y0253463D03*
X0219606Y0255923D03*
X0243228Y0255923D03*
X0283583Y0217537D03*
X0287028Y0217537D03*
X0298346Y0221967D03*
X0302283Y0215077D03*
X0296378Y0208187D03*
X0302283Y0201297D03*
X0302283Y0187518D03*
X0292441Y0180628D03*
X0287520Y0183581D03*
X0287520Y0177675D03*
X0275217Y0178167D03*
X0275217Y0171278D03*
X0264882Y0179152D03*
X0263406Y0182596D03*
X0267835Y0191455D03*
X0273740Y0188994D03*
X0287520Y0194407D03*
X0273248Y0203758D03*
X0269803Y0203758D03*
X0266850Y0213600D03*
X0258484Y0214585D03*
X0288996Y0233285D03*
X0306713Y0233285D03*
X0302283Y0173738D03*
X0302283Y0159959D03*
X0306713Y0146671D03*
X0283091Y0123049D03*
X0264390Y0125510D03*
X0249626Y0116652D03*
X0237815Y0111730D03*
X0242736Y0104841D03*
X0259469Y0099427D03*
X0235846Y0075805D03*
X0213701Y0099427D03*
X0203858Y0114191D03*
X0195984Y0111730D03*
X0180728Y0111730D03*
X0174823Y0105825D03*
X0177283Y0098443D03*
X0180728Y0097459D03*
X0167441Y0099427D03*
X0159075Y0094998D03*
X0151693Y0098443D03*
X0150709Y0102872D03*
X0154154Y0103364D03*
X0148248Y0094998D03*
X0143327Y0087616D03*
X0133976Y0092537D03*
X0129055Y0099427D03*
X0119705Y0096967D03*
X0117244Y0089093D03*
X0109862Y0095490D03*
X0109862Y0098935D03*
X0104449Y0102872D03*
X0102972Y0095490D03*
X0094114Y0075805D03*
X0111831Y0073837D03*
X0114783Y0066455D03*
X0111339Y0056612D03*
X0125118Y0047754D03*
X0138898Y0056612D03*
X0147264Y0065470D03*
X0141850Y0070392D03*
X0139390Y0067931D03*
X0151201Y0056612D03*
X0154646Y0056612D03*
X0152677Y0047754D03*
X0167441Y0047754D03*
X0181713Y0056612D03*
X0186634Y0065470D03*
X0179252Y0071376D03*
X0183189Y0075313D03*
X0177283Y0083187D03*
X0167441Y0085156D03*
X0167441Y0089093D03*
X0157106Y0113699D03*
X0151693Y0112715D03*
X0164488Y0125018D03*
X0167441Y0118128D03*
X0195492Y0094014D03*
X0196476Y0089585D03*
X0200906Y0075313D03*
X0207303Y0070392D03*
X0208780Y0075313D03*
X0209764Y0056612D03*
X0195984Y0056612D03*
X0215177Y0119112D03*
X0214193Y0122557D03*
X0220098Y0130923D03*
X0223543Y0130923D03*
X0211732Y0140274D03*
X0221575Y0155037D03*
X0236339Y0155037D03*
X0245689Y0155530D03*
X0248642Y0141258D03*
X0241260Y0134368D03*
X0264390Y0146671D03*
X0274232Y0153069D03*
X0263898Y0170785D03*
X0218130Y0186533D03*
X0209272Y0191947D03*
X0159567Y0179644D03*
X0149724Y0191455D03*
X0119213Y0192931D03*
X0067047Y0156022D03*
X0051791Y0164880D03*
X0051791Y0171278D03*
X0046870Y0176691D03*
X0055236Y0179152D03*
X0058681Y0193915D03*
X0047854Y0208187D03*
X0043917Y0211632D03*
X0050315Y0214585D03*
X0032106Y0202281D03*
X0028661Y0198837D03*
X0034567Y0196376D03*
X0032598Y0179152D03*
X0070492Y0099427D03*
M02*
