%
M48
M72
T01C0.00800
T02C0.03150
T03C0.04000
%
T01
X94114Y75805
X111831Y73837
X114783Y66455
X111339Y56612
X125118Y47754
X138898Y56612
X147264Y65470
X141850Y70392
X139390Y67931
X151201Y56612
X154646Y56612
X152677Y47754
X167441Y47754
X181713Y56612
X186634Y65470
X179252Y71376
X183189Y75313
X177283Y83187
X167441Y85156
X167441Y89093
X159075Y94998
X151693Y98443
X150709Y102872
X154154Y103364
X148248Y94998
X143327Y87616
X133976Y92537
X129055Y99427
X119705Y96967
X117244Y89093
X109862Y95490
X109862Y98935
X104449Y102872
X102972Y95490
X70492Y99427
X46870Y123049
X59173Y126494
X64587Y130431
X69508Y130431
X91654Y131907
X67047Y156022
X51791Y164880
X51791Y171278
X46870Y176691
X55236Y179152
X58681Y193915
X47854Y208187
X43917Y211632
X50315Y214585
X32106Y202281
X28661Y198837
X34567Y196376
X32598Y179152
X14882Y187026
X11437Y182104
X11929Y192439
X11929Y206219
X11929Y222459
X18819Y222459
X7500Y233285
X40472Y251494
X63110Y243620
X73937Y253463
X76398Y240667
X80827Y241159
X87717Y230333
X92146Y231317
X96575Y229348
X105433Y224919
X108878Y228364
X107402Y234270
X105925Y242636
X102972Y253463
X98051Y253463
X94114Y260844
X96575Y275608
X82795Y275608
X69016Y275116
X58681Y275608
X115276Y275608
X125610Y256907
X117736Y234270
X158583Y229348
X172854Y256907
X196969Y276100
X210748Y276100
X224528Y276100
X228465Y273640
X238307Y276100
X252087Y276100
X267343Y256907
X258484Y236730
X240768Y229348
X223051Y232793
X218130Y233778
X231417Y253463
X219606Y255923
X243228Y255923
X283583Y217537
X287028Y217537
X298346Y221967
X302283Y215077
X296378Y208187
X302283Y201297
X302283Y187518
X292441Y180628
X287520Y183581
X287520Y177675
X275217Y178167
X275217Y171278
X264882Y179152
X263406Y182596
X267835Y191455
X273740Y188994
X287520Y194407
X273248Y203758
X269803Y203758
X266850Y213600
X258484Y214585
X288996Y233285
X306713Y233285
X302283Y173738
X302283Y159959
X306713Y146671
X283091Y123049
X264390Y125510
X249626Y116652
X237815Y111730
X242736Y104841
X259469Y99427
X235846Y75805
X213701Y99427
X203858Y114191
X195984Y111730
X180728Y111730
X174823Y105825
X177283Y98443
X180728Y97459
X167441Y99427
X157106Y113699
X151693Y112715
X164488Y125018
X167441Y118128
X195492Y94014
X196476Y89585
X200906Y75313
X207303Y70392
X208780Y75313
X209764Y56612
X195984Y56612
X215177Y119112
X214193Y122557
X220098Y130923
X223543Y130923
X211732Y140274
X221575Y155037
X236339Y155037
X245689Y155530
X248642Y141258
X241260Y134368
X264390Y146671
X274232Y153069
X263898Y170785
X218130Y186533
X209272Y191947
X159567Y179644
X149724Y191455
X119213Y192931
X25217Y145195
X7500Y146671
X11929Y164880
T02
X124075Y166041
X134075Y166041
X144075Y166041
X154075Y166041
X164075Y166041
X174075Y166041
X184075Y166041
X194075Y166041
X194075Y206041
X184075Y206041
X174075Y206041
X164075Y206041
X154075Y206041
X144075Y206041
X134075Y206041
X124075Y206041
T03
X146949Y41553
X156949Y41553
X166949Y41553
X166949Y31553
X156949Y31553
X146949Y31553
X152264Y14585
X162264Y14585
M30
