G75*
%MOIN*%
%OFA0B0*%
%FSLAX25Y25*%
%IPPOS*%
%LPD*%
%AMOC8*
5,1,8,0,0,1.08239X$1,22.5*
%
%ADD10C,0.00800*%
%ADD11C,0.01500*%
%ADD12R,0.01500X0.03000*%
%ADD13C,0.00500*%
D10*
X0085571Y0073994D02*
X0085571Y0075805D01*
X0086791Y0076726D01*
X0085571Y0077616D02*
X0085571Y0075805D01*
X0085631Y0075705D02*
X0086791Y0074945D01*
X0107224Y0053994D02*
X0107224Y0052183D01*
X0108445Y0053104D01*
X0107224Y0052183D02*
X0107224Y0050372D01*
X0108445Y0051323D02*
X0107285Y0052083D01*
X0121004Y0052183D02*
X0121004Y0050372D01*
X0122224Y0051323D02*
X0121065Y0052083D01*
X0121004Y0052183D02*
X0122224Y0053104D01*
X0121004Y0053994D02*
X0121004Y0052183D01*
X0134783Y0052183D02*
X0134783Y0050372D01*
X0136004Y0051323D02*
X0134844Y0052083D01*
X0134783Y0052183D02*
X0136004Y0053104D01*
X0134783Y0053994D02*
X0134783Y0052183D01*
X0141949Y0044053D02*
X0141949Y0029053D01*
X0144449Y0026553D01*
X0149449Y0026553D01*
X0151949Y0029053D01*
X0151949Y0044053D01*
X0149449Y0046553D01*
X0144449Y0046553D01*
X0141949Y0044053D01*
X0148917Y0050372D02*
X0148917Y0052183D01*
X0150138Y0053104D01*
X0148917Y0053994D02*
X0148917Y0052183D01*
X0148978Y0052083D02*
X0150138Y0051323D01*
X0154449Y0046553D02*
X0151949Y0044053D01*
X0154449Y0046553D02*
X0159449Y0046553D01*
X0161949Y0044053D01*
X0161949Y0029053D01*
X0159449Y0026553D01*
X0154449Y0026553D01*
X0151949Y0029053D01*
X0161949Y0029053D02*
X0164449Y0026553D01*
X0169449Y0026553D01*
X0171949Y0029053D01*
X0171949Y0044053D01*
X0169449Y0046553D01*
X0164449Y0046553D01*
X0161949Y0044053D01*
X0164449Y0047872D02*
X0169449Y0047872D01*
X0164508Y0051323D02*
X0163348Y0052083D01*
X0163287Y0052183D02*
X0164508Y0053104D01*
X0163287Y0053994D02*
X0163287Y0052183D01*
X0163287Y0050372D01*
X0178091Y0050372D02*
X0178091Y0052183D01*
X0179311Y0053104D01*
X0178091Y0053994D02*
X0178091Y0052183D01*
X0178151Y0052083D02*
X0179311Y0051323D01*
X0191870Y0052183D02*
X0191870Y0050372D01*
X0193091Y0051323D02*
X0191931Y0052083D01*
X0191870Y0052183D02*
X0193091Y0053104D01*
X0191870Y0053994D02*
X0191870Y0052183D01*
X0205650Y0052183D02*
X0205650Y0050372D01*
X0206870Y0051323D02*
X0205710Y0052083D01*
X0205650Y0052183D02*
X0206870Y0053104D01*
X0205650Y0053994D02*
X0205650Y0052183D01*
X0227303Y0073994D02*
X0227303Y0075805D01*
X0228524Y0076726D01*
X0227303Y0077616D02*
X0227303Y0075805D01*
X0227364Y0075705D02*
X0228524Y0074945D01*
X0250925Y0097616D02*
X0250925Y0099427D01*
X0252146Y0100348D01*
X0250925Y0101238D02*
X0250925Y0099427D01*
X0250986Y0099327D02*
X0252146Y0098567D01*
X0274547Y0121238D02*
X0274547Y0123049D01*
X0275768Y0123970D01*
X0274547Y0124860D02*
X0274547Y0123049D01*
X0274608Y0122949D02*
X0275768Y0122189D01*
X0298169Y0144860D02*
X0298169Y0146671D01*
X0299390Y0147592D01*
X0298169Y0148482D02*
X0298169Y0146671D01*
X0298230Y0146571D02*
X0299390Y0145811D01*
X0304902Y0155844D02*
X0306713Y0155844D01*
X0305792Y0157065D01*
X0306713Y0155844D02*
X0308524Y0155844D01*
X0307572Y0157065D02*
X0306813Y0155905D01*
X0306713Y0169624D02*
X0305792Y0170844D01*
X0304902Y0169624D02*
X0306713Y0169624D01*
X0308524Y0169624D01*
X0307572Y0170844D02*
X0306813Y0169685D01*
X0306713Y0183404D02*
X0305792Y0184624D01*
X0304902Y0183404D02*
X0306713Y0183404D01*
X0308524Y0183404D01*
X0307572Y0184624D02*
X0306813Y0183464D01*
X0306713Y0197183D02*
X0305792Y0198404D01*
X0304902Y0197183D02*
X0306713Y0197183D01*
X0308524Y0197183D01*
X0307572Y0198404D02*
X0306813Y0197244D01*
X0306713Y0210963D02*
X0305792Y0212183D01*
X0304902Y0210963D02*
X0306713Y0210963D01*
X0308524Y0210963D01*
X0307572Y0212183D02*
X0306813Y0211023D01*
X0306713Y0224742D02*
X0305792Y0225963D01*
X0304902Y0224742D02*
X0306713Y0224742D01*
X0308524Y0224742D01*
X0307572Y0225963D02*
X0306813Y0224803D01*
X0297539Y0231474D02*
X0297539Y0233285D01*
X0296319Y0232365D01*
X0297539Y0233285D02*
X0297539Y0235096D01*
X0296319Y0234145D02*
X0297479Y0233385D01*
X0275886Y0255096D02*
X0275886Y0256907D01*
X0274665Y0255987D01*
X0275886Y0256907D02*
X0275886Y0258719D01*
X0274665Y0257767D02*
X0275825Y0257007D01*
X0256201Y0278719D02*
X0256201Y0280530D01*
X0254980Y0279609D01*
X0256201Y0280530D02*
X0256201Y0282341D01*
X0254980Y0281389D02*
X0256140Y0280630D01*
X0242421Y0280530D02*
X0242421Y0278719D01*
X0241201Y0279609D02*
X0242421Y0280530D01*
X0242421Y0282341D01*
X0241201Y0281389D02*
X0242361Y0280630D01*
X0228642Y0280530D02*
X0228642Y0278719D01*
X0227421Y0279609D02*
X0228642Y0280530D01*
X0228642Y0282341D01*
X0227421Y0281389D02*
X0228581Y0280630D01*
X0214862Y0280530D02*
X0214862Y0278719D01*
X0213642Y0279609D02*
X0214862Y0280530D01*
X0214862Y0282341D01*
X0213642Y0281389D02*
X0214802Y0280630D01*
X0201083Y0280530D02*
X0201083Y0278719D01*
X0199862Y0279609D02*
X0201083Y0280530D01*
X0201083Y0282341D01*
X0199862Y0281389D02*
X0201022Y0280630D01*
X0181398Y0258719D02*
X0181398Y0256907D01*
X0180177Y0255987D01*
X0181398Y0255096D02*
X0181398Y0256907D01*
X0181337Y0257007D02*
X0180177Y0257767D01*
X0158169Y0235884D02*
X0158169Y0234073D01*
X0156949Y0233152D01*
X0158169Y0232262D02*
X0158169Y0234073D01*
X0158109Y0234173D02*
X0156949Y0234933D01*
X0134154Y0255096D02*
X0134154Y0256907D01*
X0132933Y0255987D01*
X0134154Y0256907D02*
X0134154Y0258719D01*
X0132933Y0257767D02*
X0134093Y0257007D01*
X0114469Y0278719D02*
X0114469Y0280530D01*
X0113248Y0279609D01*
X0114469Y0280530D02*
X0114469Y0282341D01*
X0113248Y0281389D02*
X0114408Y0280630D01*
X0100689Y0280530D02*
X0100689Y0278719D01*
X0099469Y0279609D02*
X0100689Y0280530D01*
X0100689Y0282341D01*
X0099469Y0281389D02*
X0100628Y0280630D01*
X0086909Y0280530D02*
X0086909Y0278719D01*
X0085689Y0279609D02*
X0086909Y0280530D01*
X0086909Y0282341D01*
X0085689Y0281389D02*
X0086849Y0280630D01*
X0073130Y0280530D02*
X0073130Y0278719D01*
X0071909Y0279609D02*
X0073130Y0280530D01*
X0073130Y0282341D01*
X0071909Y0281389D02*
X0073069Y0280630D01*
X0059350Y0280530D02*
X0059350Y0278719D01*
X0058130Y0279609D02*
X0059350Y0280530D01*
X0059350Y0282341D01*
X0058130Y0281389D02*
X0059290Y0280630D01*
X0039665Y0258719D02*
X0039665Y0256907D01*
X0038445Y0255987D01*
X0039665Y0255096D02*
X0039665Y0256907D01*
X0039605Y0257007D02*
X0038445Y0257767D01*
X0016043Y0235096D02*
X0016043Y0233285D01*
X0014823Y0232365D01*
X0016043Y0231474D02*
X0016043Y0233285D01*
X0015983Y0233385D02*
X0014823Y0234145D01*
X0009311Y0224112D02*
X0007500Y0224112D01*
X0008420Y0222892D01*
X0007500Y0224112D02*
X0005689Y0224112D01*
X0006640Y0222892D02*
X0007400Y0224052D01*
X0007500Y0210333D02*
X0005689Y0210333D01*
X0006640Y0209112D02*
X0007400Y0210272D01*
X0007500Y0210333D02*
X0008420Y0209112D01*
X0009311Y0210333D02*
X0007500Y0210333D01*
X0007500Y0196553D02*
X0005689Y0196553D01*
X0006640Y0195333D02*
X0007400Y0196493D01*
X0007500Y0196553D02*
X0008420Y0195333D01*
X0009311Y0196553D02*
X0007500Y0196553D01*
X0007500Y0182774D02*
X0005689Y0182774D01*
X0006640Y0181553D02*
X0007400Y0182713D01*
X0007500Y0182774D02*
X0008420Y0181553D01*
X0009311Y0182774D02*
X0007500Y0182774D01*
X0007500Y0168994D02*
X0005689Y0168994D01*
X0006640Y0167774D02*
X0007400Y0168933D01*
X0007500Y0168994D02*
X0008420Y0167774D01*
X0009311Y0168994D02*
X0007500Y0168994D01*
X0007500Y0155215D02*
X0005689Y0155215D01*
X0006640Y0153994D02*
X0007400Y0155154D01*
X0007500Y0155215D02*
X0008420Y0153994D01*
X0009311Y0155215D02*
X0007500Y0155215D01*
X0014705Y0148482D02*
X0014705Y0146671D01*
X0015925Y0147592D01*
X0014705Y0146671D02*
X0014705Y0144860D01*
X0015925Y0145811D02*
X0014765Y0146571D01*
X0038327Y0124860D02*
X0038327Y0123049D01*
X0039547Y0123970D01*
X0038327Y0123049D02*
X0038327Y0121238D01*
X0039547Y0122189D02*
X0038387Y0122949D01*
X0061949Y0101238D02*
X0061949Y0099427D01*
X0063169Y0100348D01*
X0061949Y0099427D02*
X0061949Y0097616D01*
X0063169Y0098567D02*
X0062009Y0099327D01*
X0111831Y0117144D02*
X0111831Y0118719D01*
X0111831Y0117144D02*
X0111833Y0117082D01*
X0111839Y0117021D01*
X0111848Y0116960D01*
X0111862Y0116899D01*
X0111879Y0116840D01*
X0111900Y0116782D01*
X0111925Y0116725D01*
X0111953Y0116670D01*
X0111984Y0116617D01*
X0112019Y0116566D01*
X0112057Y0116517D01*
X0112098Y0116470D01*
X0112141Y0116427D01*
X0112188Y0116386D01*
X0112237Y0116348D01*
X0112288Y0116313D01*
X0112341Y0116282D01*
X0112396Y0116254D01*
X0112453Y0116229D01*
X0112511Y0116208D01*
X0112570Y0116191D01*
X0112631Y0116177D01*
X0112692Y0116168D01*
X0112753Y0116162D01*
X0112815Y0116160D01*
X0112815Y0116159D02*
X0134469Y0116159D01*
X0134469Y0116160D02*
X0134531Y0116162D01*
X0134592Y0116168D01*
X0134653Y0116177D01*
X0134714Y0116191D01*
X0134773Y0116208D01*
X0134831Y0116229D01*
X0134888Y0116254D01*
X0134943Y0116282D01*
X0134996Y0116313D01*
X0135047Y0116348D01*
X0135096Y0116386D01*
X0135143Y0116427D01*
X0135186Y0116470D01*
X0135227Y0116517D01*
X0135265Y0116566D01*
X0135300Y0116617D01*
X0135331Y0116670D01*
X0135359Y0116725D01*
X0135384Y0116782D01*
X0135405Y0116840D01*
X0135422Y0116899D01*
X0135436Y0116960D01*
X0135445Y0117021D01*
X0135451Y0117082D01*
X0135453Y0117144D01*
X0135453Y0118719D01*
X0129547Y0120096D02*
X0129547Y0126002D01*
X0117736Y0126002D01*
X0117736Y0120096D01*
X0129547Y0120096D01*
X0135453Y0127380D02*
X0135453Y0128955D01*
X0135451Y0129017D01*
X0135445Y0129078D01*
X0135436Y0129139D01*
X0135422Y0129200D01*
X0135405Y0129259D01*
X0135384Y0129317D01*
X0135359Y0129374D01*
X0135331Y0129429D01*
X0135300Y0129482D01*
X0135265Y0129533D01*
X0135227Y0129582D01*
X0135186Y0129629D01*
X0135143Y0129672D01*
X0135096Y0129713D01*
X0135047Y0129751D01*
X0134996Y0129786D01*
X0134943Y0129817D01*
X0134888Y0129845D01*
X0134831Y0129870D01*
X0134773Y0129891D01*
X0134714Y0129908D01*
X0134653Y0129922D01*
X0134592Y0129931D01*
X0134531Y0129937D01*
X0134469Y0129939D01*
X0112815Y0129939D01*
X0112753Y0129937D01*
X0112692Y0129931D01*
X0112631Y0129922D01*
X0112570Y0129908D01*
X0112511Y0129891D01*
X0112453Y0129870D01*
X0112396Y0129845D01*
X0112341Y0129817D01*
X0112288Y0129786D01*
X0112237Y0129751D01*
X0112188Y0129713D01*
X0112141Y0129672D01*
X0112098Y0129629D01*
X0112057Y0129582D01*
X0112019Y0129533D01*
X0111984Y0129482D01*
X0111953Y0129429D01*
X0111925Y0129374D01*
X0111900Y0129317D01*
X0111879Y0129259D01*
X0111862Y0129200D01*
X0111848Y0129139D01*
X0111839Y0129078D01*
X0111833Y0129017D01*
X0111831Y0128955D01*
X0111831Y0127380D01*
X0140531Y0105659D02*
X0140533Y0105708D01*
X0140539Y0105756D01*
X0140549Y0105804D01*
X0140563Y0105851D01*
X0140580Y0105897D01*
X0140601Y0105941D01*
X0140626Y0105983D01*
X0140654Y0106023D01*
X0140686Y0106061D01*
X0140720Y0106096D01*
X0140757Y0106128D01*
X0140796Y0106157D01*
X0140838Y0106183D01*
X0140882Y0106205D01*
X0140927Y0106223D01*
X0140974Y0106238D01*
X0141021Y0106249D01*
X0141070Y0106256D01*
X0141119Y0106259D01*
X0141168Y0106258D01*
X0141216Y0106253D01*
X0141265Y0106244D01*
X0141312Y0106231D01*
X0141358Y0106214D01*
X0141402Y0106194D01*
X0141445Y0106170D01*
X0141486Y0106143D01*
X0141524Y0106112D01*
X0141560Y0106079D01*
X0141592Y0106043D01*
X0141622Y0106004D01*
X0141649Y0105963D01*
X0141672Y0105919D01*
X0141691Y0105874D01*
X0141707Y0105828D01*
X0141719Y0105781D01*
X0141727Y0105732D01*
X0141731Y0105683D01*
X0141731Y0105635D01*
X0141727Y0105586D01*
X0141719Y0105537D01*
X0141707Y0105490D01*
X0141691Y0105444D01*
X0141672Y0105399D01*
X0141649Y0105355D01*
X0141622Y0105314D01*
X0141592Y0105275D01*
X0141560Y0105239D01*
X0141524Y0105206D01*
X0141486Y0105175D01*
X0141445Y0105148D01*
X0141402Y0105124D01*
X0141358Y0105104D01*
X0141312Y0105087D01*
X0141265Y0105074D01*
X0141216Y0105065D01*
X0141168Y0105060D01*
X0141119Y0105059D01*
X0141070Y0105062D01*
X0141021Y0105069D01*
X0140974Y0105080D01*
X0140927Y0105095D01*
X0140882Y0105113D01*
X0140838Y0105135D01*
X0140796Y0105161D01*
X0140757Y0105190D01*
X0140720Y0105222D01*
X0140686Y0105257D01*
X0140654Y0105295D01*
X0140626Y0105335D01*
X0140601Y0105377D01*
X0140580Y0105421D01*
X0140563Y0105467D01*
X0140549Y0105514D01*
X0140539Y0105562D01*
X0140533Y0105610D01*
X0140531Y0105659D01*
X0141732Y0103561D02*
X0143130Y0104959D01*
X0169331Y0104959D01*
X0169331Y0077360D01*
X0141732Y0077360D01*
X0141732Y0103561D01*
X0128209Y0089107D02*
X0123091Y0089107D01*
X0123091Y0074344D02*
X0128209Y0074344D01*
X0149764Y0019585D02*
X0147264Y0017085D01*
X0147264Y0012085D01*
X0149764Y0009585D01*
X0154764Y0009585D01*
X0157264Y0012085D01*
X0159764Y0009585D01*
X0164764Y0009585D01*
X0167264Y0012085D01*
X0167264Y0017085D01*
X0164764Y0019585D01*
X0159764Y0019585D01*
X0157264Y0017085D01*
X0154764Y0019585D01*
X0149764Y0019585D01*
D11*
X0188602Y0089475D02*
X0188602Y0089695D01*
X0188602Y0097349D02*
X0188602Y0097569D01*
X0155138Y0126876D02*
X0155138Y0127096D01*
D12*
X0155138Y0119112D03*
D13*
X0079980Y0160844D02*
X0238169Y0160844D01*
X0238169Y0211238D01*
X0079980Y0211238D01*
X0079980Y0160844D01*
X0200138Y0206573D02*
X0200140Y0206672D01*
X0200146Y0206772D01*
X0200156Y0206871D01*
X0200170Y0206969D01*
X0200187Y0207067D01*
X0200209Y0207164D01*
X0200234Y0207260D01*
X0200263Y0207355D01*
X0200296Y0207449D01*
X0200333Y0207541D01*
X0200373Y0207632D01*
X0200417Y0207721D01*
X0200465Y0207809D01*
X0200516Y0207894D01*
X0200570Y0207977D01*
X0200627Y0208059D01*
X0200688Y0208137D01*
X0200752Y0208214D01*
X0200818Y0208287D01*
X0200888Y0208358D01*
X0200960Y0208426D01*
X0201035Y0208492D01*
X0201113Y0208554D01*
X0201193Y0208613D01*
X0201275Y0208669D01*
X0201359Y0208721D01*
X0201446Y0208770D01*
X0201534Y0208816D01*
X0201624Y0208858D01*
X0201716Y0208897D01*
X0201809Y0208932D01*
X0201903Y0208963D01*
X0201999Y0208990D01*
X0202096Y0209013D01*
X0202193Y0209033D01*
X0202291Y0209049D01*
X0202390Y0209061D01*
X0202489Y0209069D01*
X0202588Y0209073D01*
X0202688Y0209073D01*
X0202787Y0209069D01*
X0202886Y0209061D01*
X0202985Y0209049D01*
X0203083Y0209033D01*
X0203180Y0209013D01*
X0203277Y0208990D01*
X0203373Y0208963D01*
X0203467Y0208932D01*
X0203560Y0208897D01*
X0203652Y0208858D01*
X0203742Y0208816D01*
X0203830Y0208770D01*
X0203917Y0208721D01*
X0204001Y0208669D01*
X0204083Y0208613D01*
X0204163Y0208554D01*
X0204241Y0208492D01*
X0204316Y0208426D01*
X0204388Y0208358D01*
X0204458Y0208287D01*
X0204524Y0208214D01*
X0204588Y0208137D01*
X0204649Y0208059D01*
X0204706Y0207977D01*
X0204760Y0207894D01*
X0204811Y0207809D01*
X0204859Y0207721D01*
X0204903Y0207632D01*
X0204943Y0207541D01*
X0204980Y0207449D01*
X0205013Y0207355D01*
X0205042Y0207260D01*
X0205067Y0207164D01*
X0205089Y0207067D01*
X0205106Y0206969D01*
X0205120Y0206871D01*
X0205130Y0206772D01*
X0205136Y0206672D01*
X0205138Y0206573D01*
X0205136Y0206474D01*
X0205130Y0206374D01*
X0205120Y0206275D01*
X0205106Y0206177D01*
X0205089Y0206079D01*
X0205067Y0205982D01*
X0205042Y0205886D01*
X0205013Y0205791D01*
X0204980Y0205697D01*
X0204943Y0205605D01*
X0204903Y0205514D01*
X0204859Y0205425D01*
X0204811Y0205337D01*
X0204760Y0205252D01*
X0204706Y0205169D01*
X0204649Y0205087D01*
X0204588Y0205009D01*
X0204524Y0204932D01*
X0204458Y0204859D01*
X0204388Y0204788D01*
X0204316Y0204720D01*
X0204241Y0204654D01*
X0204163Y0204592D01*
X0204083Y0204533D01*
X0204001Y0204477D01*
X0203917Y0204425D01*
X0203830Y0204376D01*
X0203742Y0204330D01*
X0203652Y0204288D01*
X0203560Y0204249D01*
X0203467Y0204214D01*
X0203373Y0204183D01*
X0203277Y0204156D01*
X0203180Y0204133D01*
X0203083Y0204113D01*
X0202985Y0204097D01*
X0202886Y0204085D01*
X0202787Y0204077D01*
X0202688Y0204073D01*
X0202588Y0204073D01*
X0202489Y0204077D01*
X0202390Y0204085D01*
X0202291Y0204097D01*
X0202193Y0204113D01*
X0202096Y0204133D01*
X0201999Y0204156D01*
X0201903Y0204183D01*
X0201809Y0204214D01*
X0201716Y0204249D01*
X0201624Y0204288D01*
X0201534Y0204330D01*
X0201446Y0204376D01*
X0201359Y0204425D01*
X0201275Y0204477D01*
X0201193Y0204533D01*
X0201113Y0204592D01*
X0201035Y0204654D01*
X0200960Y0204720D01*
X0200888Y0204788D01*
X0200818Y0204859D01*
X0200752Y0204932D01*
X0200688Y0205009D01*
X0200627Y0205087D01*
X0200570Y0205169D01*
X0200516Y0205252D01*
X0200465Y0205337D01*
X0200417Y0205425D01*
X0200373Y0205514D01*
X0200333Y0205605D01*
X0200296Y0205697D01*
X0200263Y0205791D01*
X0200234Y0205886D01*
X0200209Y0205982D01*
X0200187Y0206079D01*
X0200170Y0206177D01*
X0200156Y0206275D01*
X0200146Y0206374D01*
X0200140Y0206474D01*
X0200138Y0206573D01*
M02*
