G75*
%MOIN*%
%OFA0B0*%
%FSLAX24Y24*%
%IPPOS*%
%LPD*%
%AMOC8*
5,1,8,0,0,1.08239X$1,22.5*
%
%ADD10C,0.0000*%
%ADD11C,0.0118*%
%ADD12C,0.0177*%
%ADD13C,0.0100*%
%ADD14R,0.0433X0.0394*%
%ADD15R,0.0500X0.0220*%
%ADD16R,0.0220X0.0500*%
%ADD17C,0.0740*%
%ADD18R,0.0906X0.0630*%
%ADD19C,0.0700*%
%ADD20C,0.0079*%
%ADD21C,0.0240*%
D10*
X007443Y007187D02*
X007443Y009549D01*
X005081Y009549D01*
X005081Y011911D01*
X002719Y011911D01*
X002719Y014273D01*
X000356Y014273D01*
X000356Y023722D01*
X002719Y023722D01*
X002719Y026084D01*
X005081Y026084D01*
X005081Y028447D01*
X012167Y028447D01*
X012167Y026084D01*
X014530Y026084D01*
X014530Y023722D01*
X016892Y023722D01*
X016892Y026084D01*
X019254Y026084D01*
X019254Y028447D01*
X026341Y028447D01*
X026341Y026084D01*
X028703Y026084D01*
X028703Y023722D01*
X031065Y023722D01*
X031065Y014273D01*
X028703Y014273D01*
X028703Y011911D01*
X026341Y011911D01*
X026341Y009549D01*
X023978Y009549D01*
X023978Y007187D01*
X021616Y007187D01*
X021616Y004825D01*
X019254Y004825D01*
X019254Y002462D01*
X016892Y002462D01*
X016892Y000100D01*
X014530Y000100D01*
X014530Y002462D01*
X012167Y002462D01*
X012167Y004825D01*
X009805Y004825D01*
X009805Y007187D01*
X007443Y007187D01*
D11*
X008417Y007443D02*
X008417Y007719D01*
X008417Y007443D02*
X008141Y007443D01*
X008141Y007719D01*
X008417Y007719D01*
X008417Y007560D02*
X008141Y007560D01*
X008141Y007677D02*
X008417Y007677D01*
X009107Y007719D02*
X009107Y007443D01*
X008831Y007443D01*
X008831Y007719D01*
X009107Y007719D01*
X009107Y007560D02*
X008831Y007560D01*
X008831Y007677D02*
X009107Y007677D01*
X010582Y005356D02*
X010582Y005080D01*
X010306Y005080D01*
X010306Y005356D01*
X010582Y005356D01*
X010582Y005197D02*
X010306Y005197D01*
X010306Y005314D02*
X010582Y005314D01*
X011273Y005356D02*
X011273Y005080D01*
X010997Y005080D01*
X010997Y005356D01*
X011273Y005356D01*
X011273Y005197D02*
X010997Y005197D01*
X010997Y005314D02*
X011273Y005314D01*
X011960Y005356D02*
X011960Y005080D01*
X011684Y005080D01*
X011684Y005356D01*
X011960Y005356D01*
X011960Y005197D02*
X011684Y005197D01*
X011684Y005314D02*
X011960Y005314D01*
X012651Y005356D02*
X012651Y005080D01*
X012375Y005080D01*
X012375Y005356D01*
X012651Y005356D01*
X012651Y005197D02*
X012375Y005197D01*
X012375Y005314D02*
X012651Y005314D01*
X013338Y005356D02*
X013338Y005080D01*
X013062Y005080D01*
X013062Y005356D01*
X013338Y005356D01*
X013338Y005197D02*
X013062Y005197D01*
X013062Y005314D02*
X013338Y005314D01*
X014029Y005356D02*
X014029Y005080D01*
X013753Y005080D01*
X013753Y005356D01*
X014029Y005356D01*
X014029Y005197D02*
X013753Y005197D01*
X013753Y005314D02*
X014029Y005314D01*
X014751Y005356D02*
X014751Y005080D01*
X014475Y005080D01*
X014475Y005356D01*
X014751Y005356D01*
X014751Y005197D02*
X014475Y005197D01*
X014475Y005314D02*
X014751Y005314D01*
X015442Y005356D02*
X015442Y005080D01*
X015166Y005080D01*
X015166Y005356D01*
X015442Y005356D01*
X015442Y005197D02*
X015166Y005197D01*
X015166Y005314D02*
X015442Y005314D01*
X016188Y005356D02*
X016188Y005080D01*
X015912Y005080D01*
X015912Y005356D01*
X016188Y005356D01*
X016188Y005197D02*
X015912Y005197D01*
X015912Y005314D02*
X016188Y005314D01*
X016879Y005356D02*
X016879Y005080D01*
X016603Y005080D01*
X016603Y005356D01*
X016879Y005356D01*
X016879Y005197D02*
X016603Y005197D01*
X016603Y005314D02*
X016879Y005314D01*
X017669Y005356D02*
X017669Y005080D01*
X017393Y005080D01*
X017393Y005356D01*
X017669Y005356D01*
X017669Y005197D02*
X017393Y005197D01*
X017393Y005314D02*
X017669Y005314D01*
X018359Y005356D02*
X018359Y005080D01*
X018083Y005080D01*
X018083Y005356D01*
X018359Y005356D01*
X018359Y005197D02*
X018083Y005197D01*
X018083Y005314D02*
X018359Y005314D01*
X019047Y005356D02*
X019047Y005080D01*
X018771Y005080D01*
X018771Y005356D01*
X019047Y005356D01*
X019047Y005197D02*
X018771Y005197D01*
X018771Y005314D02*
X019047Y005314D01*
X019737Y005356D02*
X019737Y005080D01*
X019461Y005080D01*
X019461Y005356D01*
X019737Y005356D01*
X019737Y005197D02*
X019461Y005197D01*
X019461Y005314D02*
X019737Y005314D01*
X020425Y005356D02*
X020425Y005080D01*
X020149Y005080D01*
X020149Y005356D01*
X020425Y005356D01*
X020425Y005197D02*
X020149Y005197D01*
X020149Y005314D02*
X020425Y005314D01*
X021115Y005356D02*
X021115Y005080D01*
X020839Y005080D01*
X020839Y005356D01*
X021115Y005356D01*
X021115Y005197D02*
X020839Y005197D01*
X020839Y005314D02*
X021115Y005314D01*
X022590Y007443D02*
X022590Y007719D01*
X022590Y007443D02*
X022314Y007443D01*
X022314Y007719D01*
X022590Y007719D01*
X022590Y007560D02*
X022314Y007560D01*
X022314Y007677D02*
X022590Y007677D01*
X023281Y007719D02*
X023281Y007443D01*
X023005Y007443D01*
X023005Y007719D01*
X023281Y007719D01*
X023281Y007560D02*
X023005Y007560D01*
X023005Y007677D02*
X023281Y007677D01*
X024952Y009805D02*
X024952Y010081D01*
X024952Y009805D02*
X024676Y009805D01*
X024676Y010081D01*
X024952Y010081D01*
X024952Y009922D02*
X024676Y009922D01*
X024676Y010039D02*
X024952Y010039D01*
X025643Y010081D02*
X025643Y009805D01*
X025367Y009805D01*
X025367Y010081D01*
X025643Y010081D01*
X025643Y009922D02*
X025367Y009922D01*
X025367Y010039D02*
X025643Y010039D01*
X027314Y012167D02*
X027314Y012443D01*
X027314Y012167D02*
X027038Y012167D01*
X027038Y012443D01*
X027314Y012443D01*
X027314Y012284D02*
X027038Y012284D01*
X027038Y012401D02*
X027314Y012401D01*
X028005Y012443D02*
X028005Y012167D01*
X027729Y012167D01*
X027729Y012443D01*
X028005Y012443D01*
X028005Y012284D02*
X027729Y012284D01*
X027729Y012401D02*
X028005Y012401D01*
X029677Y014529D02*
X029677Y014805D01*
X029677Y014529D02*
X029401Y014529D01*
X029401Y014805D01*
X029677Y014805D01*
X029677Y014646D02*
X029401Y014646D01*
X029401Y014763D02*
X029677Y014763D01*
X030367Y014805D02*
X030367Y014529D01*
X030091Y014529D01*
X030091Y014805D01*
X030367Y014805D01*
X030367Y014646D02*
X030091Y014646D01*
X030091Y014763D02*
X030367Y014763D01*
X030533Y015444D02*
X030809Y015444D01*
X030809Y015168D01*
X030533Y015168D01*
X030533Y015444D01*
X030533Y015285D02*
X030809Y015285D01*
X030809Y015402D02*
X030533Y015402D01*
X030533Y016135D02*
X030809Y016135D01*
X030809Y015859D01*
X030533Y015859D01*
X030533Y016135D01*
X030533Y015976D02*
X030809Y015976D01*
X030809Y016093D02*
X030533Y016093D01*
X030533Y016822D02*
X030809Y016822D01*
X030809Y016546D01*
X030533Y016546D01*
X030533Y016822D01*
X030533Y016663D02*
X030809Y016663D01*
X030809Y016780D02*
X030533Y016780D01*
X030533Y017513D02*
X030809Y017513D01*
X030809Y017237D01*
X030533Y017237D01*
X030533Y017513D01*
X030533Y017354D02*
X030809Y017354D01*
X030809Y017471D02*
X030533Y017471D01*
X030533Y018200D02*
X030809Y018200D01*
X030809Y017924D01*
X030533Y017924D01*
X030533Y018200D01*
X030533Y018041D02*
X030809Y018041D01*
X030809Y018158D02*
X030533Y018158D01*
X030533Y018891D02*
X030809Y018891D01*
X030809Y018615D01*
X030533Y018615D01*
X030533Y018891D01*
X030533Y018732D02*
X030809Y018732D01*
X030809Y018849D02*
X030533Y018849D01*
X030533Y019578D02*
X030809Y019578D01*
X030809Y019302D01*
X030533Y019302D01*
X030533Y019578D01*
X030533Y019419D02*
X030809Y019419D01*
X030809Y019536D02*
X030533Y019536D01*
X030533Y020269D02*
X030809Y020269D01*
X030809Y019993D01*
X030533Y019993D01*
X030533Y020269D01*
X030533Y020110D02*
X030809Y020110D01*
X030809Y020227D02*
X030533Y020227D01*
X030533Y020956D02*
X030809Y020956D01*
X030809Y020680D01*
X030533Y020680D01*
X030533Y020956D01*
X030533Y020797D02*
X030809Y020797D01*
X030809Y020914D02*
X030533Y020914D01*
X030533Y021646D02*
X030809Y021646D01*
X030809Y021370D01*
X030533Y021370D01*
X030533Y021646D01*
X030533Y021487D02*
X030809Y021487D01*
X030809Y021604D02*
X030533Y021604D01*
X030533Y022334D02*
X030809Y022334D01*
X030809Y022058D01*
X030533Y022058D01*
X030533Y022334D01*
X030533Y022175D02*
X030809Y022175D01*
X030809Y022292D02*
X030533Y022292D01*
X030533Y023024D02*
X030809Y023024D01*
X030809Y022748D01*
X030533Y022748D01*
X030533Y023024D01*
X030533Y022865D02*
X030809Y022865D01*
X030809Y022982D02*
X030533Y022982D01*
X029894Y023191D02*
X029894Y023467D01*
X030170Y023467D01*
X030170Y023191D01*
X029894Y023191D01*
X029894Y023308D02*
X030170Y023308D01*
X030170Y023425D02*
X029894Y023425D01*
X029204Y023467D02*
X029204Y023191D01*
X029204Y023467D02*
X029480Y023467D01*
X029480Y023191D01*
X029204Y023191D01*
X029204Y023308D02*
X029480Y023308D01*
X029480Y023425D02*
X029204Y023425D01*
X027729Y025553D02*
X027729Y025829D01*
X028005Y025829D01*
X028005Y025553D01*
X027729Y025553D01*
X027729Y025670D02*
X028005Y025670D01*
X028005Y025787D02*
X027729Y025787D01*
X027038Y025829D02*
X027038Y025553D01*
X027038Y025829D02*
X027314Y025829D01*
X027314Y025553D01*
X027038Y025553D01*
X027038Y025670D02*
X027314Y025670D01*
X027314Y025787D02*
X027038Y025787D01*
X025760Y027915D02*
X025760Y028191D01*
X026036Y028191D01*
X026036Y027915D01*
X025760Y027915D01*
X025760Y028032D02*
X026036Y028032D01*
X026036Y028149D02*
X025760Y028149D01*
X025070Y028191D02*
X025070Y027915D01*
X025070Y028191D02*
X025346Y028191D01*
X025346Y027915D01*
X025070Y027915D01*
X025070Y028032D02*
X025346Y028032D01*
X025346Y028149D02*
X025070Y028149D01*
X024382Y028191D02*
X024382Y027915D01*
X024382Y028191D02*
X024658Y028191D01*
X024658Y027915D01*
X024382Y027915D01*
X024382Y028032D02*
X024658Y028032D01*
X024658Y028149D02*
X024382Y028149D01*
X023692Y028191D02*
X023692Y027915D01*
X023692Y028191D02*
X023968Y028191D01*
X023968Y027915D01*
X023692Y027915D01*
X023692Y028032D02*
X023968Y028032D01*
X023968Y028149D02*
X023692Y028149D01*
X023005Y028191D02*
X023005Y027915D01*
X023005Y028191D02*
X023281Y028191D01*
X023281Y027915D01*
X023005Y027915D01*
X023005Y028032D02*
X023281Y028032D01*
X023281Y028149D02*
X023005Y028149D01*
X022314Y028191D02*
X022314Y027915D01*
X022314Y028191D02*
X022590Y028191D01*
X022590Y027915D01*
X022314Y027915D01*
X022314Y028032D02*
X022590Y028032D01*
X022590Y028149D02*
X022314Y028149D01*
X021627Y028191D02*
X021627Y027915D01*
X021627Y028191D02*
X021903Y028191D01*
X021903Y027915D01*
X021627Y027915D01*
X021627Y028032D02*
X021903Y028032D01*
X021903Y028149D02*
X021627Y028149D01*
X020936Y028191D02*
X020936Y027915D01*
X020936Y028191D02*
X021212Y028191D01*
X021212Y027915D01*
X020936Y027915D01*
X020936Y028032D02*
X021212Y028032D01*
X021212Y028149D02*
X020936Y028149D01*
X020249Y028191D02*
X020249Y027915D01*
X020249Y028191D02*
X020525Y028191D01*
X020525Y027915D01*
X020249Y027915D01*
X020249Y028032D02*
X020525Y028032D01*
X020525Y028149D02*
X020249Y028149D01*
X019558Y028191D02*
X019558Y027915D01*
X019558Y028191D02*
X019834Y028191D01*
X019834Y027915D01*
X019558Y027915D01*
X019558Y028032D02*
X019834Y028032D01*
X019834Y028149D02*
X019558Y028149D01*
X018280Y025829D02*
X018280Y025553D01*
X018280Y025829D02*
X018556Y025829D01*
X018556Y025553D01*
X018280Y025553D01*
X018280Y025670D02*
X018556Y025670D01*
X018556Y025787D02*
X018280Y025787D01*
X017590Y025829D02*
X017590Y025553D01*
X017590Y025829D02*
X017866Y025829D01*
X017866Y025553D01*
X017590Y025553D01*
X017590Y025670D02*
X017866Y025670D01*
X017866Y025787D02*
X017590Y025787D01*
X015957Y023545D02*
X015957Y023269D01*
X015957Y023545D02*
X016233Y023545D01*
X016233Y023269D01*
X015957Y023269D01*
X015957Y023386D02*
X016233Y023386D01*
X016233Y023503D02*
X015957Y023503D01*
X015267Y023545D02*
X015267Y023269D01*
X015267Y023545D02*
X015543Y023545D01*
X015543Y023269D01*
X015267Y023269D01*
X015267Y023386D02*
X015543Y023386D01*
X015543Y023503D02*
X015267Y023503D01*
X013556Y025553D02*
X013556Y025829D01*
X013832Y025829D01*
X013832Y025553D01*
X013556Y025553D01*
X013556Y025670D02*
X013832Y025670D01*
X013832Y025787D02*
X013556Y025787D01*
X012865Y025829D02*
X012865Y025553D01*
X012865Y025829D02*
X013141Y025829D01*
X013141Y025553D01*
X012865Y025553D01*
X012865Y025670D02*
X013141Y025670D01*
X013141Y025787D02*
X012865Y025787D01*
X011587Y027915D02*
X011587Y028191D01*
X011863Y028191D01*
X011863Y027915D01*
X011587Y027915D01*
X011587Y028032D02*
X011863Y028032D01*
X011863Y028149D02*
X011587Y028149D01*
X010897Y028191D02*
X010897Y027915D01*
X010897Y028191D02*
X011173Y028191D01*
X011173Y027915D01*
X010897Y027915D01*
X010897Y028032D02*
X011173Y028032D01*
X011173Y028149D02*
X010897Y028149D01*
X010209Y028191D02*
X010209Y027915D01*
X010209Y028191D02*
X010485Y028191D01*
X010485Y027915D01*
X010209Y027915D01*
X010209Y028032D02*
X010485Y028032D01*
X010485Y028149D02*
X010209Y028149D01*
X009519Y028191D02*
X009519Y027915D01*
X009519Y028191D02*
X009795Y028191D01*
X009795Y027915D01*
X009519Y027915D01*
X009519Y028032D02*
X009795Y028032D01*
X009795Y028149D02*
X009519Y028149D01*
X008831Y028191D02*
X008831Y027915D01*
X008831Y028191D02*
X009107Y028191D01*
X009107Y027915D01*
X008831Y027915D01*
X008831Y028032D02*
X009107Y028032D01*
X009107Y028149D02*
X008831Y028149D01*
X008141Y028191D02*
X008141Y027915D01*
X008141Y028191D02*
X008417Y028191D01*
X008417Y027915D01*
X008141Y027915D01*
X008141Y028032D02*
X008417Y028032D01*
X008417Y028149D02*
X008141Y028149D01*
X007453Y028191D02*
X007453Y027915D01*
X007453Y028191D02*
X007729Y028191D01*
X007729Y027915D01*
X007453Y027915D01*
X007453Y028032D02*
X007729Y028032D01*
X007729Y028149D02*
X007453Y028149D01*
X006763Y028191D02*
X006763Y027915D01*
X006763Y028191D02*
X007039Y028191D01*
X007039Y027915D01*
X006763Y027915D01*
X006763Y028032D02*
X007039Y028032D01*
X007039Y028149D02*
X006763Y028149D01*
X006075Y028191D02*
X006075Y027915D01*
X006075Y028191D02*
X006351Y028191D01*
X006351Y027915D01*
X006075Y027915D01*
X006075Y028032D02*
X006351Y028032D01*
X006351Y028149D02*
X006075Y028149D01*
X005385Y028191D02*
X005385Y027915D01*
X005385Y028191D02*
X005661Y028191D01*
X005661Y027915D01*
X005385Y027915D01*
X005385Y028032D02*
X005661Y028032D01*
X005661Y028149D02*
X005385Y028149D01*
X004107Y025829D02*
X004107Y025553D01*
X004107Y025829D02*
X004383Y025829D01*
X004383Y025553D01*
X004107Y025553D01*
X004107Y025670D02*
X004383Y025670D01*
X004383Y025787D02*
X004107Y025787D01*
X003416Y025829D02*
X003416Y025553D01*
X003416Y025829D02*
X003692Y025829D01*
X003692Y025553D01*
X003416Y025553D01*
X003416Y025670D02*
X003692Y025670D01*
X003692Y025787D02*
X003416Y025787D01*
X001745Y023467D02*
X001745Y023191D01*
X001745Y023467D02*
X002021Y023467D01*
X002021Y023191D01*
X001745Y023191D01*
X001745Y023308D02*
X002021Y023308D01*
X002021Y023425D02*
X001745Y023425D01*
X001054Y023467D02*
X001054Y023191D01*
X001054Y023467D02*
X001330Y023467D01*
X001330Y023191D01*
X001054Y023191D01*
X001054Y023308D02*
X001330Y023308D01*
X001330Y023425D02*
X001054Y023425D01*
X000888Y022552D02*
X000612Y022552D01*
X000612Y022828D01*
X000888Y022828D01*
X000888Y022552D01*
X000888Y022669D02*
X000612Y022669D01*
X000612Y022786D02*
X000888Y022786D01*
X000888Y021861D02*
X000612Y021861D01*
X000612Y022137D01*
X000888Y022137D01*
X000888Y021861D01*
X000888Y021978D02*
X000612Y021978D01*
X000612Y022095D02*
X000888Y022095D01*
X000888Y021174D02*
X000612Y021174D01*
X000612Y021450D01*
X000888Y021450D01*
X000888Y021174D01*
X000888Y021291D02*
X000612Y021291D01*
X000612Y021408D02*
X000888Y021408D01*
X000888Y020483D02*
X000612Y020483D01*
X000612Y020759D01*
X000888Y020759D01*
X000888Y020483D01*
X000888Y020600D02*
X000612Y020600D01*
X000612Y020717D02*
X000888Y020717D01*
X000888Y019796D02*
X000612Y019796D01*
X000612Y020072D01*
X000888Y020072D01*
X000888Y019796D01*
X000888Y019913D02*
X000612Y019913D01*
X000612Y020030D02*
X000888Y020030D01*
X000888Y019105D02*
X000612Y019105D01*
X000612Y019381D01*
X000888Y019381D01*
X000888Y019105D01*
X000888Y019222D02*
X000612Y019222D01*
X000612Y019339D02*
X000888Y019339D01*
X000888Y018418D02*
X000612Y018418D01*
X000612Y018694D01*
X000888Y018694D01*
X000888Y018418D01*
X000888Y018535D02*
X000612Y018535D01*
X000612Y018652D02*
X000888Y018652D01*
X000888Y017727D02*
X000612Y017727D01*
X000612Y018003D01*
X000888Y018003D01*
X000888Y017727D01*
X000888Y017844D02*
X000612Y017844D01*
X000612Y017961D02*
X000888Y017961D01*
X000888Y017040D02*
X000612Y017040D01*
X000612Y017316D01*
X000888Y017316D01*
X000888Y017040D01*
X000888Y017157D02*
X000612Y017157D01*
X000612Y017274D02*
X000888Y017274D01*
X000888Y016349D02*
X000612Y016349D01*
X000612Y016625D01*
X000888Y016625D01*
X000888Y016349D01*
X000888Y016466D02*
X000612Y016466D01*
X000612Y016583D02*
X000888Y016583D01*
X000888Y015662D02*
X000612Y015662D01*
X000612Y015938D01*
X000888Y015938D01*
X000888Y015662D01*
X000888Y015779D02*
X000612Y015779D01*
X000612Y015896D02*
X000888Y015896D01*
X000888Y014971D02*
X000612Y014971D01*
X000612Y015247D01*
X000888Y015247D01*
X000888Y014971D01*
X000888Y015088D02*
X000612Y015088D01*
X000612Y015205D02*
X000888Y015205D01*
X001330Y014805D02*
X001330Y014529D01*
X001054Y014529D01*
X001054Y014805D01*
X001330Y014805D01*
X001330Y014646D02*
X001054Y014646D01*
X001054Y014763D02*
X001330Y014763D01*
X002021Y014805D02*
X002021Y014529D01*
X001745Y014529D01*
X001745Y014805D01*
X002021Y014805D01*
X002021Y014646D02*
X001745Y014646D01*
X001745Y014763D02*
X002021Y014763D01*
X003692Y012443D02*
X003692Y012167D01*
X003416Y012167D01*
X003416Y012443D01*
X003692Y012443D01*
X003692Y012284D02*
X003416Y012284D01*
X003416Y012401D02*
X003692Y012401D01*
X004383Y012443D02*
X004383Y012167D01*
X004107Y012167D01*
X004107Y012443D01*
X004383Y012443D01*
X004383Y012284D02*
X004107Y012284D01*
X004107Y012401D02*
X004383Y012401D01*
X006055Y010081D02*
X006055Y009805D01*
X005779Y009805D01*
X005779Y010081D01*
X006055Y010081D01*
X006055Y009922D02*
X005779Y009922D01*
X005779Y010039D02*
X006055Y010039D01*
X006745Y010081D02*
X006745Y009805D01*
X006469Y009805D01*
X006469Y010081D01*
X006745Y010081D01*
X006745Y009922D02*
X006469Y009922D01*
X006469Y010039D02*
X006745Y010039D01*
D12*
X012274Y008644D02*
X012274Y008644D01*
X012848Y008644D01*
X012848Y008644D01*
X012274Y008644D01*
X012274Y008171D02*
X012274Y008171D01*
X012848Y008171D01*
X012848Y008171D01*
X012274Y008171D01*
X012274Y007699D02*
X012274Y007699D01*
X012848Y007699D01*
X012848Y007699D01*
X012274Y007699D01*
D13*
X012161Y007699D02*
X012561Y007699D01*
X012961Y007699D01*
X012961Y008171D02*
X012561Y008171D01*
X012161Y008171D01*
X012161Y008644D02*
X012561Y008644D01*
X012961Y008644D01*
D14*
X015179Y011911D03*
X015848Y011911D03*
X015848Y012699D03*
X015179Y012699D03*
X018526Y009746D03*
X018526Y008958D03*
X019195Y008958D03*
X019195Y009746D03*
D15*
X017243Y009903D03*
X017243Y009588D03*
X017243Y009273D03*
X017243Y008958D03*
X017243Y008644D03*
X017243Y008329D03*
X017243Y008014D03*
X017243Y010218D03*
X013863Y010218D03*
X013863Y009903D03*
X013863Y009588D03*
X013863Y009273D03*
X013863Y008958D03*
X013863Y008644D03*
X013863Y008329D03*
X013863Y008014D03*
D16*
X014451Y007426D03*
X014766Y007426D03*
X015081Y007426D03*
X015396Y007426D03*
X015711Y007426D03*
X016026Y007426D03*
X016341Y007426D03*
X016656Y007426D03*
X016656Y010806D03*
X016341Y010806D03*
X016026Y010806D03*
X015711Y010806D03*
X015396Y010806D03*
X015081Y010806D03*
X014766Y010806D03*
X014451Y010806D03*
D17*
X014695Y004155D03*
X015695Y004155D03*
X015695Y003155D03*
X014695Y003155D03*
X015226Y001458D03*
X016226Y001458D03*
X016695Y003155D03*
X016695Y004155D03*
D18*
X013604Y012305D03*
X011124Y012305D03*
D19*
X012407Y016604D03*
X013407Y016604D03*
X014407Y016604D03*
X015407Y016604D03*
X016407Y016604D03*
X017407Y016604D03*
X018407Y016604D03*
X019407Y016604D03*
X019407Y020604D03*
X018407Y020604D03*
X017407Y020604D03*
X016407Y020604D03*
X015407Y020604D03*
X014407Y020604D03*
X013407Y020604D03*
X012407Y020604D03*
D20*
X011921Y019293D02*
X011921Y011616D01*
X013594Y009943D01*
X013841Y009943D01*
X013863Y009903D01*
X013841Y009598D02*
X013594Y009598D01*
X013078Y010115D01*
X012906Y009943D01*
X013078Y010115D02*
X011134Y012059D01*
X011134Y012305D01*
X011124Y012305D01*
X013004Y012649D02*
X013004Y011714D01*
X014530Y010189D01*
X014825Y010189D01*
X015169Y009844D01*
X015071Y010287D02*
X015071Y010779D01*
X015081Y010806D01*
X014776Y010829D02*
X014766Y010806D01*
X014776Y010829D02*
X014776Y011075D01*
X014972Y011271D01*
X015169Y011271D01*
X015415Y010829D02*
X015415Y011714D01*
X015219Y011911D01*
X015179Y011911D01*
X015169Y011911D01*
X015169Y012305D01*
X013604Y012305D01*
X013004Y012649D02*
X013398Y013043D01*
X015465Y013043D01*
X015809Y012699D01*
X015848Y012699D01*
X016449Y012502D02*
X017482Y013535D01*
X023191Y013535D01*
X026783Y017128D01*
X027522Y017128D01*
X027522Y017817D01*
X027374Y018063D02*
X026390Y017079D01*
X026094Y016734D02*
X026094Y019441D01*
X026119Y019465D01*
X026685Y018899D01*
X027374Y018899D01*
X026783Y019145D02*
X029835Y022197D01*
X029982Y021655D02*
X029982Y020277D01*
X030007Y020253D01*
X030524Y020769D01*
X030671Y020769D01*
X030671Y020818D01*
X030671Y021508D02*
X030228Y021508D01*
X029982Y021655D02*
X030573Y022246D01*
X030671Y022196D01*
X030671Y022197D01*
X030081Y022787D01*
X030081Y022984D01*
X028900Y022984D01*
X027915Y023968D01*
X027915Y025346D01*
X026734Y025346D01*
X024717Y027364D01*
X025307Y027364D01*
X025898Y027955D01*
X025898Y028053D01*
X025898Y028053D01*
X025209Y028053D02*
X025209Y027610D01*
X025209Y028053D02*
X025208Y028053D01*
X024520Y028053D02*
X024520Y028053D01*
X024520Y027955D01*
X023954Y027389D01*
X023978Y027364D01*
X024717Y027364D01*
X023954Y027389D02*
X023929Y027364D01*
X022846Y027364D01*
X022600Y027364D01*
X022576Y027389D01*
X023142Y027955D01*
X023142Y028053D01*
X023143Y028053D01*
X023830Y028053D02*
X023831Y028053D01*
X023831Y027610D01*
X022576Y027389D02*
X022551Y027364D01*
X021222Y027364D01*
X021198Y027389D01*
X021173Y027364D01*
X020976Y027364D01*
X020903Y027438D01*
X019156Y025691D01*
X018418Y025691D01*
X018417Y025691D01*
X018417Y025002D01*
X016843Y023427D01*
X016104Y023427D01*
X016095Y023407D01*
X015858Y022935D02*
X015415Y023378D01*
X015405Y023407D01*
X013201Y025346D02*
X012561Y025346D01*
X011774Y026134D01*
X011774Y026675D01*
X010396Y028053D01*
X010347Y028053D01*
X010445Y027955D01*
X009805Y027315D01*
X008427Y027315D01*
X008403Y027339D01*
X008969Y027905D01*
X008969Y028053D01*
X008969Y028053D01*
X009657Y028053D02*
X009657Y028053D01*
X009657Y027561D01*
X008403Y027339D02*
X008378Y027315D01*
X007098Y027315D01*
X007074Y027339D01*
X007591Y027856D01*
X007591Y028053D01*
X007591Y028053D01*
X008279Y028053D02*
X008280Y028053D01*
X008280Y027561D01*
X007074Y027339D02*
X007000Y027266D01*
X006213Y027266D01*
X006213Y026970D01*
X004933Y025691D01*
X004293Y025691D01*
X004245Y025691D01*
X004293Y025691D02*
X004293Y025051D01*
X002571Y023329D01*
X001883Y023329D01*
X001882Y023329D01*
X001316Y022763D01*
X001341Y022738D01*
X001341Y022443D01*
X001439Y022344D01*
X001439Y020769D01*
X001414Y020745D01*
X000848Y021311D01*
X000750Y021311D01*
X000750Y021312D01*
X000750Y020622D02*
X000750Y020621D01*
X000750Y020622D02*
X001193Y020622D01*
X001414Y020745D02*
X001439Y020720D01*
X001439Y019392D01*
X001414Y019367D01*
X000848Y019933D01*
X000750Y019933D01*
X000750Y019934D01*
X001414Y019367D02*
X001439Y019342D01*
X001439Y018801D01*
X001414Y018776D01*
X001488Y018703D01*
X001414Y018776D02*
X001168Y018530D01*
X001144Y018555D01*
X000750Y018555D01*
X000750Y018556D01*
X001168Y018530D02*
X001390Y018309D01*
X001390Y016685D01*
X001365Y016660D01*
X000848Y017177D01*
X000750Y017177D01*
X000750Y017178D01*
X000750Y016488D02*
X000750Y016487D01*
X000750Y016488D02*
X001193Y016488D01*
X001365Y016660D02*
X001439Y016586D01*
X001439Y015159D01*
X001414Y015135D01*
X000750Y015799D01*
X000750Y015800D01*
X000750Y015109D02*
X000750Y014667D01*
X001192Y014667D02*
X001193Y014667D01*
X001537Y015012D01*
X001414Y015135D01*
X001537Y015012D02*
X002374Y015012D01*
X003506Y013880D01*
X003506Y012649D01*
X004687Y012649D01*
X007049Y010287D01*
X006262Y010287D01*
X005917Y009943D01*
X005917Y009943D01*
X006607Y009943D02*
X007049Y009943D01*
X007049Y010287D02*
X008230Y009106D01*
X008230Y007925D01*
X009411Y007925D01*
X010986Y006350D01*
X010986Y005907D01*
X011011Y005883D01*
X010445Y005317D01*
X010445Y005218D01*
X010444Y005218D01*
X011134Y005218D02*
X011135Y005218D01*
X011134Y005218D02*
X011134Y005661D01*
X011011Y005883D02*
X011035Y005907D01*
X011232Y005907D01*
X011601Y005538D01*
X011626Y005563D01*
X012709Y005563D01*
X013053Y005218D01*
X013200Y005218D01*
X013201Y005218D01*
X013545Y004874D01*
X014087Y004874D01*
X014431Y005218D01*
X014613Y005218D01*
X014628Y005218D01*
X014628Y005514D01*
X015022Y005907D01*
X015563Y005907D01*
X016006Y005464D01*
X016006Y005218D01*
X016050Y005218D01*
X016055Y005218D01*
X016055Y004825D01*
X016695Y004185D01*
X016695Y004155D01*
X016695Y003939D01*
X016203Y003447D01*
X016203Y002955D01*
X015268Y002019D01*
X015268Y001478D01*
X015226Y001458D01*
X015695Y003155D02*
X015711Y003201D01*
X016203Y003693D01*
X016203Y004382D01*
X015711Y004874D01*
X015711Y005415D01*
X015465Y005661D01*
X015120Y005661D02*
X015120Y005563D01*
X014972Y005415D01*
X014972Y005021D01*
X014628Y004677D01*
X014480Y004677D01*
X014185Y004382D01*
X014185Y003693D01*
X014677Y003201D01*
X014695Y003155D01*
X015268Y004775D02*
X015268Y005218D01*
X015304Y005218D01*
X013891Y005218D02*
X013890Y005218D01*
X013890Y005661D01*
X014726Y006547D02*
X018663Y006547D01*
X017925Y007138D02*
X018319Y007531D01*
X018909Y007777D02*
X019156Y007531D01*
X020091Y007531D01*
X020435Y007531D02*
X019648Y008319D01*
X017728Y008319D01*
X017285Y008319D01*
X017243Y008329D01*
X017236Y008368D01*
X016941Y008368D01*
X016769Y008540D01*
X016744Y008516D01*
X016769Y008540D02*
X016695Y008614D01*
X014333Y008614D01*
X014333Y008762D01*
X014333Y008614D02*
X013890Y008614D01*
X013863Y008644D01*
X013863Y008958D02*
X013644Y008958D01*
X012906Y008220D01*
X012561Y008171D01*
X012561Y008644D02*
X012167Y008614D01*
X011970Y008417D01*
X011970Y007630D01*
X012167Y007433D01*
X013841Y007433D01*
X014234Y007827D01*
X014234Y008220D01*
X014136Y008319D01*
X013890Y008319D01*
X013863Y008329D01*
X013863Y008014D02*
X013841Y007974D01*
X013299Y007974D01*
X013004Y007679D01*
X012961Y007699D01*
X012315Y007039D02*
X007197Y012157D01*
X007197Y013142D01*
X006656Y013683D01*
X006311Y013683D01*
X004441Y015553D01*
X004441Y017423D01*
X004687Y017669D01*
X005622Y017669D01*
X007492Y019539D01*
X021813Y019539D01*
X021813Y018653D01*
X021813Y019539D02*
X021813Y023378D01*
X021715Y023624D02*
X021961Y023624D01*
X022305Y023279D01*
X026119Y019465D01*
X026980Y020376D02*
X028358Y021754D01*
X028703Y021754D02*
X027325Y020376D01*
X026685Y021360D02*
X026685Y023230D01*
X024323Y025592D01*
X021961Y025592D01*
X023142Y025346D02*
X023142Y023870D01*
X024077Y022935D01*
X025848Y023673D02*
X025848Y021458D01*
X028506Y019441D02*
X026980Y017915D01*
X026488Y017915D01*
X026341Y018260D02*
X027079Y018260D01*
X029638Y020819D01*
X030007Y020253D02*
X029982Y020228D01*
X029982Y018899D01*
X030007Y018875D01*
X030524Y019392D01*
X030671Y019392D01*
X030671Y019440D01*
X030671Y018753D02*
X030671Y018752D01*
X030228Y018752D01*
X030007Y018875D02*
X029982Y018850D01*
X029982Y018358D01*
X028752Y018358D01*
X029244Y018063D02*
X027374Y018063D01*
X028506Y017768D02*
X024864Y014126D01*
X024126Y013437D02*
X023535Y012846D01*
X019402Y012846D01*
X017384Y010829D01*
X016695Y010829D01*
X016656Y010806D01*
X016350Y010829D02*
X016350Y011075D01*
X018368Y013092D01*
X022010Y013092D01*
X022108Y013338D02*
X022354Y013092D01*
X022108Y013338D02*
X018368Y013338D01*
X016843Y011813D01*
X016744Y011813D01*
X016449Y012502D02*
X015858Y011911D01*
X015848Y011911D01*
X015711Y011370D02*
X016006Y011075D01*
X016006Y010829D01*
X016026Y010806D01*
X016341Y010806D02*
X016350Y010829D01*
X015711Y010806D02*
X015711Y010582D01*
X015563Y010435D01*
X015514Y010435D01*
X015415Y010336D01*
X015396Y010806D02*
X015415Y010829D01*
X016744Y009943D02*
X017236Y009943D01*
X017243Y009903D01*
X017285Y009598D02*
X017243Y009588D01*
X017285Y009598D02*
X017482Y009598D01*
X017728Y009844D01*
X018073Y009746D02*
X018526Y009746D01*
X018319Y010238D02*
X019746Y011665D01*
X024963Y011665D01*
X025061Y011419D02*
X020386Y011419D01*
X019598Y011173D02*
X020287Y010484D01*
X024274Y010484D01*
X024126Y009943D02*
X025332Y011148D01*
X025307Y011173D01*
X023781Y011173D01*
X024028Y011911D02*
X021518Y011911D01*
X021419Y012256D02*
X023535Y012256D01*
X025947Y014667D01*
X026439Y014667D01*
X027423Y015307D02*
X024028Y011911D01*
X025061Y011419D02*
X026193Y012551D01*
X026439Y012551D01*
X026488Y012305D02*
X025332Y011148D01*
X025505Y009943D02*
X025947Y009943D01*
X024814Y009943D02*
X024126Y009943D01*
X022748Y008565D01*
X021542Y009770D01*
X021518Y009746D01*
X019205Y009746D01*
X019195Y009746D01*
X019205Y009746D02*
X019205Y009303D01*
X017285Y009303D01*
X017243Y009273D01*
X017236Y009254D01*
X014234Y009254D01*
X014234Y009451D01*
X014136Y009549D01*
X013890Y009549D01*
X013863Y009588D01*
X013841Y009598D01*
X013863Y009273D02*
X013841Y009254D01*
X013398Y009254D01*
X013053Y009254D01*
X009141Y013166D01*
X009165Y013191D01*
X009141Y013166D02*
X006705Y015602D01*
X005179Y017128D01*
X005179Y016488D02*
X011970Y009697D01*
X012512Y008909D02*
X012856Y009254D01*
X013053Y009254D01*
X012512Y008909D02*
X011724Y008909D01*
X010986Y009549D02*
X010297Y009549D01*
X010937Y009894D02*
X010543Y010287D01*
X010445Y010287D01*
X010937Y009894D02*
X010986Y009894D01*
X009411Y007581D02*
X008969Y007581D01*
X008279Y007581D02*
X008230Y007581D01*
X008230Y007925D01*
X011183Y007384D02*
X005917Y012649D01*
X005573Y012551D02*
X005573Y012748D01*
X005868Y013043D01*
X006459Y013043D01*
X006951Y013043D01*
X005573Y012551D02*
X011478Y006645D01*
X012315Y007039D02*
X014185Y007039D01*
X014923Y007039D01*
X015071Y007187D01*
X015071Y007384D01*
X015081Y007426D01*
X015366Y007384D02*
X015366Y007138D01*
X015292Y007064D01*
X015317Y007039D01*
X016843Y007039D01*
X017581Y007777D01*
X018909Y007777D01*
X019195Y008958D02*
X019205Y008958D01*
X019648Y008958D01*
X019205Y008958D02*
X019205Y009303D01*
X019549Y009401D02*
X021124Y007827D01*
X021124Y007433D01*
X020730Y007039D01*
X020878Y007531D02*
X020435Y007531D01*
X021715Y007581D02*
X019869Y005735D01*
X020238Y005366D01*
X020238Y005218D01*
X020287Y005218D01*
X019869Y005735D02*
X019697Y005907D01*
X019500Y005907D01*
X018811Y005218D01*
X018909Y005218D01*
X018860Y005218D01*
X018811Y005218D02*
X018762Y005218D01*
X018417Y004874D01*
X017285Y004874D01*
X017261Y004898D01*
X017482Y005120D01*
X017482Y005218D01*
X017531Y005218D01*
X017261Y004898D02*
X016646Y004283D01*
X016695Y004155D01*
X016744Y004775D02*
X016744Y005218D01*
X016741Y005218D01*
X018220Y005218D02*
X018221Y005218D01*
X018220Y005218D02*
X018220Y005612D01*
X018171Y005661D01*
X019598Y005661D02*
X019598Y005218D01*
X019599Y005218D01*
X020976Y005218D02*
X020977Y005218D01*
X020976Y005218D02*
X020976Y005661D01*
X021715Y007581D02*
X021764Y007581D01*
X022748Y008565D01*
X022452Y007581D02*
X021764Y007581D01*
X023143Y007581D02*
X023585Y007581D01*
X021542Y009770D02*
X021370Y009943D01*
X018526Y008958D02*
X017243Y008958D01*
X017236Y008663D02*
X017243Y008644D01*
X017236Y008663D02*
X016990Y008663D01*
X016744Y008909D01*
X015907Y009500D02*
X014825Y009500D01*
X014234Y009254D02*
X014234Y009106D01*
X014087Y008958D01*
X013863Y008958D01*
X015396Y007426D02*
X015366Y007384D01*
X015292Y007064D02*
X015022Y006793D01*
X013939Y006793D01*
X012513Y005218D02*
X012512Y005218D01*
X012512Y004775D01*
X011822Y005218D02*
X011774Y005218D01*
X011774Y005366D01*
X011601Y005538D01*
X017243Y010218D02*
X017285Y010238D01*
X018319Y010238D01*
X017482Y010582D02*
X018073Y011173D01*
X015169Y012305D02*
X015169Y012699D01*
X015179Y012699D01*
X015957Y017964D02*
X019697Y017964D01*
X022157Y015504D01*
X023634Y015504D02*
X019992Y019145D01*
X014972Y019145D01*
X010888Y022836D02*
X010543Y022492D01*
X010740Y023427D02*
X011774Y023427D01*
X010593Y024264D02*
X009657Y023329D01*
X009657Y022935D01*
X009215Y023132D02*
X010297Y024214D01*
X010297Y025346D01*
X010051Y025445D02*
X010051Y024313D01*
X008772Y023033D01*
X009215Y022246D02*
X020337Y022246D01*
X021715Y023624D01*
X021198Y027389D02*
X021764Y027955D01*
X021764Y028053D01*
X021765Y028053D01*
X022452Y028053D02*
X022453Y028053D01*
X022453Y027610D01*
X021075Y027610D02*
X021075Y028053D01*
X021074Y028053D01*
X020903Y027438D02*
X020435Y027905D01*
X020435Y028053D01*
X020387Y028053D01*
X019697Y028053D02*
X019697Y027610D01*
X019697Y028053D02*
X019696Y028053D01*
X017728Y025691D02*
X017285Y025691D01*
X013694Y025691D02*
X013545Y025691D01*
X013201Y025346D01*
X013003Y025691D02*
X012561Y025691D01*
X011774Y026675D02*
X011774Y028053D01*
X011725Y028053D01*
X011528Y027561D02*
X011035Y028053D01*
X011035Y028053D01*
X009411Y026084D02*
X010051Y025445D01*
X009805Y025346D02*
X007394Y025346D01*
X007394Y024165D01*
X004392Y021163D01*
X004785Y020819D02*
X007714Y023747D01*
X009215Y022246D01*
X007714Y023747D02*
X008083Y024116D01*
X007640Y024067D02*
X005031Y021458D01*
X003211Y021262D02*
X003211Y020228D01*
X002866Y019884D02*
X003358Y019392D01*
X005868Y019392D01*
X005524Y017915D02*
X003260Y017915D01*
X003457Y019638D02*
X001882Y021212D01*
X001882Y022246D01*
X001316Y022763D02*
X001291Y022738D01*
X000750Y022738D01*
X000750Y022690D01*
X001193Y022246D02*
X000947Y022000D01*
X000750Y022000D01*
X000750Y021999D01*
X000750Y023329D02*
X001192Y023329D01*
X003211Y021262D02*
X006311Y024362D01*
X004047Y025149D02*
X004047Y025199D01*
X003555Y025691D01*
X003554Y025691D01*
X005524Y027905D02*
X005868Y027561D01*
X006213Y027266D02*
X006213Y028053D01*
X006213Y028053D01*
X006901Y028053D02*
X006902Y028053D01*
X006902Y027512D01*
X005524Y027905D02*
X005524Y028053D01*
X005523Y028053D01*
X001193Y019244D02*
X000750Y019244D01*
X000750Y019243D01*
X001094Y018210D02*
X001144Y018210D01*
X001094Y018210D02*
X000750Y017866D01*
X000750Y017865D01*
X001883Y014667D02*
X002374Y014667D01*
X002522Y014519D01*
X003506Y012649D02*
X003506Y012305D01*
X003554Y012305D01*
X004245Y012305D02*
X004687Y012305D01*
X020927Y019195D02*
X024569Y015553D01*
X026094Y016734D02*
X023388Y014027D01*
X021173Y014027D01*
X026488Y012305D02*
X027176Y012305D01*
X027177Y012305D01*
X027177Y012994D01*
X028850Y014667D01*
X029539Y014667D01*
X029687Y014667D01*
X030007Y014987D01*
X029982Y015012D01*
X029982Y016094D01*
X030007Y016119D01*
X029982Y016144D01*
X029982Y017472D01*
X030007Y017497D01*
X029982Y017521D01*
X029982Y018358D01*
X030524Y018014D02*
X030007Y017497D01*
X030228Y017374D02*
X030671Y017374D01*
X030671Y017375D01*
X030671Y018014D02*
X030671Y018062D01*
X030671Y018014D02*
X030524Y018014D01*
X030671Y016684D02*
X030671Y016636D01*
X030524Y016636D01*
X030007Y016119D01*
X030228Y015996D02*
X030671Y015996D01*
X030671Y015997D01*
X030671Y015306D02*
X030671Y015258D01*
X030278Y015258D01*
X030007Y014987D01*
X030229Y014667D02*
X030671Y014667D01*
X028309Y012305D02*
X027867Y012305D01*
X028506Y017768D02*
X028752Y017768D01*
X028752Y019441D02*
X028506Y019441D01*
X030228Y020130D02*
X030671Y020130D01*
X030671Y020131D01*
X030671Y021508D02*
X030671Y021508D01*
X030671Y022886D02*
X030671Y023329D01*
X030081Y023329D02*
X030081Y022984D01*
X030081Y023329D02*
X030032Y023329D01*
X029342Y023329D02*
X028900Y023329D01*
X027915Y025346D02*
X027915Y025691D01*
X027867Y025691D01*
X027176Y025691D02*
X026734Y025691D01*
D21*
X026734Y025691D03*
X025209Y027610D03*
X023831Y027610D03*
X022846Y027364D03*
X022453Y027610D03*
X021075Y027610D03*
X019697Y027610D03*
X021961Y025592D03*
X023142Y025346D03*
X024323Y025592D03*
X025848Y023673D03*
X024077Y022935D03*
X022305Y023279D03*
X021813Y023378D03*
X025848Y021458D03*
X026685Y021360D03*
X026980Y020376D03*
X027325Y020376D03*
X026783Y019145D03*
X027374Y018899D03*
X026488Y017915D03*
X026341Y018260D03*
X026390Y017079D03*
X027522Y017128D03*
X027522Y017817D03*
X028752Y017768D03*
X029244Y018063D03*
X028752Y018358D03*
X028752Y019441D03*
X030228Y020130D03*
X029638Y020819D03*
X030228Y021508D03*
X029835Y022197D03*
X028703Y021754D03*
X028358Y021754D03*
X028900Y023329D03*
X030671Y023329D03*
X030228Y018752D03*
X030228Y017374D03*
X030228Y015996D03*
X030671Y014667D03*
X028309Y012305D03*
X026439Y012551D03*
X024963Y011665D03*
X023781Y011173D03*
X024274Y010484D03*
X025947Y009943D03*
X023585Y007581D03*
X021370Y009943D03*
X020386Y011419D03*
X019598Y011173D03*
X018073Y011173D03*
X017482Y010582D03*
X017728Y009844D03*
X018073Y009746D03*
X016744Y009943D03*
X015907Y009500D03*
X015169Y009844D03*
X015071Y010287D03*
X015415Y010336D03*
X014825Y009500D03*
X014333Y008762D03*
X013398Y009254D03*
X012906Y009943D03*
X011970Y009697D03*
X011724Y008909D03*
X010986Y009549D03*
X010986Y009894D03*
X010445Y010287D03*
X010297Y009549D03*
X009411Y007581D03*
X011183Y007384D03*
X011478Y006645D03*
X011134Y005661D03*
X012512Y004775D03*
X013890Y005661D03*
X014726Y006547D03*
X014185Y007039D03*
X013939Y006793D03*
X015120Y005661D03*
X015465Y005661D03*
X015268Y004775D03*
X016744Y004775D03*
X018171Y005661D03*
X018663Y006547D03*
X017925Y007138D03*
X018319Y007531D03*
X017728Y008319D03*
X016744Y008516D03*
X016744Y008909D03*
X015711Y011370D03*
X015169Y011271D03*
X016449Y012502D03*
X016744Y011813D03*
X019549Y009401D03*
X019648Y008958D03*
X020091Y007531D03*
X020730Y007039D03*
X020878Y007531D03*
X020976Y005661D03*
X019598Y005661D03*
X021518Y011911D03*
X021419Y012256D03*
X022010Y013092D03*
X022354Y013092D03*
X021173Y014027D03*
X022157Y015504D03*
X023634Y015504D03*
X024569Y015553D03*
X024864Y014126D03*
X024126Y013437D03*
X026439Y014667D03*
X027423Y015307D03*
X021813Y018653D03*
X020927Y019195D03*
X015957Y017964D03*
X014972Y019145D03*
X011921Y019293D03*
X010543Y022492D03*
X010888Y022836D03*
X010740Y023427D03*
X010593Y024264D03*
X010297Y025346D03*
X009805Y025346D03*
X009411Y026084D03*
X009657Y027561D03*
X008280Y027561D03*
X006902Y027512D03*
X005868Y027561D03*
X007394Y025346D03*
X006311Y024362D03*
X007640Y024067D03*
X008083Y024116D03*
X008772Y023033D03*
X009215Y023132D03*
X009657Y022935D03*
X011774Y023427D03*
X012561Y025691D03*
X011528Y027561D03*
X015858Y022935D03*
X017285Y025691D03*
X006705Y015602D03*
X005179Y016488D03*
X005179Y017128D03*
X004687Y017669D03*
X005524Y017915D03*
X005868Y019392D03*
X004785Y020819D03*
X004392Y021163D03*
X005031Y021458D03*
X003211Y020228D03*
X002866Y019884D03*
X003457Y019638D03*
X003260Y017915D03*
X001488Y018703D03*
X001144Y018210D03*
X001193Y019244D03*
X001193Y020622D03*
X001193Y022246D03*
X001882Y022246D03*
X000750Y023329D03*
X004047Y025149D03*
X001193Y016488D03*
X000750Y014667D03*
X002522Y014519D03*
X004687Y012305D03*
X005917Y012649D03*
X006459Y013043D03*
X006951Y013043D03*
X009165Y013191D03*
X007049Y009943D03*
M02*
