G75*
%MOIN*%
%OFA0B0*%
%FSLAX24Y24*%
%IPPOS*%
%LPD*%
%AMOC8*
5,1,8,0,0,1.08239X$1,22.5*
%
%ADD10C,0.0000*%
%ADD11R,0.0433X0.0394*%
%ADD12R,0.0394X0.0433*%
%ADD13R,0.0217X0.0472*%
%ADD14R,0.0630X0.0551*%
%ADD15C,0.0118*%
%ADD16R,0.0260X0.0800*%
%ADD17R,0.0800X0.0260*%
%ADD18C,0.0740*%
%ADD19C,0.0700*%
%ADD20R,0.0315X0.0354*%
%ADD21C,0.0079*%
%ADD22C,0.0240*%
D10*
X007443Y007187D02*
X007443Y009549D01*
X005081Y009549D01*
X005081Y011911D01*
X002719Y011911D01*
X002719Y014273D01*
X000356Y014273D01*
X000356Y023722D01*
X002719Y023722D01*
X002719Y026084D01*
X005081Y026084D01*
X005081Y028447D01*
X012167Y028447D01*
X012167Y026084D01*
X014530Y026084D01*
X014530Y023722D01*
X016892Y023722D01*
X016892Y026084D01*
X019254Y026084D01*
X019254Y028447D01*
X026341Y028447D01*
X026341Y026084D01*
X028703Y026084D01*
X028703Y023722D01*
X031065Y023722D01*
X031065Y014273D01*
X028703Y014273D01*
X028703Y011911D01*
X026341Y011911D01*
X026341Y009549D01*
X023978Y009549D01*
X023978Y007187D01*
X021616Y007187D01*
X021616Y004825D01*
X019254Y004825D01*
X019254Y002462D01*
X016892Y002462D01*
X016892Y000100D01*
X014530Y000100D01*
X014530Y002462D01*
X012167Y002462D01*
X012167Y004825D01*
X009805Y004825D01*
X009805Y007187D01*
X007443Y007187D01*
D11*
X008289Y007581D03*
X008959Y007581D03*
X010455Y005218D03*
X011124Y005218D03*
X011833Y005218D03*
X012502Y005218D03*
X013211Y005218D03*
X013880Y005218D03*
X014589Y005218D03*
X015258Y005218D03*
X016041Y005206D03*
X016711Y005206D03*
X017541Y005218D03*
X018211Y005218D03*
X018919Y005218D03*
X019589Y005218D03*
X020297Y005218D03*
X020967Y005218D03*
X022463Y007581D03*
X023132Y007581D03*
X024825Y009943D03*
X025494Y009943D03*
X027187Y012305D03*
X027856Y012305D03*
X029549Y014667D03*
X030219Y014667D03*
X030022Y023329D03*
X029352Y023329D03*
X027856Y025691D03*
X027187Y025691D03*
X025888Y028053D03*
X025219Y028053D03*
X024510Y028053D03*
X023841Y028053D03*
X023132Y028053D03*
X022463Y028053D03*
X021754Y028053D03*
X021085Y028053D03*
X020376Y028053D03*
X019707Y028053D03*
X018407Y025691D03*
X017738Y025691D03*
X016096Y023380D03*
X015427Y023380D03*
X013671Y025651D03*
X013002Y025651D03*
X011722Y027962D03*
X011053Y027962D03*
X010329Y027970D03*
X009659Y027970D03*
X008943Y027962D03*
X008274Y027962D03*
X007573Y027955D03*
X006904Y027955D03*
X006207Y027951D03*
X005537Y027951D03*
X004238Y025588D03*
X003569Y025588D03*
X001864Y023329D03*
X001195Y023329D03*
X006360Y015218D03*
X007030Y015218D03*
X007069Y012541D03*
X006400Y012541D03*
X004234Y012305D03*
X003565Y012305D03*
X002069Y014667D03*
X001400Y014667D03*
X005927Y009943D03*
X006596Y009943D03*
D12*
X010199Y014376D03*
X010199Y015045D03*
X012758Y015053D03*
X012758Y014384D03*
X015411Y014376D03*
X015411Y015045D03*
X014431Y017329D03*
X014431Y017998D03*
X014423Y019191D03*
X014423Y019860D03*
X013419Y019876D03*
X013419Y019206D03*
X012411Y019191D03*
X012411Y019860D03*
X015407Y019856D03*
X015407Y019187D03*
X016392Y018018D03*
X016392Y017348D03*
X017423Y019195D03*
X017423Y019864D03*
X017927Y015049D03*
X017927Y014380D03*
X030671Y015317D03*
X030671Y015986D03*
X030671Y016695D03*
X030671Y017364D03*
X030671Y018073D03*
X030671Y018742D03*
X030671Y019451D03*
X030671Y020120D03*
X030671Y020829D03*
X030671Y021498D03*
X030671Y022206D03*
X030671Y022876D03*
X000793Y022699D03*
X000793Y022029D03*
X000750Y021301D03*
X000750Y020632D03*
X000750Y019923D03*
X000750Y019254D03*
X000750Y018545D03*
X000750Y017876D03*
X000750Y017167D03*
X000750Y016498D03*
X000750Y015789D03*
X000750Y015120D03*
D13*
X006360Y014510D03*
X007108Y014510D03*
X007108Y013486D03*
X006734Y013486D03*
X006360Y013486D03*
D14*
X005553Y013368D03*
X005553Y014470D03*
X007955Y014462D03*
X007955Y013360D03*
D15*
X007218Y012128D02*
X007218Y011852D01*
X006942Y011852D01*
X006942Y012128D01*
X007218Y012128D01*
X007218Y011969D02*
X006942Y011969D01*
X006942Y012086D02*
X007218Y012086D01*
X006527Y012128D02*
X006527Y011852D01*
X006251Y011852D01*
X006251Y012128D01*
X006527Y012128D01*
X006527Y011969D02*
X006251Y011969D01*
X006251Y012086D02*
X006527Y012086D01*
D16*
X011205Y010562D03*
X011705Y010562D03*
X012205Y010562D03*
X012705Y010562D03*
X013205Y010562D03*
X013705Y010562D03*
X014205Y010562D03*
X014705Y010562D03*
X014705Y008142D03*
X014205Y008142D03*
X013705Y008142D03*
X013205Y008142D03*
X012705Y008142D03*
X012205Y008142D03*
X011705Y008142D03*
X011205Y008142D03*
X018094Y008142D03*
X018594Y008142D03*
X019094Y008142D03*
X019594Y008142D03*
X020094Y008142D03*
X020594Y008142D03*
X021094Y008142D03*
X021594Y008142D03*
X021594Y010562D03*
X021094Y010562D03*
X020594Y010562D03*
X020094Y010562D03*
X019594Y010562D03*
X019094Y010562D03*
X018594Y010562D03*
X018094Y010562D03*
X022031Y012473D03*
X022531Y012473D03*
X023031Y012473D03*
X023531Y012473D03*
X024031Y012473D03*
X024531Y012473D03*
X025031Y012473D03*
X025531Y012473D03*
X025531Y014893D03*
X025031Y014893D03*
X024531Y014893D03*
X024031Y014893D03*
X023531Y014893D03*
X023031Y014893D03*
X022531Y014893D03*
X022031Y014893D03*
X021850Y022315D03*
X021350Y022315D03*
X020850Y022315D03*
X022350Y022315D03*
X022850Y022315D03*
X023350Y022315D03*
X023850Y022315D03*
X024350Y022315D03*
X024350Y024735D03*
X023850Y024735D03*
X023350Y024735D03*
X022850Y024735D03*
X022350Y024735D03*
X021850Y024735D03*
X021350Y024735D03*
X020850Y024735D03*
X010177Y024735D03*
X009677Y024735D03*
X009177Y024735D03*
X008677Y024735D03*
X008177Y024735D03*
X007677Y024735D03*
X007177Y024735D03*
X006677Y024735D03*
X006677Y022315D03*
X007177Y022315D03*
X007677Y022315D03*
X008177Y022315D03*
X008677Y022315D03*
X009177Y022315D03*
X009677Y022315D03*
X010177Y022315D03*
D17*
X006488Y020157D03*
X006488Y019657D03*
X006488Y019157D03*
X006488Y018657D03*
X006488Y018157D03*
X006488Y017657D03*
X006488Y017157D03*
X006488Y016657D03*
X004068Y016657D03*
X004068Y017157D03*
X004068Y017657D03*
X004068Y018157D03*
X004068Y018657D03*
X004068Y019157D03*
X004068Y019657D03*
X004068Y020157D03*
X025721Y020354D03*
X025721Y019854D03*
X025721Y019354D03*
X025721Y018854D03*
X025721Y018354D03*
X025721Y017854D03*
X025721Y017354D03*
X025721Y016854D03*
X028141Y016854D03*
X028141Y017354D03*
X028141Y017854D03*
X028141Y018354D03*
X028141Y018854D03*
X028141Y019354D03*
X028141Y019854D03*
X028141Y020354D03*
D18*
X016695Y004155D03*
X016695Y003155D03*
X015695Y003155D03*
X014695Y003155D03*
X014695Y004155D03*
X015695Y004155D03*
X015226Y001458D03*
X016226Y001458D03*
D19*
X016407Y016604D03*
X015407Y016604D03*
X014407Y016604D03*
X013407Y016604D03*
X012407Y016604D03*
X012407Y020604D03*
X013407Y020604D03*
X014407Y020604D03*
X015407Y020604D03*
X016407Y020604D03*
X017407Y020604D03*
X018407Y020604D03*
X019407Y020604D03*
X019407Y016604D03*
X018407Y016604D03*
X017407Y016604D03*
D20*
X017407Y015037D03*
X016659Y015037D03*
X017033Y014210D03*
X019033Y015057D03*
X019781Y015057D03*
X019407Y014230D03*
X014573Y015041D03*
X013825Y015041D03*
X014199Y014214D03*
X012175Y015045D03*
X011427Y015045D03*
X011801Y014218D03*
D21*
X011774Y014175D01*
X010789Y013191D01*
X009165Y013191D01*
X008427Y013191D01*
X008427Y011616D01*
X006754Y011616D01*
X006409Y011960D01*
X006389Y011990D01*
X006065Y012206D02*
X006065Y011764D01*
X006508Y011321D01*
X013004Y011321D01*
X013004Y011124D01*
X013029Y011099D01*
X012955Y011025D01*
X012955Y010090D01*
X012881Y010017D01*
X012906Y009992D01*
X012906Y009943D01*
X012881Y010017D02*
X012758Y009894D01*
X012758Y008220D01*
X012709Y008171D01*
X012705Y008142D01*
X013205Y008142D02*
X013250Y008122D01*
X013250Y007482D01*
X013939Y006793D01*
X014185Y007039D02*
X013742Y007482D01*
X013742Y008122D01*
X013705Y008142D01*
X014111Y008540D02*
X014333Y008762D01*
X014111Y008540D02*
X013398Y009254D01*
X013152Y008860D02*
X013152Y010484D01*
X013201Y010533D01*
X013205Y010562D01*
X013705Y010562D02*
X013742Y010533D01*
X013742Y010238D01*
X014972Y009008D01*
X014972Y006399D01*
X014874Y006301D01*
X014874Y005464D01*
X014628Y005218D01*
X014589Y005218D01*
X015258Y005218D02*
X015268Y005218D01*
X015268Y004775D01*
X015661Y004185D02*
X015695Y004155D01*
X015661Y004185D02*
X015661Y005415D01*
X015711Y005464D01*
X015711Y005760D01*
X015661Y005809D01*
X015661Y010779D01*
X015169Y011271D01*
X014923Y011075D02*
X015415Y010582D01*
X015415Y010336D01*
X015071Y010287D02*
X015465Y009894D01*
X015465Y005661D01*
X015169Y005710D02*
X015120Y005661D01*
X015169Y005710D02*
X015169Y009844D01*
X014825Y009500D02*
X014234Y010090D01*
X014234Y010533D01*
X014205Y010562D01*
X014677Y010582D02*
X014705Y010562D01*
X014677Y010582D02*
X014677Y011124D01*
X013053Y011124D01*
X013029Y011099D01*
X012705Y010562D02*
X012659Y010533D01*
X012659Y010041D01*
X011921Y010041D01*
X010937Y009057D01*
X010937Y006842D01*
X011380Y006399D01*
X011380Y005661D01*
X011823Y005218D01*
X011833Y005218D01*
X012502Y005218D02*
X012512Y005218D01*
X012512Y004775D01*
X012856Y004283D02*
X014530Y002610D01*
X016203Y002610D01*
X016203Y001478D01*
X016226Y001458D01*
X016695Y003155D02*
X016695Y003201D01*
X017187Y003693D01*
X017187Y008516D01*
X016744Y008516D01*
X016744Y008909D02*
X016203Y009451D01*
X016203Y013584D01*
X015411Y014376D01*
X015071Y014126D02*
X015711Y013486D01*
X015711Y011370D01*
X014923Y011075D02*
X014923Y014027D01*
X014283Y014667D01*
X014283Y015356D01*
X013594Y015356D01*
X013545Y015307D01*
X013545Y015208D01*
X012758Y014421D01*
X012758Y014384D01*
X013102Y014323D02*
X013102Y014126D01*
X013004Y014027D01*
X012413Y014027D01*
X012413Y014667D01*
X012758Y015012D01*
X012758Y015053D01*
X012364Y015208D02*
X012364Y016586D01*
X012407Y016604D01*
X012217Y017079D02*
X013890Y017079D01*
X013890Y016390D01*
X015071Y015208D01*
X015071Y014126D01*
X014199Y014214D02*
X014185Y014175D01*
X014185Y013781D01*
X012217Y013781D01*
X011823Y014175D01*
X011801Y014218D01*
X011380Y015012D02*
X011427Y015045D01*
X011380Y015012D02*
X010543Y014175D01*
X010543Y014126D01*
X010445Y014027D01*
X009854Y014027D01*
X009854Y014667D01*
X010199Y015012D01*
X010199Y015045D01*
X010199Y014421D02*
X010199Y014376D01*
X010199Y014421D02*
X011921Y016144D01*
X011921Y016783D01*
X012217Y017079D01*
X013407Y016604D02*
X013447Y016586D01*
X014480Y015553D01*
X014480Y015110D01*
X014530Y015061D01*
X014573Y015041D01*
X013825Y015041D02*
X013791Y015012D01*
X013102Y014323D01*
X012217Y015061D02*
X012175Y015045D01*
X012217Y015061D02*
X012364Y015208D01*
X014407Y016604D02*
X014431Y016636D01*
X014431Y017329D01*
X014431Y017964D02*
X014431Y017998D01*
X014431Y017964D02*
X015957Y017964D01*
X016392Y018018D02*
X016400Y018014D01*
X020041Y018014D01*
X020189Y017866D01*
X021222Y017866D01*
X021222Y018407D01*
X021715Y018899D01*
X022059Y018899D01*
X022059Y015750D01*
X021911Y015602D01*
X021911Y015012D01*
X022010Y014913D01*
X022031Y014893D01*
X022502Y014913D02*
X022502Y015159D01*
X022157Y015504D01*
X022502Y014913D02*
X022531Y014893D01*
X022994Y014913D02*
X023031Y014893D01*
X022994Y014913D02*
X022994Y019096D01*
X021665Y019096D01*
X021419Y018850D01*
X017138Y018850D01*
X017089Y018899D01*
X017089Y019145D01*
X015415Y019145D01*
X015407Y019187D01*
X014972Y019145D02*
X014431Y019145D01*
X014423Y019191D01*
X014423Y019860D02*
X014431Y019884D01*
X014431Y020573D01*
X014407Y020604D01*
X014234Y021114D02*
X013890Y020769D01*
X013890Y019687D01*
X013447Y019244D01*
X013419Y019206D01*
X012906Y019687D02*
X012906Y020769D01*
X013447Y021311D01*
X024963Y021311D01*
X024963Y016193D01*
X025799Y015356D01*
X025799Y014421D01*
X025750Y014372D01*
X023535Y014372D01*
X023535Y014864D01*
X023531Y014893D01*
X024028Y014913D02*
X024031Y014893D01*
X024028Y014913D02*
X024028Y015110D01*
X023634Y015504D01*
X024323Y015110D02*
X024520Y014913D01*
X024531Y014893D01*
X024323Y015110D02*
X024323Y021114D01*
X014234Y021114D01*
X013447Y020573D02*
X013407Y020604D01*
X013447Y020573D02*
X013447Y019884D01*
X013419Y019876D01*
X012906Y019687D02*
X012413Y019195D01*
X012411Y019191D01*
X011921Y019293D02*
X010789Y020425D01*
X010789Y022590D01*
X009215Y024165D01*
X009215Y024706D01*
X009177Y024735D01*
X009677Y024735D02*
X009707Y024706D01*
X009707Y024460D01*
X010740Y023427D01*
X010888Y022886D02*
X010888Y022836D01*
X010888Y022886D02*
X013644Y025642D01*
X013671Y025651D01*
X013002Y025651D02*
X012955Y025691D01*
X012561Y025691D01*
X011528Y027561D02*
X011675Y027708D01*
X011675Y027955D01*
X011722Y027962D01*
X011053Y027962D02*
X011035Y027955D01*
X010593Y027512D01*
X010593Y024264D01*
X010177Y024735D02*
X010150Y024756D01*
X010150Y025002D01*
X009805Y025346D01*
X010297Y025346D02*
X010297Y027955D01*
X010329Y027970D01*
X009659Y027970D02*
X009657Y027955D01*
X009657Y027561D01*
X009411Y027512D02*
X009411Y026084D01*
X008427Y025199D02*
X008427Y023329D01*
X008181Y023082D01*
X008181Y022344D01*
X008177Y022315D01*
X008677Y022315D02*
X008722Y022344D01*
X008722Y022984D01*
X008772Y023033D01*
X008673Y023329D02*
X008427Y023082D01*
X008427Y021754D01*
X007049Y021754D01*
X007049Y016931D01*
X006656Y016537D01*
X006488Y016657D01*
X006508Y016636D01*
X007000Y016144D01*
X007000Y015258D01*
X007030Y015218D01*
X007000Y015208D01*
X006852Y015061D01*
X006852Y013584D01*
X006754Y013486D01*
X006734Y013486D01*
X006705Y013437D01*
X006705Y012846D01*
X006400Y012541D01*
X006065Y012206D01*
X006360Y012551D02*
X006400Y012541D01*
X006360Y012551D02*
X005573Y013338D01*
X005553Y013368D01*
X005917Y012649D02*
X003949Y012649D01*
X003604Y012305D01*
X003565Y012305D01*
X004234Y012305D02*
X004687Y012305D01*
X006459Y013043D02*
X006459Y013338D01*
X006360Y013437D01*
X006360Y013486D01*
X006951Y013043D02*
X007098Y013191D01*
X007098Y013388D01*
X007108Y013486D01*
X007098Y013437D01*
X007098Y013388D01*
X007935Y013388D01*
X007955Y013360D01*
X008427Y013191D02*
X008427Y013683D01*
X008083Y014027D01*
X007148Y014027D01*
X007148Y014470D01*
X007108Y014510D01*
X007049Y015208D02*
X007030Y015218D01*
X007049Y015208D02*
X007935Y015208D01*
X007935Y014470D01*
X007955Y014462D01*
X006705Y015602D02*
X006360Y015258D01*
X006360Y015218D01*
X006360Y015208D01*
X005573Y015208D01*
X005573Y014470D01*
X005553Y014470D01*
X005967Y015602D02*
X005967Y016882D01*
X006213Y017128D01*
X006459Y017128D01*
X006488Y017157D01*
X006459Y017620D02*
X006213Y017620D01*
X005770Y017177D01*
X005770Y015799D01*
X000750Y015799D01*
X000750Y015789D01*
X000996Y016242D02*
X005573Y016242D01*
X005573Y017472D01*
X006213Y018112D01*
X006459Y018112D01*
X006488Y018157D01*
X006459Y018653D02*
X006262Y018653D01*
X005524Y017915D01*
X005031Y017669D02*
X005031Y021458D01*
X004785Y020819D02*
X004785Y018161D01*
X004096Y018161D01*
X004068Y018157D01*
X004068Y018657D02*
X004047Y018703D01*
X001488Y018703D01*
X001144Y018210D02*
X001045Y018210D01*
X000750Y018506D01*
X000750Y018545D01*
X000750Y017915D02*
X000750Y017876D01*
X000750Y017915D02*
X003260Y017915D01*
X003506Y018309D02*
X003604Y018407D01*
X004589Y018407D01*
X004589Y019884D01*
X004343Y020130D01*
X004096Y020130D01*
X004068Y020157D01*
X004392Y020130D01*
X004392Y021163D01*
X004343Y021705D02*
X005967Y021705D01*
X005967Y019933D01*
X006213Y019687D01*
X006459Y019687D01*
X006488Y019657D01*
X006459Y019392D02*
X006459Y019195D01*
X006488Y019157D01*
X006459Y019392D02*
X005868Y019392D01*
X006459Y020179D02*
X006488Y020157D01*
X006459Y020179D02*
X006409Y020228D01*
X006409Y022000D01*
X000799Y022000D01*
X000793Y022029D01*
X001193Y022246D02*
X000799Y022640D01*
X000799Y022689D01*
X000793Y022699D01*
X000750Y023329D02*
X001195Y023329D01*
X001864Y023329D02*
X001882Y023329D01*
X001882Y022246D01*
X000750Y021301D02*
X000750Y021262D01*
X001094Y020917D01*
X001094Y020720D01*
X001193Y020622D01*
X000996Y020376D02*
X003014Y020376D01*
X004343Y021705D01*
X003211Y020228D02*
X003211Y019195D01*
X004047Y019195D01*
X004068Y019157D01*
X004047Y019638D02*
X003457Y019638D01*
X004047Y019638D02*
X004068Y019657D01*
X002866Y019884D02*
X000750Y019884D01*
X000750Y019923D01*
X000996Y020376D02*
X000750Y020622D01*
X000750Y020632D01*
X000750Y019254D02*
X000750Y019244D01*
X001193Y019244D01*
X000750Y017167D02*
X000750Y017128D01*
X001094Y016783D01*
X001094Y016586D01*
X001193Y016488D01*
X000996Y016242D02*
X000750Y016488D01*
X000750Y016498D01*
X000750Y015120D02*
X000750Y014667D01*
X001400Y014667D02*
X001439Y014667D01*
X002374Y015602D01*
X005967Y015602D01*
X005179Y016488D02*
X004096Y016488D01*
X004096Y016636D01*
X004068Y016657D01*
X004096Y017128D02*
X004068Y017157D01*
X004047Y017177D01*
X003506Y017177D01*
X003506Y018309D01*
X004068Y017657D02*
X004096Y017669D01*
X004687Y017669D01*
X005031Y017669D01*
X005179Y017128D02*
X004096Y017128D01*
X006459Y017620D02*
X006488Y017657D01*
X006459Y018653D02*
X006488Y018657D01*
X007000Y021754D02*
X006902Y021852D01*
X006902Y022098D01*
X006705Y022295D01*
X006677Y022315D01*
X007148Y022344D02*
X007177Y022315D01*
X007148Y022344D02*
X007148Y022836D01*
X006016Y022836D01*
X003801Y025051D01*
X003801Y025346D01*
X003604Y025543D01*
X003569Y025588D01*
X004047Y025149D02*
X004195Y025297D01*
X004195Y025543D01*
X004238Y025588D01*
X005622Y024608D02*
X007640Y022590D01*
X007640Y022344D01*
X007677Y022315D01*
X007049Y021754D02*
X007000Y021754D01*
X008673Y023329D02*
X008673Y024706D01*
X008677Y024735D01*
X008177Y024735D02*
X008132Y024706D01*
X008132Y024165D01*
X008083Y024116D01*
X007640Y024067D02*
X007640Y024706D01*
X007677Y024735D01*
X007394Y024953D02*
X007394Y025346D01*
X007394Y024953D02*
X007197Y024756D01*
X007177Y024735D01*
X006677Y024735D02*
X006656Y024706D01*
X006311Y024362D01*
X005622Y024608D02*
X005622Y027856D01*
X005573Y027905D01*
X005537Y027951D01*
X005868Y027561D02*
X006163Y027856D01*
X006163Y027905D01*
X006207Y027951D01*
X006902Y027955D02*
X006902Y027512D01*
X006902Y027955D02*
X006904Y027955D01*
X007573Y027955D02*
X007591Y027955D01*
X008033Y027512D01*
X008033Y025592D01*
X008427Y025199D01*
X009215Y023132D02*
X009215Y022344D01*
X009177Y022315D01*
X009657Y022344D02*
X009677Y022315D01*
X009657Y022344D02*
X009657Y022935D01*
X010199Y022492D02*
X010199Y022344D01*
X010177Y022315D01*
X010199Y022492D02*
X010543Y022492D01*
X011774Y023427D02*
X015415Y023427D01*
X015427Y023380D01*
X015858Y022935D02*
X016055Y023132D01*
X016055Y023378D01*
X016096Y023380D01*
X017285Y025691D02*
X017738Y025691D01*
X018407Y025691D02*
X018417Y025691D01*
X021272Y022836D01*
X022846Y022836D01*
X022846Y022344D01*
X022850Y022315D01*
X023339Y022344D02*
X023339Y023033D01*
X021813Y023033D01*
X020583Y024264D01*
X020583Y027856D01*
X020386Y028053D01*
X020376Y028053D01*
X019707Y028053D02*
X019697Y028053D01*
X019697Y027610D01*
X021075Y027610D02*
X021075Y028053D01*
X021085Y028053D01*
X021754Y028053D02*
X021764Y028053D01*
X022207Y027610D01*
X022207Y025592D01*
X022600Y025199D01*
X022600Y024264D01*
X023831Y023033D01*
X023831Y022344D01*
X023850Y022315D01*
X023350Y022315D02*
X023339Y022344D01*
X024077Y022935D02*
X024323Y022689D01*
X024323Y022344D01*
X024350Y022315D01*
X024520Y022836D02*
X024618Y022836D01*
X024618Y021705D01*
X021222Y021705D01*
X021075Y021852D01*
X021075Y022098D01*
X020878Y022295D01*
X020850Y022315D01*
X021813Y023378D02*
X021813Y024706D01*
X021850Y024735D01*
X021567Y024953D02*
X021567Y025199D01*
X021961Y025592D01*
X021567Y024953D02*
X021370Y024756D01*
X021350Y024735D01*
X022305Y024706D02*
X022350Y024735D01*
X022305Y024706D02*
X022305Y023279D01*
X023093Y024264D02*
X024520Y022836D01*
X024421Y023427D02*
X028112Y023427D01*
X028112Y020376D01*
X028141Y020354D01*
X028141Y019854D02*
X028112Y019834D01*
X027915Y019834D01*
X027645Y019564D01*
X027620Y019588D01*
X027620Y020425D01*
X026685Y021360D01*
X026094Y021705D02*
X026094Y020720D01*
X025750Y020376D01*
X025721Y020354D01*
X025701Y019884D02*
X025721Y019854D01*
X025701Y019884D02*
X025455Y019884D01*
X025159Y020179D01*
X025159Y020769D01*
X025848Y021458D01*
X026094Y021705D02*
X024618Y021705D01*
X024421Y023427D02*
X023585Y024264D01*
X023585Y024510D01*
X023388Y024706D01*
X023350Y024735D01*
X023093Y024510D02*
X023093Y024264D01*
X023093Y024510D02*
X022896Y024706D01*
X022850Y024735D01*
X022846Y024756D01*
X022846Y027364D01*
X022453Y027610D02*
X022453Y028053D01*
X022463Y028053D01*
X023132Y028053D02*
X023142Y028053D01*
X023142Y025346D01*
X023850Y024735D02*
X023880Y024756D01*
X024077Y024953D01*
X024077Y027659D01*
X024470Y028053D01*
X024510Y028053D01*
X025209Y028053D02*
X025209Y027610D01*
X025209Y028053D02*
X025219Y028053D01*
X025848Y028053D02*
X025888Y028053D01*
X025848Y028053D02*
X025848Y023673D01*
X024350Y024735D02*
X024323Y024756D01*
X024323Y025592D01*
X023831Y027610D02*
X023831Y028053D01*
X023841Y028053D01*
X026734Y025691D02*
X027187Y025691D01*
X027856Y025691D02*
X027866Y025691D01*
X028358Y025199D01*
X028358Y021754D01*
X028703Y021754D02*
X028703Y022049D01*
X029982Y023329D01*
X030022Y023329D01*
X030671Y023329D02*
X030671Y022876D01*
X030671Y022206D02*
X030671Y022197D01*
X029835Y022197D01*
X030228Y021508D02*
X030671Y021508D01*
X030671Y021498D01*
X030671Y020829D02*
X030671Y020819D01*
X029638Y020819D01*
X030228Y020130D02*
X030671Y020130D01*
X030671Y020120D01*
X030671Y019451D02*
X030671Y019441D01*
X028752Y019441D01*
X028506Y019342D02*
X028506Y019195D01*
X028998Y018703D01*
X028998Y018014D01*
X028752Y017768D01*
X028407Y017325D02*
X028161Y017325D01*
X028141Y017354D01*
X028407Y017325D02*
X028703Y017029D01*
X028703Y016734D01*
X030671Y016734D01*
X030671Y016695D01*
X030671Y015996D02*
X030228Y015996D01*
X030671Y015996D02*
X030671Y015986D01*
X030671Y015317D02*
X030671Y015307D01*
X027423Y015307D01*
X026439Y014667D02*
X029549Y014667D01*
X030219Y014667D02*
X030671Y014667D01*
X028309Y012305D02*
X027856Y012305D01*
X027187Y012305D02*
X026439Y012305D01*
X026439Y012551D01*
X025531Y012473D02*
X025504Y012453D01*
X025504Y012206D01*
X024963Y011665D01*
X024864Y011419D02*
X026193Y011419D01*
X026193Y016144D01*
X027866Y017817D01*
X028112Y017817D01*
X028141Y017854D01*
X028141Y018354D02*
X028161Y018358D01*
X028752Y018358D01*
X029244Y018063D02*
X030671Y018063D01*
X030671Y018073D01*
X030671Y017374D02*
X030228Y017374D01*
X030671Y017374D02*
X030671Y017364D01*
X030671Y018742D02*
X030671Y018752D01*
X030228Y018752D01*
X028506Y019342D02*
X028161Y019342D01*
X028141Y019354D01*
X028112Y018899D02*
X027374Y018899D01*
X027128Y019047D02*
X027645Y019564D01*
X027128Y019047D02*
X027128Y018210D01*
X027522Y017817D01*
X027472Y017817D01*
X025996Y016340D01*
X025996Y013880D01*
X024224Y013880D01*
X023880Y013535D01*
X023880Y012649D01*
X024028Y012502D01*
X024031Y012473D01*
X024077Y012502D01*
X024520Y012502D01*
X024531Y012473D01*
X025012Y012502D02*
X025031Y012473D01*
X025012Y012502D02*
X025012Y013437D01*
X024126Y013437D01*
X024864Y014126D02*
X021715Y014126D01*
X021715Y012059D01*
X021862Y011911D01*
X021862Y010090D01*
X020829Y009057D01*
X020829Y008368D01*
X020632Y008171D01*
X020594Y008142D01*
X020878Y007925D02*
X020878Y007531D01*
X021124Y007581D02*
X021124Y007433D01*
X020976Y007285D01*
X019844Y007285D01*
X019844Y008811D01*
X019894Y008860D01*
X019894Y009549D01*
X019106Y010336D01*
X019106Y010533D01*
X019094Y010562D01*
X018614Y010533D02*
X018614Y010336D01*
X019549Y009401D01*
X019648Y008958D02*
X019648Y008220D01*
X019598Y008171D01*
X019594Y008142D01*
X020091Y008122D02*
X020094Y008142D01*
X020091Y008171D01*
X020091Y009844D01*
X019844Y010090D01*
X019844Y012699D01*
X021173Y014027D01*
X021715Y014126D02*
X021715Y018555D01*
X021813Y018653D01*
X020927Y019195D02*
X017423Y019195D01*
X017423Y019864D02*
X017433Y019884D01*
X017433Y020573D01*
X017407Y020604D01*
X015415Y020573D02*
X015415Y019884D01*
X015407Y019856D01*
X015415Y020573D02*
X015407Y020604D01*
X012413Y020573D02*
X012413Y019884D01*
X012411Y019860D01*
X012413Y020573D02*
X012407Y020604D01*
X016392Y017348D02*
X016400Y017325D01*
X016400Y016636D01*
X016407Y016604D01*
X016892Y017079D02*
X016892Y015356D01*
X016990Y015258D01*
X016990Y014224D01*
X017033Y014210D01*
X016990Y014175D01*
X016449Y013634D01*
X016449Y012502D01*
X017187Y011764D01*
X017187Y008516D01*
X017482Y008023D02*
X017482Y010582D01*
X018073Y010582D02*
X018073Y011173D01*
X018073Y010582D02*
X018094Y010562D01*
X018594Y010562D02*
X018614Y010533D01*
X018073Y009746D02*
X018073Y008319D01*
X018094Y008142D01*
X018073Y008171D01*
X018073Y008319D01*
X017728Y008319D01*
X017482Y008023D02*
X018417Y007088D01*
X018417Y005710D01*
X018909Y005218D01*
X018919Y005218D01*
X019589Y005218D02*
X019598Y005218D01*
X019598Y005661D01*
X020297Y005218D02*
X020337Y005218D01*
X020730Y005612D01*
X020730Y007039D01*
X021124Y007581D02*
X022463Y007581D01*
X023132Y007581D02*
X023585Y007581D01*
X021616Y008171D02*
X021594Y008142D01*
X021616Y008171D02*
X024864Y011419D01*
X024274Y010484D02*
X024815Y009943D01*
X024825Y009943D01*
X025494Y009943D02*
X025947Y009943D01*
X023781Y011173D02*
X023781Y012206D01*
X023535Y012453D01*
X023531Y012473D01*
X023031Y012473D02*
X022994Y012502D01*
X022994Y013338D01*
X022256Y013338D01*
X022010Y013092D01*
X022354Y013092D02*
X022502Y012945D01*
X022502Y012502D01*
X022531Y012473D01*
X021419Y012256D02*
X020632Y011468D01*
X020632Y010582D01*
X020594Y010562D01*
X020140Y010582D02*
X020094Y010562D01*
X020140Y010582D02*
X020140Y011173D01*
X020386Y011419D01*
X019598Y011173D02*
X019598Y010582D01*
X019594Y010562D01*
X021094Y010562D02*
X021124Y010582D01*
X021124Y011518D01*
X021518Y011911D01*
X021594Y010562D02*
X021567Y010533D01*
X021370Y010336D01*
X021370Y009943D01*
X021094Y008142D02*
X021075Y008122D01*
X020878Y007925D01*
X020091Y008122D02*
X020091Y007531D01*
X019094Y008142D02*
X019057Y008122D01*
X019057Y006941D01*
X018663Y006547D01*
X017925Y007138D02*
X017925Y005563D01*
X017581Y005218D01*
X017541Y005218D01*
X018171Y005218D02*
X018211Y005218D01*
X018171Y005218D02*
X018171Y005661D01*
X016744Y005169D02*
X016744Y004775D01*
X016744Y005169D02*
X016711Y005206D01*
X016041Y005206D02*
X016006Y005218D01*
X015907Y005317D01*
X015907Y009500D01*
X016744Y009943D02*
X016744Y011813D01*
X017728Y009844D02*
X017728Y014175D01*
X017925Y014372D01*
X017927Y014380D01*
X017927Y015049D02*
X017974Y015061D01*
X019008Y015061D01*
X019033Y015057D01*
X019451Y015356D02*
X019451Y016586D01*
X019407Y016604D01*
X019598Y017079D02*
X016892Y017079D01*
X017407Y016604D02*
X017433Y016586D01*
X017433Y015061D01*
X017407Y015037D01*
X016659Y015037D02*
X016646Y015061D01*
X015415Y015061D01*
X015411Y015045D01*
X019451Y015356D02*
X019746Y015061D01*
X019781Y015057D01*
X020091Y014273D02*
X019451Y014273D01*
X019407Y014230D01*
X020091Y014273D02*
X020091Y016586D01*
X019598Y017079D01*
X024569Y015553D02*
X025012Y015553D01*
X025012Y014913D01*
X025031Y014893D01*
X025721Y016854D02*
X025750Y016882D01*
X025750Y017079D01*
X026390Y017079D01*
X025947Y017374D02*
X025750Y017374D01*
X025721Y017354D01*
X025947Y017374D02*
X026488Y017915D01*
X026341Y018260D02*
X025947Y017866D01*
X025750Y017866D01*
X025721Y017854D01*
X025721Y018354D02*
X025750Y018358D01*
X025996Y018358D01*
X026783Y019145D01*
X026242Y019145D02*
X025996Y018899D01*
X025750Y018899D01*
X025721Y018854D01*
X025721Y019354D02*
X025750Y019392D01*
X025996Y019392D01*
X026980Y020376D01*
X027325Y020376D02*
X026242Y019293D01*
X026242Y019145D01*
X028112Y018899D02*
X028141Y018854D01*
X027522Y017128D02*
X027522Y016882D01*
X028112Y016882D01*
X028141Y016854D01*
X028900Y023329D02*
X029352Y023329D01*
X014185Y008466D02*
X014111Y008540D01*
X014185Y008466D02*
X014185Y008171D01*
X014205Y008142D01*
X014705Y008142D02*
X014726Y008122D01*
X014726Y006547D01*
X013890Y005661D02*
X013890Y005218D01*
X013880Y005218D01*
X013211Y005218D02*
X013201Y005218D01*
X013053Y005366D01*
X013053Y007581D01*
X012955Y007679D01*
X012955Y008663D01*
X013152Y008860D01*
X012205Y008142D02*
X012167Y008171D01*
X011970Y008368D01*
X011970Y009697D01*
X011675Y010238D02*
X011675Y010533D01*
X011705Y010562D01*
X011675Y010238D02*
X010986Y009549D01*
X010986Y009894D02*
X011183Y010090D01*
X011183Y010533D01*
X011205Y010562D01*
X010740Y010829D02*
X011035Y011124D01*
X012167Y011124D01*
X012167Y010582D01*
X012205Y010562D01*
X010740Y010829D02*
X010740Y005464D01*
X010494Y005218D01*
X010455Y005218D01*
X011124Y005218D02*
X011134Y005218D01*
X011134Y005661D01*
X011478Y006645D02*
X012758Y006645D01*
X012758Y005563D01*
X012856Y005464D01*
X012856Y004283D01*
X011183Y007384D02*
X011675Y007876D01*
X011675Y008122D01*
X011705Y008142D01*
X011429Y008368D02*
X011429Y008614D01*
X011724Y008909D01*
X011429Y008368D02*
X011232Y008171D01*
X011205Y008142D01*
X010297Y009549D02*
X008329Y007581D01*
X008289Y007581D01*
X008959Y007581D02*
X009411Y007581D01*
X007049Y009943D02*
X006596Y009943D01*
X006311Y010287D02*
X010445Y010287D01*
X007098Y012010D02*
X007080Y011990D01*
X007098Y012010D02*
X007098Y012502D01*
X007069Y012541D01*
X006311Y010287D02*
X005967Y009943D01*
X005927Y009943D01*
X002522Y014519D02*
X002079Y014519D01*
X002079Y014667D01*
X002069Y014667D01*
X008280Y027561D02*
X008280Y027955D01*
X008274Y027962D01*
X008943Y027962D02*
X008969Y027955D01*
X009411Y027512D01*
X018594Y008142D02*
X018565Y008122D01*
X018565Y007777D01*
X018319Y007531D01*
X020976Y005661D02*
X020976Y005218D01*
X020967Y005218D01*
D22*
X020976Y005661D03*
X019598Y005661D03*
X018663Y006547D03*
X017925Y007138D03*
X018319Y007531D03*
X017728Y008319D03*
X016744Y008516D03*
X016744Y008909D03*
X015907Y009500D03*
X015169Y009844D03*
X015071Y010287D03*
X015415Y010336D03*
X014825Y009500D03*
X014333Y008762D03*
X013398Y009254D03*
X012906Y009943D03*
X011970Y009697D03*
X011724Y008909D03*
X010986Y009549D03*
X010986Y009894D03*
X010445Y010287D03*
X010297Y009549D03*
X009411Y007581D03*
X011183Y007384D03*
X011478Y006645D03*
X011134Y005661D03*
X012512Y004775D03*
X013890Y005661D03*
X014726Y006547D03*
X014185Y007039D03*
X013939Y006793D03*
X015120Y005661D03*
X015465Y005661D03*
X015268Y004775D03*
X016744Y004775D03*
X018171Y005661D03*
X020091Y007531D03*
X020730Y007039D03*
X020878Y007531D03*
X019648Y008958D03*
X019549Y009401D03*
X018073Y009746D03*
X017728Y009844D03*
X017482Y010582D03*
X018073Y011173D03*
X016744Y011813D03*
X016449Y012502D03*
X015711Y011370D03*
X015169Y011271D03*
X016744Y009943D03*
X019598Y011173D03*
X020386Y011419D03*
X021518Y011911D03*
X021419Y012256D03*
X022010Y013092D03*
X022354Y013092D03*
X021173Y014027D03*
X022157Y015504D03*
X023634Y015504D03*
X024569Y015553D03*
X024864Y014126D03*
X024126Y013437D03*
X024963Y011665D03*
X023781Y011173D03*
X024274Y010484D03*
X025947Y009943D03*
X028309Y012305D03*
X026439Y012551D03*
X026439Y014667D03*
X027423Y015307D03*
X027522Y017128D03*
X027522Y017817D03*
X026488Y017915D03*
X026341Y018260D03*
X026783Y019145D03*
X027374Y018899D03*
X028752Y018358D03*
X029244Y018063D03*
X028752Y017768D03*
X030228Y017374D03*
X030228Y018752D03*
X030228Y020130D03*
X029638Y020819D03*
X030228Y021508D03*
X029835Y022197D03*
X028703Y021754D03*
X028358Y021754D03*
X028900Y023329D03*
X030671Y023329D03*
X027325Y020376D03*
X026980Y020376D03*
X026685Y021360D03*
X025848Y021458D03*
X024077Y022935D03*
X022305Y023279D03*
X021813Y023378D03*
X023142Y025346D03*
X024323Y025592D03*
X025848Y023673D03*
X026734Y025691D03*
X025209Y027610D03*
X023831Y027610D03*
X022846Y027364D03*
X022453Y027610D03*
X021075Y027610D03*
X019697Y027610D03*
X021961Y025592D03*
X017285Y025691D03*
X015858Y022935D03*
X012561Y025691D03*
X011528Y027561D03*
X009657Y027561D03*
X008280Y027561D03*
X006902Y027512D03*
X005868Y027561D03*
X007394Y025346D03*
X006311Y024362D03*
X007640Y024067D03*
X008083Y024116D03*
X008772Y023033D03*
X009215Y023132D03*
X009657Y022935D03*
X010543Y022492D03*
X010888Y022836D03*
X010740Y023427D03*
X010593Y024264D03*
X010297Y025346D03*
X009805Y025346D03*
X009411Y026084D03*
X011774Y023427D03*
X011921Y019293D03*
X014972Y019145D03*
X015957Y017964D03*
X020927Y019195D03*
X021813Y018653D03*
X026390Y017079D03*
X028752Y019441D03*
X030228Y015996D03*
X030671Y014667D03*
X023585Y007581D03*
X021370Y009943D03*
X009165Y013191D03*
X006951Y013043D03*
X006459Y013043D03*
X005917Y012649D03*
X004687Y012305D03*
X002522Y014519D03*
X000750Y014667D03*
X001193Y016488D03*
X001144Y018210D03*
X001488Y018703D03*
X001193Y019244D03*
X001193Y020622D03*
X001193Y022246D03*
X001882Y022246D03*
X000750Y023329D03*
X004047Y025149D03*
X005031Y021458D03*
X004785Y020819D03*
X004392Y021163D03*
X003211Y020228D03*
X002866Y019884D03*
X003457Y019638D03*
X003260Y017915D03*
X004687Y017669D03*
X005179Y017128D03*
X005179Y016488D03*
X005524Y017915D03*
X005868Y019392D03*
X006705Y015602D03*
X007049Y009943D03*
M02*
