G75*
%MOIN*%
%OFA0B0*%
%FSLAX24Y24*%
%IPPOS*%
%LPD*%
%AMOC8*
5,1,8,0,0,1.08239X$1,22.5*
%
%ADD10C,0.0000*%
%ADD11C,0.0142*%
%ADD12C,0.0257*%
%ADD13R,0.0604X0.1376*%
%ADD14R,0.0513X0.0474*%
%ADD15R,0.0580X0.0300*%
%ADD16R,0.0300X0.0580*%
%ADD17C,0.0820*%
%ADD18R,0.0986X0.0710*%
%ADD19C,0.0780*%
%ADD20C,0.0320*%
D10*
X007443Y007187D02*
X007443Y009549D01*
X005081Y009549D01*
X005081Y011911D01*
X002719Y011911D01*
X002719Y014273D01*
X000356Y014273D01*
X000356Y023722D01*
X002719Y023722D01*
X002719Y026084D01*
X005081Y026084D01*
X005081Y028447D01*
X012167Y028447D01*
X012167Y026084D01*
X014530Y026084D01*
X014530Y023722D01*
X016892Y023722D01*
X016892Y026084D01*
X019254Y026084D01*
X019254Y028447D01*
X026341Y028447D01*
X026341Y026084D01*
X028703Y026084D01*
X028703Y023722D01*
X031065Y023722D01*
X031065Y014273D01*
X028703Y014273D01*
X028703Y011911D01*
X026341Y011911D01*
X026341Y009549D01*
X023978Y009549D01*
X023978Y007187D01*
X021616Y007187D01*
X021616Y004825D01*
X019254Y004825D01*
X019254Y002462D01*
X016892Y002462D01*
X016892Y000100D01*
X014530Y000100D01*
X014530Y002462D01*
X012167Y002462D01*
X012167Y004825D01*
X009805Y004825D01*
X009805Y007187D01*
X007443Y007187D01*
D11*
X008445Y007415D02*
X008445Y007747D01*
X008445Y007415D02*
X008113Y007415D01*
X008113Y007747D01*
X008445Y007747D01*
X008445Y007556D02*
X008113Y007556D01*
X008113Y007697D02*
X008445Y007697D01*
X009135Y007747D02*
X009135Y007415D01*
X008803Y007415D01*
X008803Y007747D01*
X009135Y007747D01*
X009135Y007556D02*
X008803Y007556D01*
X008803Y007697D02*
X009135Y007697D01*
X010610Y005384D02*
X010610Y005052D01*
X010278Y005052D01*
X010278Y005384D01*
X010610Y005384D01*
X010610Y005193D02*
X010278Y005193D01*
X010278Y005334D02*
X010610Y005334D01*
X011301Y005384D02*
X011301Y005052D01*
X010969Y005052D01*
X010969Y005384D01*
X011301Y005384D01*
X011301Y005193D02*
X010969Y005193D01*
X010969Y005334D02*
X011301Y005334D01*
X011988Y005384D02*
X011988Y005052D01*
X011656Y005052D01*
X011656Y005384D01*
X011988Y005384D01*
X011988Y005193D02*
X011656Y005193D01*
X011656Y005334D02*
X011988Y005334D01*
X012679Y005384D02*
X012679Y005052D01*
X012347Y005052D01*
X012347Y005384D01*
X012679Y005384D01*
X012679Y005193D02*
X012347Y005193D01*
X012347Y005334D02*
X012679Y005334D01*
X013366Y005384D02*
X013366Y005052D01*
X013034Y005052D01*
X013034Y005384D01*
X013366Y005384D01*
X013366Y005193D02*
X013034Y005193D01*
X013034Y005334D02*
X013366Y005334D01*
X014057Y005384D02*
X014057Y005052D01*
X013725Y005052D01*
X013725Y005384D01*
X014057Y005384D01*
X014057Y005193D02*
X013725Y005193D01*
X013725Y005334D02*
X014057Y005334D01*
X014779Y005384D02*
X014779Y005052D01*
X014447Y005052D01*
X014447Y005384D01*
X014779Y005384D01*
X014779Y005193D02*
X014447Y005193D01*
X014447Y005334D02*
X014779Y005334D01*
X015470Y005384D02*
X015470Y005052D01*
X015138Y005052D01*
X015138Y005384D01*
X015470Y005384D01*
X015470Y005193D02*
X015138Y005193D01*
X015138Y005334D02*
X015470Y005334D01*
X016216Y005384D02*
X016216Y005052D01*
X015884Y005052D01*
X015884Y005384D01*
X016216Y005384D01*
X016216Y005193D02*
X015884Y005193D01*
X015884Y005334D02*
X016216Y005334D01*
X016907Y005384D02*
X016907Y005052D01*
X016575Y005052D01*
X016575Y005384D01*
X016907Y005384D01*
X016907Y005193D02*
X016575Y005193D01*
X016575Y005334D02*
X016907Y005334D01*
X017697Y005384D02*
X017697Y005052D01*
X017365Y005052D01*
X017365Y005384D01*
X017697Y005384D01*
X017697Y005193D02*
X017365Y005193D01*
X017365Y005334D02*
X017697Y005334D01*
X018387Y005384D02*
X018387Y005052D01*
X018055Y005052D01*
X018055Y005384D01*
X018387Y005384D01*
X018387Y005193D02*
X018055Y005193D01*
X018055Y005334D02*
X018387Y005334D01*
X019075Y005384D02*
X019075Y005052D01*
X018743Y005052D01*
X018743Y005384D01*
X019075Y005384D01*
X019075Y005193D02*
X018743Y005193D01*
X018743Y005334D02*
X019075Y005334D01*
X019765Y005384D02*
X019765Y005052D01*
X019433Y005052D01*
X019433Y005384D01*
X019765Y005384D01*
X019765Y005193D02*
X019433Y005193D01*
X019433Y005334D02*
X019765Y005334D01*
X020453Y005384D02*
X020453Y005052D01*
X020121Y005052D01*
X020121Y005384D01*
X020453Y005384D01*
X020453Y005193D02*
X020121Y005193D01*
X020121Y005334D02*
X020453Y005334D01*
X021143Y005384D02*
X021143Y005052D01*
X020811Y005052D01*
X020811Y005384D01*
X021143Y005384D01*
X021143Y005193D02*
X020811Y005193D01*
X020811Y005334D02*
X021143Y005334D01*
X022618Y007415D02*
X022618Y007747D01*
X022618Y007415D02*
X022286Y007415D01*
X022286Y007747D01*
X022618Y007747D01*
X022618Y007556D02*
X022286Y007556D01*
X022286Y007697D02*
X022618Y007697D01*
X023309Y007747D02*
X023309Y007415D01*
X022977Y007415D01*
X022977Y007747D01*
X023309Y007747D01*
X023309Y007556D02*
X022977Y007556D01*
X022977Y007697D02*
X023309Y007697D01*
X024980Y009777D02*
X024980Y010109D01*
X024980Y009777D02*
X024648Y009777D01*
X024648Y010109D01*
X024980Y010109D01*
X024980Y009918D02*
X024648Y009918D01*
X024648Y010059D02*
X024980Y010059D01*
X025671Y010109D02*
X025671Y009777D01*
X025339Y009777D01*
X025339Y010109D01*
X025671Y010109D01*
X025671Y009918D02*
X025339Y009918D01*
X025339Y010059D02*
X025671Y010059D01*
X027342Y012139D02*
X027342Y012471D01*
X027342Y012139D02*
X027010Y012139D01*
X027010Y012471D01*
X027342Y012471D01*
X027342Y012280D02*
X027010Y012280D01*
X027010Y012421D02*
X027342Y012421D01*
X028033Y012471D02*
X028033Y012139D01*
X027701Y012139D01*
X027701Y012471D01*
X028033Y012471D01*
X028033Y012280D02*
X027701Y012280D01*
X027701Y012421D02*
X028033Y012421D01*
X029705Y014501D02*
X029705Y014833D01*
X029705Y014501D02*
X029373Y014501D01*
X029373Y014833D01*
X029705Y014833D01*
X029705Y014642D02*
X029373Y014642D01*
X029373Y014783D02*
X029705Y014783D01*
X030395Y014833D02*
X030395Y014501D01*
X030063Y014501D01*
X030063Y014833D01*
X030395Y014833D01*
X030395Y014642D02*
X030063Y014642D01*
X030063Y014783D02*
X030395Y014783D01*
X030505Y015472D02*
X030837Y015472D01*
X030837Y015140D01*
X030505Y015140D01*
X030505Y015472D01*
X030505Y015281D02*
X030837Y015281D01*
X030837Y015422D02*
X030505Y015422D01*
X030505Y016163D02*
X030837Y016163D01*
X030837Y015831D01*
X030505Y015831D01*
X030505Y016163D01*
X030505Y015972D02*
X030837Y015972D01*
X030837Y016113D02*
X030505Y016113D01*
X030505Y016850D02*
X030837Y016850D01*
X030837Y016518D01*
X030505Y016518D01*
X030505Y016850D01*
X030505Y016659D02*
X030837Y016659D01*
X030837Y016800D02*
X030505Y016800D01*
X030505Y017541D02*
X030837Y017541D01*
X030837Y017209D01*
X030505Y017209D01*
X030505Y017541D01*
X030505Y017350D02*
X030837Y017350D01*
X030837Y017491D02*
X030505Y017491D01*
X030505Y018228D02*
X030837Y018228D01*
X030837Y017896D01*
X030505Y017896D01*
X030505Y018228D01*
X030505Y018037D02*
X030837Y018037D01*
X030837Y018178D02*
X030505Y018178D01*
X030505Y018919D02*
X030837Y018919D01*
X030837Y018587D01*
X030505Y018587D01*
X030505Y018919D01*
X030505Y018728D02*
X030837Y018728D01*
X030837Y018869D02*
X030505Y018869D01*
X030505Y019606D02*
X030837Y019606D01*
X030837Y019274D01*
X030505Y019274D01*
X030505Y019606D01*
X030505Y019415D02*
X030837Y019415D01*
X030837Y019556D02*
X030505Y019556D01*
X030505Y020297D02*
X030837Y020297D01*
X030837Y019965D01*
X030505Y019965D01*
X030505Y020297D01*
X030505Y020106D02*
X030837Y020106D01*
X030837Y020247D02*
X030505Y020247D01*
X030505Y020984D02*
X030837Y020984D01*
X030837Y020652D01*
X030505Y020652D01*
X030505Y020984D01*
X030505Y020793D02*
X030837Y020793D01*
X030837Y020934D02*
X030505Y020934D01*
X030505Y021674D02*
X030837Y021674D01*
X030837Y021342D01*
X030505Y021342D01*
X030505Y021674D01*
X030505Y021483D02*
X030837Y021483D01*
X030837Y021624D02*
X030505Y021624D01*
X030505Y022362D02*
X030837Y022362D01*
X030837Y022030D01*
X030505Y022030D01*
X030505Y022362D01*
X030505Y022171D02*
X030837Y022171D01*
X030837Y022312D02*
X030505Y022312D01*
X030505Y023052D02*
X030837Y023052D01*
X030837Y022720D01*
X030505Y022720D01*
X030505Y023052D01*
X030505Y022861D02*
X030837Y022861D01*
X030837Y023002D02*
X030505Y023002D01*
X029866Y023163D02*
X029866Y023495D01*
X030198Y023495D01*
X030198Y023163D01*
X029866Y023163D01*
X029866Y023304D02*
X030198Y023304D01*
X030198Y023445D02*
X029866Y023445D01*
X029176Y023495D02*
X029176Y023163D01*
X029176Y023495D02*
X029508Y023495D01*
X029508Y023163D01*
X029176Y023163D01*
X029176Y023304D02*
X029508Y023304D01*
X029508Y023445D02*
X029176Y023445D01*
X027701Y025525D02*
X027701Y025857D01*
X028033Y025857D01*
X028033Y025525D01*
X027701Y025525D01*
X027701Y025666D02*
X028033Y025666D01*
X028033Y025807D02*
X027701Y025807D01*
X027010Y025857D02*
X027010Y025525D01*
X027010Y025857D02*
X027342Y025857D01*
X027342Y025525D01*
X027010Y025525D01*
X027010Y025666D02*
X027342Y025666D01*
X027342Y025807D02*
X027010Y025807D01*
X025732Y027887D02*
X025732Y028219D01*
X026064Y028219D01*
X026064Y027887D01*
X025732Y027887D01*
X025732Y028028D02*
X026064Y028028D01*
X026064Y028169D02*
X025732Y028169D01*
X025042Y028219D02*
X025042Y027887D01*
X025042Y028219D02*
X025374Y028219D01*
X025374Y027887D01*
X025042Y027887D01*
X025042Y028028D02*
X025374Y028028D01*
X025374Y028169D02*
X025042Y028169D01*
X024354Y028219D02*
X024354Y027887D01*
X024354Y028219D02*
X024686Y028219D01*
X024686Y027887D01*
X024354Y027887D01*
X024354Y028028D02*
X024686Y028028D01*
X024686Y028169D02*
X024354Y028169D01*
X023664Y028219D02*
X023664Y027887D01*
X023664Y028219D02*
X023996Y028219D01*
X023996Y027887D01*
X023664Y027887D01*
X023664Y028028D02*
X023996Y028028D01*
X023996Y028169D02*
X023664Y028169D01*
X022977Y028219D02*
X022977Y027887D01*
X022977Y028219D02*
X023309Y028219D01*
X023309Y027887D01*
X022977Y027887D01*
X022977Y028028D02*
X023309Y028028D01*
X023309Y028169D02*
X022977Y028169D01*
X022286Y028219D02*
X022286Y027887D01*
X022286Y028219D02*
X022618Y028219D01*
X022618Y027887D01*
X022286Y027887D01*
X022286Y028028D02*
X022618Y028028D01*
X022618Y028169D02*
X022286Y028169D01*
X021599Y028219D02*
X021599Y027887D01*
X021599Y028219D02*
X021931Y028219D01*
X021931Y027887D01*
X021599Y027887D01*
X021599Y028028D02*
X021931Y028028D01*
X021931Y028169D02*
X021599Y028169D01*
X020908Y028219D02*
X020908Y027887D01*
X020908Y028219D02*
X021240Y028219D01*
X021240Y027887D01*
X020908Y027887D01*
X020908Y028028D02*
X021240Y028028D01*
X021240Y028169D02*
X020908Y028169D01*
X020221Y028219D02*
X020221Y027887D01*
X020221Y028219D02*
X020553Y028219D01*
X020553Y027887D01*
X020221Y027887D01*
X020221Y028028D02*
X020553Y028028D01*
X020553Y028169D02*
X020221Y028169D01*
X019530Y028219D02*
X019530Y027887D01*
X019530Y028219D02*
X019862Y028219D01*
X019862Y027887D01*
X019530Y027887D01*
X019530Y028028D02*
X019862Y028028D01*
X019862Y028169D02*
X019530Y028169D01*
X018252Y025857D02*
X018252Y025525D01*
X018252Y025857D02*
X018584Y025857D01*
X018584Y025525D01*
X018252Y025525D01*
X018252Y025666D02*
X018584Y025666D01*
X018584Y025807D02*
X018252Y025807D01*
X017562Y025857D02*
X017562Y025525D01*
X017562Y025857D02*
X017894Y025857D01*
X017894Y025525D01*
X017562Y025525D01*
X017562Y025666D02*
X017894Y025666D01*
X017894Y025807D02*
X017562Y025807D01*
X015929Y023573D02*
X015929Y023241D01*
X015929Y023573D02*
X016261Y023573D01*
X016261Y023241D01*
X015929Y023241D01*
X015929Y023382D02*
X016261Y023382D01*
X016261Y023523D02*
X015929Y023523D01*
X015239Y023573D02*
X015239Y023241D01*
X015239Y023573D02*
X015571Y023573D01*
X015571Y023241D01*
X015239Y023241D01*
X015239Y023382D02*
X015571Y023382D01*
X015571Y023523D02*
X015239Y023523D01*
X013528Y025525D02*
X013528Y025857D01*
X013860Y025857D01*
X013860Y025525D01*
X013528Y025525D01*
X013528Y025666D02*
X013860Y025666D01*
X013860Y025807D02*
X013528Y025807D01*
X012837Y025857D02*
X012837Y025525D01*
X012837Y025857D02*
X013169Y025857D01*
X013169Y025525D01*
X012837Y025525D01*
X012837Y025666D02*
X013169Y025666D01*
X013169Y025807D02*
X012837Y025807D01*
X011559Y027887D02*
X011559Y028219D01*
X011891Y028219D01*
X011891Y027887D01*
X011559Y027887D01*
X011559Y028028D02*
X011891Y028028D01*
X011891Y028169D02*
X011559Y028169D01*
X010869Y028219D02*
X010869Y027887D01*
X010869Y028219D02*
X011201Y028219D01*
X011201Y027887D01*
X010869Y027887D01*
X010869Y028028D02*
X011201Y028028D01*
X011201Y028169D02*
X010869Y028169D01*
X010181Y028219D02*
X010181Y027887D01*
X010181Y028219D02*
X010513Y028219D01*
X010513Y027887D01*
X010181Y027887D01*
X010181Y028028D02*
X010513Y028028D01*
X010513Y028169D02*
X010181Y028169D01*
X009491Y028219D02*
X009491Y027887D01*
X009491Y028219D02*
X009823Y028219D01*
X009823Y027887D01*
X009491Y027887D01*
X009491Y028028D02*
X009823Y028028D01*
X009823Y028169D02*
X009491Y028169D01*
X008803Y028219D02*
X008803Y027887D01*
X008803Y028219D02*
X009135Y028219D01*
X009135Y027887D01*
X008803Y027887D01*
X008803Y028028D02*
X009135Y028028D01*
X009135Y028169D02*
X008803Y028169D01*
X008113Y028219D02*
X008113Y027887D01*
X008113Y028219D02*
X008445Y028219D01*
X008445Y027887D01*
X008113Y027887D01*
X008113Y028028D02*
X008445Y028028D01*
X008445Y028169D02*
X008113Y028169D01*
X007425Y028219D02*
X007425Y027887D01*
X007425Y028219D02*
X007757Y028219D01*
X007757Y027887D01*
X007425Y027887D01*
X007425Y028028D02*
X007757Y028028D01*
X007757Y028169D02*
X007425Y028169D01*
X006735Y028219D02*
X006735Y027887D01*
X006735Y028219D02*
X007067Y028219D01*
X007067Y027887D01*
X006735Y027887D01*
X006735Y028028D02*
X007067Y028028D01*
X007067Y028169D02*
X006735Y028169D01*
X006047Y028219D02*
X006047Y027887D01*
X006047Y028219D02*
X006379Y028219D01*
X006379Y027887D01*
X006047Y027887D01*
X006047Y028028D02*
X006379Y028028D01*
X006379Y028169D02*
X006047Y028169D01*
X005357Y028219D02*
X005357Y027887D01*
X005357Y028219D02*
X005689Y028219D01*
X005689Y027887D01*
X005357Y027887D01*
X005357Y028028D02*
X005689Y028028D01*
X005689Y028169D02*
X005357Y028169D01*
X004079Y025857D02*
X004079Y025525D01*
X004079Y025857D02*
X004411Y025857D01*
X004411Y025525D01*
X004079Y025525D01*
X004079Y025666D02*
X004411Y025666D01*
X004411Y025807D02*
X004079Y025807D01*
X003388Y025857D02*
X003388Y025525D01*
X003388Y025857D02*
X003720Y025857D01*
X003720Y025525D01*
X003388Y025525D01*
X003388Y025666D02*
X003720Y025666D01*
X003720Y025807D02*
X003388Y025807D01*
X001717Y023495D02*
X001717Y023163D01*
X001717Y023495D02*
X002049Y023495D01*
X002049Y023163D01*
X001717Y023163D01*
X001717Y023304D02*
X002049Y023304D01*
X002049Y023445D02*
X001717Y023445D01*
X001026Y023495D02*
X001026Y023163D01*
X001026Y023495D02*
X001358Y023495D01*
X001358Y023163D01*
X001026Y023163D01*
X001026Y023304D02*
X001358Y023304D01*
X001358Y023445D02*
X001026Y023445D01*
X000916Y022524D02*
X000584Y022524D01*
X000584Y022856D01*
X000916Y022856D01*
X000916Y022524D01*
X000916Y022665D02*
X000584Y022665D01*
X000584Y022806D02*
X000916Y022806D01*
X000916Y021833D02*
X000584Y021833D01*
X000584Y022165D01*
X000916Y022165D01*
X000916Y021833D01*
X000916Y021974D02*
X000584Y021974D01*
X000584Y022115D02*
X000916Y022115D01*
X000916Y021146D02*
X000584Y021146D01*
X000584Y021478D01*
X000916Y021478D01*
X000916Y021146D01*
X000916Y021287D02*
X000584Y021287D01*
X000584Y021428D02*
X000916Y021428D01*
X000916Y020455D02*
X000584Y020455D01*
X000584Y020787D01*
X000916Y020787D01*
X000916Y020455D01*
X000916Y020596D02*
X000584Y020596D01*
X000584Y020737D02*
X000916Y020737D01*
X000916Y019768D02*
X000584Y019768D01*
X000584Y020100D01*
X000916Y020100D01*
X000916Y019768D01*
X000916Y019909D02*
X000584Y019909D01*
X000584Y020050D02*
X000916Y020050D01*
X000916Y019077D02*
X000584Y019077D01*
X000584Y019409D01*
X000916Y019409D01*
X000916Y019077D01*
X000916Y019218D02*
X000584Y019218D01*
X000584Y019359D02*
X000916Y019359D01*
X000916Y018390D02*
X000584Y018390D01*
X000584Y018722D01*
X000916Y018722D01*
X000916Y018390D01*
X000916Y018531D02*
X000584Y018531D01*
X000584Y018672D02*
X000916Y018672D01*
X000916Y017699D02*
X000584Y017699D01*
X000584Y018031D01*
X000916Y018031D01*
X000916Y017699D01*
X000916Y017840D02*
X000584Y017840D01*
X000584Y017981D02*
X000916Y017981D01*
X000916Y017012D02*
X000584Y017012D01*
X000584Y017344D01*
X000916Y017344D01*
X000916Y017012D01*
X000916Y017153D02*
X000584Y017153D01*
X000584Y017294D02*
X000916Y017294D01*
X000916Y016321D02*
X000584Y016321D01*
X000584Y016653D01*
X000916Y016653D01*
X000916Y016321D01*
X000916Y016462D02*
X000584Y016462D01*
X000584Y016603D02*
X000916Y016603D01*
X000916Y015634D02*
X000584Y015634D01*
X000584Y015966D01*
X000916Y015966D01*
X000916Y015634D01*
X000916Y015775D02*
X000584Y015775D01*
X000584Y015916D02*
X000916Y015916D01*
X000916Y014943D02*
X000584Y014943D01*
X000584Y015275D01*
X000916Y015275D01*
X000916Y014943D01*
X000916Y015084D02*
X000584Y015084D01*
X000584Y015225D02*
X000916Y015225D01*
X001358Y014833D02*
X001358Y014501D01*
X001026Y014501D01*
X001026Y014833D01*
X001358Y014833D01*
X001358Y014642D02*
X001026Y014642D01*
X001026Y014783D02*
X001358Y014783D01*
X002049Y014833D02*
X002049Y014501D01*
X001717Y014501D01*
X001717Y014833D01*
X002049Y014833D01*
X002049Y014642D02*
X001717Y014642D01*
X001717Y014783D02*
X002049Y014783D01*
X003720Y012471D02*
X003720Y012139D01*
X003388Y012139D01*
X003388Y012471D01*
X003720Y012471D01*
X003720Y012280D02*
X003388Y012280D01*
X003388Y012421D02*
X003720Y012421D01*
X004411Y012471D02*
X004411Y012139D01*
X004079Y012139D01*
X004079Y012471D01*
X004411Y012471D01*
X004411Y012280D02*
X004079Y012280D01*
X004079Y012421D02*
X004411Y012421D01*
X006083Y010109D02*
X006083Y009777D01*
X005751Y009777D01*
X005751Y010109D01*
X006083Y010109D01*
X006083Y009918D02*
X005751Y009918D01*
X005751Y010059D02*
X006083Y010059D01*
X006773Y010109D02*
X006773Y009777D01*
X006441Y009777D01*
X006441Y010109D01*
X006773Y010109D01*
X006773Y009918D02*
X006441Y009918D01*
X006441Y010059D02*
X006773Y010059D01*
D12*
X012274Y008644D02*
X012274Y008644D01*
X012848Y008644D01*
X012848Y008644D01*
X012274Y008644D01*
X012274Y008171D02*
X012274Y008171D01*
X012848Y008171D01*
X012848Y008171D01*
X012274Y008171D01*
X012274Y007699D02*
X012274Y007699D01*
X012848Y007699D01*
X012848Y007699D01*
X012274Y007699D01*
D13*
X012560Y008172D03*
D14*
X015179Y011911D03*
X015848Y011911D03*
X015848Y012699D03*
X015179Y012699D03*
X018526Y009746D03*
X018526Y008958D03*
X019195Y008958D03*
X019195Y009746D03*
D15*
X017243Y009903D03*
X017243Y009588D03*
X017243Y009273D03*
X017243Y008958D03*
X017243Y008644D03*
X017243Y008329D03*
X017243Y008014D03*
X017243Y010218D03*
X013863Y010218D03*
X013863Y009903D03*
X013863Y009588D03*
X013863Y009273D03*
X013863Y008958D03*
X013863Y008644D03*
X013863Y008329D03*
X013863Y008014D03*
D16*
X014451Y007426D03*
X014766Y007426D03*
X015081Y007426D03*
X015396Y007426D03*
X015711Y007426D03*
X016026Y007426D03*
X016341Y007426D03*
X016656Y007426D03*
X016656Y010806D03*
X016341Y010806D03*
X016026Y010806D03*
X015711Y010806D03*
X015396Y010806D03*
X015081Y010806D03*
X014766Y010806D03*
X014451Y010806D03*
D17*
X014695Y004155D03*
X015695Y004155D03*
X015695Y003155D03*
X014695Y003155D03*
X015226Y001458D03*
X016226Y001458D03*
X016695Y003155D03*
X016695Y004155D03*
D18*
X013604Y012305D03*
X011124Y012305D03*
D19*
X012407Y016604D03*
X013407Y016604D03*
X014407Y016604D03*
X015407Y016604D03*
X016407Y016604D03*
X017407Y016604D03*
X018407Y016604D03*
X019407Y016604D03*
X019407Y020604D03*
X018407Y020604D03*
X017407Y020604D03*
X016407Y020604D03*
X015407Y020604D03*
X014407Y020604D03*
X013407Y020604D03*
X012407Y020604D03*
D20*
X011921Y019293D03*
X014972Y019145D03*
X015957Y017964D03*
X020927Y019195D03*
X021813Y018653D03*
X022157Y015504D03*
X023634Y015504D03*
X024569Y015553D03*
X024864Y014126D03*
X024126Y013437D03*
X022354Y013092D03*
X022010Y013092D03*
X021419Y012256D03*
X021518Y011911D03*
X020386Y011419D03*
X019598Y011173D03*
X018073Y011173D03*
X017482Y010582D03*
X017728Y009844D03*
X018073Y009746D03*
X016744Y009943D03*
X015907Y009500D03*
X015169Y009844D03*
X015071Y010287D03*
X015415Y010336D03*
X014825Y009500D03*
X014333Y008762D03*
X013398Y009254D03*
X012906Y009943D03*
X011970Y009697D03*
X011724Y008909D03*
X010986Y009549D03*
X010986Y009894D03*
X010445Y010287D03*
X010297Y009549D03*
X009411Y007581D03*
X011183Y007384D03*
X011478Y006645D03*
X011134Y005661D03*
X012512Y004775D03*
X013890Y005661D03*
X014726Y006547D03*
X014185Y007039D03*
X013939Y006793D03*
X015120Y005661D03*
X015465Y005661D03*
X015268Y004775D03*
X016744Y004775D03*
X018171Y005661D03*
X018663Y006547D03*
X017925Y007138D03*
X018319Y007531D03*
X017728Y008319D03*
X016744Y008516D03*
X016744Y008909D03*
X015711Y011370D03*
X015169Y011271D03*
X016449Y012502D03*
X016744Y011813D03*
X019549Y009401D03*
X019648Y008958D03*
X020091Y007531D03*
X020730Y007039D03*
X020878Y007531D03*
X020976Y005661D03*
X019598Y005661D03*
X023585Y007581D03*
X021370Y009943D03*
X023781Y011173D03*
X024274Y010484D03*
X024963Y011665D03*
X026439Y012551D03*
X028309Y012305D03*
X026439Y014667D03*
X027423Y015307D03*
X027522Y017128D03*
X027522Y017817D03*
X026488Y017915D03*
X026341Y018260D03*
X026783Y019145D03*
X027374Y018899D03*
X028752Y018358D03*
X029244Y018063D03*
X028752Y017768D03*
X030228Y017374D03*
X030228Y018752D03*
X030228Y020130D03*
X029638Y020819D03*
X030228Y021508D03*
X029835Y022197D03*
X028703Y021754D03*
X028358Y021754D03*
X028900Y023329D03*
X030671Y023329D03*
X027325Y020376D03*
X026980Y020376D03*
X026685Y021360D03*
X025848Y021458D03*
X024077Y022935D03*
X022305Y023279D03*
X021813Y023378D03*
X023142Y025346D03*
X024323Y025592D03*
X025848Y023673D03*
X026734Y025691D03*
X025209Y027610D03*
X023831Y027610D03*
X022846Y027364D03*
X022453Y027610D03*
X021075Y027610D03*
X019697Y027610D03*
X021961Y025592D03*
X017285Y025691D03*
X015858Y022935D03*
X012561Y025691D03*
X011528Y027561D03*
X009657Y027561D03*
X008280Y027561D03*
X006902Y027512D03*
X005868Y027561D03*
X007394Y025346D03*
X006311Y024362D03*
X007640Y024067D03*
X008083Y024116D03*
X008772Y023033D03*
X009215Y023132D03*
X009657Y022935D03*
X010543Y022492D03*
X010888Y022836D03*
X010740Y023427D03*
X010593Y024264D03*
X010297Y025346D03*
X009805Y025346D03*
X009411Y026084D03*
X011774Y023427D03*
X005868Y019392D03*
X005524Y017915D03*
X005179Y017128D03*
X005179Y016488D03*
X004687Y017669D03*
X003260Y017915D03*
X003457Y019638D03*
X003211Y020228D03*
X002866Y019884D03*
X004392Y021163D03*
X004785Y020819D03*
X005031Y021458D03*
X001882Y022246D03*
X001193Y022246D03*
X000750Y023329D03*
X001193Y020622D03*
X001193Y019244D03*
X001488Y018703D03*
X001144Y018210D03*
X001193Y016488D03*
X000750Y014667D03*
X002522Y014519D03*
X004687Y012305D03*
X005917Y012649D03*
X006459Y013043D03*
X006951Y013043D03*
X009165Y013191D03*
X006705Y015602D03*
X007049Y009943D03*
X021173Y014027D03*
X025947Y009943D03*
X030671Y014667D03*
X030228Y015996D03*
X028752Y019441D03*
X026390Y017079D03*
X004047Y025149D03*
M02*
