%
M48
M72
T01C0.0080
T02C0.0315
T03C0.0400
%
T01
X7049Y9943
X4687Y12305
X5917Y12649
X6459Y13043
X6951Y13043
X9165Y13191
X6705Y15602
X5179Y16488
X5179Y17128
X4687Y17669
X5524Y17915
X5868Y19392
X4785Y20819
X4392Y21163
X5031Y21458
X3211Y20228
X2866Y19884
X3457Y19638
X3260Y17915
X1488Y18703
X1144Y18210
X1193Y19244
X1193Y20622
X1193Y22246
X1882Y22246
X750Y23329
X4047Y25149
X6311Y24362
X7394Y25346
X7640Y24067
X8083Y24116
X8772Y23033
X9215Y23132
X9657Y22935
X10543Y22492
X10888Y22836
X10740Y23427
X10593Y24264
X10297Y25346
X9805Y25346
X9411Y26084
X9657Y27561
X8280Y27561
X6902Y27512
X5868Y27561
X11528Y27561
X12561Y25691
X11774Y23427
X15858Y22935
X17285Y25691
X19697Y27610
X21075Y27610
X22453Y27610
X22846Y27364
X23831Y27610
X25209Y27610
X26734Y25691
X25848Y23673
X24077Y22935
X22305Y23279
X21813Y23378
X23142Y25346
X24323Y25592
X21961Y25592
X25848Y21458
X26685Y21360
X26980Y20376
X27325Y20376
X26783Y19145
X27374Y18899
X26488Y17915
X26341Y18260
X26390Y17079
X27522Y17128
X27522Y17817
X28752Y17768
X29244Y18063
X28752Y18358
X28752Y19441
X30228Y20130
X29638Y20819
X30228Y21508
X29835Y22197
X28703Y21754
X28358Y21754
X28900Y23329
X30671Y23329
X30228Y18752
X30228Y17374
X30228Y15996
X30671Y14667
X28309Y12305
X26439Y12551
X24963Y11665
X23781Y11173
X24274Y10484
X25947Y9943
X23585Y7581
X21370Y9943
X20386Y11419
X19598Y11173
X18073Y11173
X17482Y10582
X17728Y9844
X18073Y9746
X16744Y9943
X15907Y9500
X15169Y9844
X15071Y10287
X15415Y10336
X14825Y9500
X14333Y8762
X13398Y9254
X12906Y9943
X11970Y9697
X11724Y8909
X10986Y9549
X10986Y9894
X10445Y10287
X10297Y9549
X9411Y7581
X11183Y7384
X11478Y6645
X11134Y5661
X12512Y4775
X13890Y5661
X14726Y6547
X14185Y7039
X13939Y6793
X15120Y5661
X15465Y5661
X15268Y4775
X16744Y4775
X18171Y5661
X18663Y6547
X17925Y7138
X18319Y7531
X17728Y8319
X16744Y8516
X16744Y8909
X15711Y11370
X15169Y11271
X16449Y12502
X16744Y11813
X19549Y9401
X19648Y8958
X20091Y7531
X20730Y7039
X20878Y7531
X20976Y5661
X19598Y5661
X21518Y11911
X21419Y12256
X22010Y13092
X22354Y13092
X21173Y14027
X22157Y15504
X23634Y15504
X24569Y15553
X24864Y14126
X24126Y13437
X26439Y14667
X27423Y15307
X21813Y18653
X20927Y19195
X15957Y17964
X14972Y19145
X11921Y19293
X2522Y14519
X750Y14667
X1193Y16488
T02
X12407Y16604
X13407Y16604
X14407Y16604
X15407Y16604
X16407Y16604
X17407Y16604
X18407Y16604
X19407Y16604
X19407Y20604
X18407Y20604
X17407Y20604
X16407Y20604
X15407Y20604
X14407Y20604
X13407Y20604
X12407Y20604
T03
X14695Y4155
X15695Y4155
X15695Y3155
X14695Y3155
X15226Y1458
X16226Y1458
X16695Y3155
X16695Y4155
M30
